<?xml version="1.0" encoding="UTF-8" standalone="no"?>
<!-- Created with Inkscape (http://www.inkscape.org/) -->

<svg
   xmlns:dc="http://purl.org/dc/elements/1.1/"
   xmlns:cc="http://creativecommons.org/ns#"
   xmlns:rdf="http://www.w3.org/1999/02/22-rdf-syntax-ns#"
   xmlns:svg="http://www.w3.org/2000/svg"
   xmlns="http://www.w3.org/2000/svg"
   xmlns:sodipodi="http://sodipodi.sourceforge.net/DTD/sodipodi-0.dtd"
   xmlns:inkscape="http://www.inkscape.org/namespaces/inkscape"
   version="1.1"
   width="54.074986"
   height="54.051872"
   viewBox="0 0 54.074986 54.051872"
   id="Layer_1"
   xml:space="preserve"
   inkscape:version="0.91 r13725"
   sodipodi:docname="PLOS_logo_2012[1].svg"><sodipodi:namedview
     pagecolor="#ffffff"
     bordercolor="#666666"
     borderopacity="1"
     objecttolerance="10"
     gridtolerance="10"
     guidetolerance="10"
     inkscape:pageopacity="0"
     inkscape:pageshadow="2"
     inkscape:window-width="1375"
     inkscape:window-height="937"
     id="namedview45"
     showgrid="false"
     fit-margin-top="2"
     fit-margin-left="2"
     fit-margin-right="2"
     fit-margin-bottom="2"
     inkscape:zoom="0.98666667"
     inkscape:cx="145.11039"
     inkscape:cy="23.881041"
     inkscape:window-x="266"
     inkscape:window-y="1072"
     inkscape:window-maximized="1"
     inkscape:current-layer="Layer_1" /><metadata
     id="metadata89"><rdf:RDF><cc:Work
         rdf:about=""><dc:format>image/svg+xml</dc:format><dc:type
           rdf:resource="http://purl.org/dc/dcmitype/StillImage" /><dc:title></dc:title></cc:Work></rdf:RDF></metadata><defs
     id="defs87" /><g
     style="fill:#000000;fill-opacity:1;stroke:none"
     id="g15"
     transform="matrix(1.0397041,0,0,1.0397041,-5.1631564,-33.080181)"><g
       style="fill:#000000;fill-opacity:1;stroke:none"
       id="g17"><path
         inkscape:connector-curvature="0"
         style="fill:#000000;fill-opacity:1;stroke:none"
         id="path19"
         d="m 46.931,44.056 c 1.814,0.561 3.742,-0.454 4.305,-2.263 0.564,-1.822 -0.453,-3.746 -2.27,-4.31 -1.811,-0.561 -3.744,0.448 -4.309,2.27 -0.558,1.81 0.459,3.741 2.274,4.303 z" /><path
         inkscape:connector-curvature="0"
         style="fill:#000000;fill-opacity:1;stroke:none"
         id="path21"
         d="m 54.974,61.184 c 0.283,-0.908 -0.225,-1.873 -1.133,-2.156 -0.904,-0.277 -1.866,0.232 -2.146,1.14 -0.281,0.9 0.223,1.869 1.126,2.148 0.908,0.28 1.874,-0.231 2.153,-1.132 z" /><path
         inkscape:connector-curvature="0"
         style="fill:#000000;fill-opacity:1;stroke:none"
         id="path23"
         d="m 36.464,37.104 c 0.912,0.281 1.876,-0.229 2.156,-1.133 0.277,-0.901 -0.226,-1.872 -1.135,-2.153 -0.911,-0.282 -1.879,0.231 -2.156,1.133 -0.281,0.903 0.224,1.869 1.135,2.153 z" /><path
         inkscape:connector-curvature="0"
         style="fill:#000000;fill-opacity:1;stroke:none"
         id="path25"
         d="m 12.717,66.938 c -0.907,-0.28 -1.879,0.229 -2.159,1.142 -0.281,0.905 0.234,1.862 1.139,2.144 0.904,0.277 1.869,-0.219 2.147,-1.123 0.285,-0.917 -0.228,-1.885 -1.127,-2.163 z" /><path
         inkscape:connector-curvature="0"
         style="fill:#000000;fill-opacity:1;stroke:none"
         id="path27"
         d="m 42.712,74.927 c -1.177,-0.366 -2.432,0.302 -2.795,1.474 -0.365,1.179 0.293,2.434 1.473,2.8 1.174,0.362 2.43,-0.3 2.796,-1.478 0.361,-1.172 -0.298,-2.432 -1.474,-2.796 z" /><path
         inkscape:connector-curvature="0"
         style="fill:#000000;fill-opacity:1;stroke:none"
         id="path29"
         d="m 20.183,41.176 c 0.45,-1.453 -0.367,-2.992 -1.82,-3.446 -1.447,-0.447 -2.992,0.361 -3.441,1.814 -0.451,1.449 0.363,2.996 1.811,3.445 1.455,0.451 3.002,-0.364 3.45,-1.813 z" /><path
         inkscape:connector-curvature="0"
         style="fill:#000000;fill-opacity:1;stroke:none"
         id="path31"
         d="m 26.021,76.505 c -1.455,-0.452 -2.989,0.359 -3.44,1.815 -0.447,1.443 0.358,2.988 1.811,3.439 1.448,0.446 2.983,-0.369 3.432,-1.816 0.452,-1.454 -0.353,-2.99 -1.803,-3.438 z" /><path
         inkscape:connector-curvature="0"
         style="fill:#000000;fill-opacity:1;stroke:none"
         id="path33"
         d="m 9.568,49.911 c -1.09,-0.338 -2.247,0.271 -2.587,1.364 -0.334,1.082 0.276,2.241 1.365,2.578 1.088,0.336 2.244,-0.273 2.58,-1.354 0.339,-1.095 -0.271,-2.252 -1.358,-2.588 z" /></g><g
       style="fill:#000000;fill-opacity:1;stroke:none"
       id="g35"><g
         style="fill:#000000;fill-opacity:1;stroke:none"
         id="g37"><path
           inkscape:connector-curvature="0"
           style="fill:#000000;fill-opacity:1;stroke:none"
           id="path39"
           d="M 44.95,49.017 C 42.659,45.375 39.12,42.845 35.065,41.82 35.042,41.811 35.02,41.798 35.001,41.79 l -0.006,0.013 c -1.303,-0.321 -2.657,-0.501 -4.043,-0.501 -3.104,0 -6.133,0.878 -8.766,2.536 -7.704,4.854 -10.027,15.067 -5.179,22.775 3.039,4.826 8.271,7.709 13.999,7.709 l 0,0 c 3.102,0 6.137,-0.876 8.769,-2.534 7.704,-4.85 10.025,-15.07 5.175,-22.771 z m -6.349,20.906 c -1.977,1.242 -4.224,1.946 -6.537,2.119 1.969,-1.661 3.612,-4.04 5.011,-7.241 l 0,0 c 0.456,-0.191 0.911,-0.394 1.351,-0.605 0.448,-0.223 0.883,-0.447 1.306,-0.688 0.423,-0.235 0.843,-0.483 1.237,-0.749 0.365,-0.232 0.703,-0.478 1.027,-0.719 0.084,0.285 0.158,0.577 0.217,0.852 0.068,0.353 0.117,0.692 0.154,1.025 0.033,0.323 0.043,0.636 0.033,0.945 -0.004,0.294 -0.029,0.574 -0.07,0.83 -0.042,0.268 -0.088,0.496 -0.166,0.722 -0.314,0.995 -2.011,2.529 -3.563,3.509 z M 18.952,65.546 c 0.182,0.097 0.351,0.199 0.546,0.288 0.354,0.165 0.714,0.303 1.11,0.434 0.375,0.117 0.77,0.237 1.162,0.328 0.262,0.065 0.534,0.105 0.804,0.157 0.247,1.224 0.593,2.354 1.089,3.336 -1.867,-1.11 -3.49,-2.644 -4.711,-4.543 z m 5.512,-19.103 c 0.293,0.015 0.602,0.036 0.928,0.091 0.322,0.042 0.661,0.114 1.002,0.191 0.285,0.067 0.576,0.162 0.869,0.256 -0.887,1.224 -1.717,2.65 -2.485,4.316 -1.317,2.908 -2.151,6.081 -2.473,9.43 -0.151,1.606 -0.118,3.104 0.036,4.513 C 22.263,65.219 22.183,65.211 22.107,65.19 21.744,65.102 21.386,64.998 21.056,64.895 20.718,64.784 20.406,64.66 20.091,64.516 19.798,64.381 19.522,64.242 19.254,64.069 19.001,63.923 18.778,63.764 18.578,63.602 18.367,63.43 18.184,63.253 18.029,63.09 17.553,62.604 17.175,61.582 17.13,61.362 l -0.004,0 c -1.252,-4.907 0.107,-10.151 3.857,-13.769 0.846,-0.807 2.103,-1.222 3.481,-1.15 z m 18.623,3.745 c 0.447,0.709 0.824,1.46 1.148,2.237 0.158,0.383 0.285,0.771 0.4,1.168 0.115,0.386 0.244,0.767 0.33,1.159 0.11,0.509 0.09,1.033 -0.086,1.527 -0.08,0.237 -0.166,0.481 -0.279,0.718 -0.114,0.247 -0.256,0.495 -0.406,0.744 -0.164,0.252 -0.343,0.506 -0.553,0.771 -0.205,0.261 -0.43,0.515 -0.652,0.763 -0.109,0.107 -0.229,0.214 -0.342,0.323 -0.082,-0.19 -0.154,-0.384 -0.242,-0.571 -0.187,-0.405 -0.393,-0.809 -0.616,-1.209 -0.224,-0.403 -0.46,-0.8 -0.706,-1.195 -0.25,-0.402 -0.514,-0.801 -0.791,-1.188 -0.212,-0.301 -0.439,-0.591 -0.662,-0.887 0.249,-3.497 -0.083,-6.413 -0.943,-8.765 1.74,1.113 3.257,2.589 4.4,4.405 z M 30.354,70.607 c -1.012,0.777 -2.078,1.162 -2.888,1.037 -0.915,-0.156 -1.827,-0.938 -2.438,-2.093 -0.426,-0.813 -0.72,-1.692 -0.931,-2.587 0.077,0.01 0.146,0.02 0.22,0.026 0.438,0.036 0.886,0.059 1.347,0.069 0.162,0.002 0.322,0.004 0.479,0.004 0.307,0 0.607,-0.004 0.912,-0.021 0.475,-0.015 0.947,-0.043 1.412,-0.092 0.479,-0.033 0.965,-0.099 1.456,-0.165 0.479,-0.067 0.962,-0.158 1.447,-0.252 0.483,-0.092 0.969,-0.202 1.45,-0.319 0.438,-0.108 0.869,-0.231 1.305,-0.364 -1.11,2.078 -2.354,3.646 -3.771,4.757 z m -6.582,-9.745 c 0.309,-3.179 1.1,-6.192 2.348,-8.95 0.797,-1.729 1.656,-3.184 2.579,-4.393 0.343,0.153 0.694,0.31 1.062,0.498 0.399,0.199 0.794,0.419 1.188,0.656 0.393,0.224 0.785,0.479 1.16,0.729 0.388,0.263 0.776,0.538 1.142,0.813 0.376,0.291 0.747,0.581 1.106,0.896 0.363,0.301 0.719,0.615 1.062,0.938 0.35,0.33 0.689,0.668 1.017,1.001 0.325,0.339 0.647,0.685 0.952,1.038 0.021,0.018 0.033,0.038 0.053,0.055 -0.009,0.085 -0.004,0.163 -0.009,0.245 -0.292,3.203 -1.012,6.226 -2.134,8.977 -0.099,0.233 -0.2,0.456 -0.303,0.688 -0.382,0.138 -0.762,0.267 -1.148,0.38 -0.455,0.137 -0.908,0.271 -1.369,0.383 -0.463,0.111 -0.923,0.218 -1.378,0.308 -0.464,0.089 -0.927,0.171 -1.384,0.239 -0.455,0.062 -0.907,0.119 -1.374,0.154 -0.448,0.045 -0.888,0.074 -1.345,0.088 -0.438,0.019 -0.864,0.021 -1.295,0.014 -0.43,-0.01 -0.852,-0.029 -1.266,-0.065 -0.209,-0.018 -0.408,-0.048 -0.607,-0.069 -0.215,-1.665 -0.18,-3.297 -0.057,-4.623 z M 39.364,56.65 c 0.166,0.242 0.338,0.487 0.493,0.732 0.231,0.377 0.456,0.752 0.667,1.134 0.203,0.371 0.395,0.736 0.569,1.12 0.15,0.322 0.282,0.639 0.411,0.954 -0.092,0.068 -0.172,0.143 -0.266,0.212 -0.331,0.247 -0.684,0.5 -1.061,0.748 -0.375,0.241 -0.766,0.474 -1.16,0.698 -0.395,0.219 -0.793,0.429 -1.204,0.632 0.703,-1.97 1.227,-4.047 1.551,-6.23 z M 34.511,43.956 c 0.732,0.211 1.409,0.902 1.896,1.952 0.72,1.625 1.08,3.701 1.098,6.172 -0.016,-0.016 -0.021,-0.026 -0.033,-0.04 -0.345,-0.349 -0.698,-0.698 -1.059,-1.041 -0.363,-0.341 -0.737,-0.673 -1.115,-0.991 -0.384,-0.325 -0.773,-0.637 -1.172,-0.945 -0.395,-0.294 -0.797,-0.581 -1.211,-0.859 -0.404,-0.272 -0.818,-0.535 -1.238,-0.783 -0.419,-0.248 -0.844,-0.482 -1.265,-0.69 -0.252,-0.131 -0.497,-0.238 -0.747,-0.354 0.552,-0.585 1.121,-1.105 1.719,-1.545 l 0,0.004 c 1.098,-0.753 2.226,-1.069 3.047,-0.902 0.029,0.012 0.056,0.012 0.08,0.022 z M 30.562,43.613 30.56,43.611 c -0.832,0.595 -1.612,1.318 -2.35,2.168 -0.097,-0.036 -0.196,-0.083 -0.295,-0.112 -0.401,-0.134 -0.797,-0.252 -1.186,-0.349 -0.387,-0.09 -0.765,-0.165 -1.119,-0.215 -0.332,-0.056 -0.648,-0.077 -0.963,-0.093 1.889,-0.936 3.95,-1.451 6.065,-1.484 -0.049,0.032 -0.102,0.049 -0.15,0.087 z M 43.805,63.77 c -0.038,-0.375 -0.095,-0.763 -0.177,-1.174 -0.082,-0.378 -0.18,-0.774 -0.297,-1.175 -0.037,-0.121 -0.086,-0.241 -0.125,-0.36 0.283,-0.258 0.561,-0.521 0.824,-0.79 0.271,-0.293 0.527,-0.579 0.744,-0.864 0.172,-0.212 0.313,-0.428 0.46,-0.641 -0.126,1.841 -0.605,3.648 -1.417,5.319 -0.006,-0.108 -0.002,-0.208 -0.012,-0.315 z" /><path
           inkscape:connector-curvature="0"
           style="fill:#000000;fill-opacity:1;stroke:none"
           id="path41"
           d="m 27.88,59.512 c 0.949,0 1.719,-0.766 1.719,-1.716 0,-0.949 -0.77,-1.721 -1.719,-1.724 -0.95,0.003 -1.723,0.779 -1.723,1.728 0,0.946 0.775,1.712 1.723,1.712 z" /></g></g></g></svg>