<?xml version="1.0" encoding="UTF-8" standalone="no"?><!DOCTYPE svg PUBLIC "-//W3C//DTD SVG 1.1//EN" "http://www.w3.org/Graphics/SVG/1.1/DTD/svg11.dtd"><svg width="100%" height="100%" viewBox="0 0 60 19" version="1.1" xmlns="http://www.w3.org/2000/svg" xmlns:xlink="http://www.w3.org/1999/xlink" xml:space="preserve" xmlns:serif="http://www.serif.com/" style="fill-rule:evenodd;clip-rule:evenodd;stroke-linejoin:round;stroke-miterlimit:1.41421;"><g id="g6"><path id="path8" d="M40.119,0.175c-0.349,0.175 -0.309,0.054 -4.049,10.117c-1.05,2.812 -2.045,5.355 -2.22,5.664c-0.35,0.606 -0.78,0.942 -1.359,1.063c-0.807,0.188 -0.861,0.215 -0.861,0.552l0,0.323l5.516,0l0,-0.337c0,-0.363 -0.054,-0.403 -0.834,-0.538c-0.646,-0.108 -0.915,-0.377 -0.915,-0.928c0,-0.242 0.309,-1.386 0.673,-2.543l0.686,-2.112l5.449,0l0.767,2.341c0.417,1.291 0.766,2.435 0.766,2.543c0,0.295 -0.444,0.618 -1.022,0.739c-0.444,0.081 -0.538,0.162 -0.565,0.471l-0.04,0.364l6.202,0l0,-0.323c0,-0.337 -0.216,-0.485 -0.713,-0.485c-0.512,0 -1.144,-0.497 -1.48,-1.17c-0.296,-0.592 -1.44,-3.848 -4.48,-12.781c-0.579,-1.722 -1.09,-3.135 -1.13,-3.135c-0.041,0 -0.216,0.081 -0.391,0.175Zm0.565,6.66c0.565,1.749 1.036,3.269 1.036,3.363c0,0.135 -0.511,0.161 -2.246,0.135c-2.18,-0.041 -2.261,-0.054 -2.22,-0.31c0.094,-0.498 2.22,-6.39 2.314,-6.39c0.04,0 0.551,1.439 1.116,3.202Z" style="fill:#0065a4;fill-rule:nonzero;"/><path id="path10" d="M54.165,0.175c-1.574,0.404 -2.771,1.372 -3.404,2.771c-0.282,0.606 -0.349,0.956 -0.349,1.844c0,0.968 0.053,1.197 0.43,1.977c0.511,1.036 1.574,2.086 2.839,2.785c3.296,1.843 4.076,2.664 4.157,4.386c0.067,1.171 -0.094,1.722 -0.713,2.449c-1.144,1.332 -3.377,1.291 -4.749,-0.094c-0.633,-0.646 -1.44,-2.072 -1.588,-2.826c-0.094,-0.417 -0.336,-0.524 -0.713,-0.296c-0.148,0.094 -0.134,0.417 0.121,1.965c0.162,1.022 0.323,1.937 0.364,2.031c0.107,0.269 1.183,0.713 2.3,0.955c3.162,0.646 6.081,-0.793 6.889,-3.417c0.484,-1.574 0.269,-2.973 -0.646,-4.184c-0.673,-0.888 -1.521,-1.547 -3.377,-2.597c-2.664,-1.507 -3.31,-2.273 -3.31,-4.022c0,-0.781 0.067,-1.131 0.31,-1.574c0.847,-1.615 3.377,-1.884 4.614,-0.471c0.431,0.484 0.942,1.506 1.117,2.206c0.094,0.404 0.565,0.525 0.7,0.188c0.067,-0.174 -0.296,-3.578 -0.377,-3.646c-0.027,-0.013 -0.431,-0.134 -0.915,-0.269c-1.13,-0.309 -2.839,-0.376 -3.7,-0.161Z" style="fill:#0065a4;fill-rule:nonzero;"/><path id="path12" d="M0.175,0.767c0.04,0.323 0.108,0.377 0.511,0.417c0.767,0.067 1.184,0.282 1.332,0.726c0.094,0.27 0.148,2.772 0.148,7.266c0,7.682 0.014,7.52 -0.915,7.762c-0.269,0.081 -0.646,0.162 -0.834,0.175c-0.256,0.027 -0.35,0.135 -0.377,0.404l-0.04,0.377l6.875,0l0,-0.337c0,-0.35 -0.108,-0.403 -1.184,-0.524c-0.7,-0.068 -1.063,-0.364 -1.238,-1.009c-0.188,-0.687 -0.175,-5.665 0.014,-5.665c0.08,0 0.524,0.095 0.982,0.216c2.502,0.659 5.193,-0.512 6.269,-2.691c0.538,-1.076 0.727,-2.314 0.552,-3.444c-0.296,-1.83 -1.211,-2.947 -2.946,-3.606c-0.888,-0.35 -0.969,-0.35 -5.046,-0.403l-4.143,-0.054l0.04,0.39Zm7.722,0.847c0.754,0.377 1.467,1.198 1.763,2.072c0.269,0.808 0.309,2.557 0.067,3.404c-0.471,1.642 -1.789,2.624 -3.498,2.624c-0.525,0 -1.17,-0.068 -1.439,-0.162l-0.471,-0.161l0,-3.606c0,-3.969 0.04,-4.224 0.726,-4.44c0.646,-0.201 2.166,-0.053 2.852,0.269Z" style="fill:#0065a4;fill-rule:nonzero;"/><path id="path14" d="M13.898,0.767c0.04,0.323 0.121,0.39 0.619,0.471c0.78,0.134 1.264,0.444 1.695,1.103l0.363,0.552l-0.04,6.457c-0.041,5.88 -0.067,6.499 -0.283,6.889c-0.242,0.457 -0.834,0.847 -1.291,0.847c-0.471,0 -0.686,0.162 -0.686,0.485l0,0.323l5.919,0l0,-0.337c0,-0.35 -0.04,-0.363 -1.09,-0.538c-0.269,-0.04 -0.632,-0.229 -0.847,-0.457c-0.525,-0.552 -0.632,-1.884 -0.592,-7.656l0.04,-4.87l0.686,0.902c8.988,11.839 10.024,13.157 10.414,13.198l0.376,0.04l0.054,-7.776c0.041,-6.875 0.067,-7.83 0.269,-8.274c0.256,-0.565 0.619,-0.808 1.386,-0.902c0.471,-0.067 0.538,-0.134 0.579,-0.457l0.04,-0.363l-2.973,0l-2.974,0l0.041,0.363c0.04,0.336 0.107,0.39 0.753,0.471c1.44,0.215 1.628,0.538 1.789,2.987c0.162,2.502 0.148,9.659 -0.013,9.606c-0.067,-0.027 -2.206,-2.705 -4.736,-5.961c-2.543,-3.255 -4.884,-6.269 -5.22,-6.7l-0.605,-0.766l-1.857,0l-1.857,0l0.041,0.363Z" style="fill:#0065a4;fill-rule:nonzero;"/></g></svg>