<?xml version="1.0" encoding="UTF-8" standalone="no"?>
<svg
   xmlns:dc="http://purl.org/dc/elements/1.1/"
   xmlns:cc="http://creativecommons.org/ns#"
   xmlns:rdf="http://www.w3.org/1999/02/22-rdf-syntax-ns#"
   xmlns:svg="http://www.w3.org/2000/svg"
   xmlns="http://www.w3.org/2000/svg"
   xmlns:sodipodi="http://sodipodi.sourceforge.net/DTD/sodipodi-0.dtd"
   xmlns:inkscape="http://www.inkscape.org/namespaces/inkscape"
   version="1.0"
   width="59.999989pt"
   height="18.275837pt"
   viewBox="0 0 59.999989 18.275837"
   preserveAspectRatio="xMidYMid meet"
   id="svg2"
   inkscape:version="0.91 r13725"
   sodipodi:docname="PNAS logo.svg">
  <defs
     id="defs18" />
  <sodipodi:namedview
     pagecolor="#ffffff"
     bordercolor="#666666"
     borderopacity="1"
     objecttolerance="10"
     gridtolerance="10"
     guidetolerance="10"
     inkscape:pageopacity="0"
     inkscape:pageshadow="2"
     inkscape:window-width="1366"
     inkscape:window-height="705"
     id="namedview16"
     showgrid="false"
     fit-margin-top="0"
     fit-margin-left="0"
     fit-margin-right="0"
     fit-margin-bottom="0"
     inkscape:zoom="2.5797357"
     inkscape:cx="91.794659"
     inkscape:cy="60.975274"
     inkscape:window-x="-4"
     inkscape:window-y="-4"
     inkscape:window-maximized="1"
     inkscape:current-layer="svg2" />
  <metadata
     id="metadata4">
Created by potrace 1.13, written by Peter Selinger 2001-2015
<rdf:RDF>
  <cc:Work
     rdf:about="">
    <dc:format>image/svg+xml</dc:format>
    <dc:type
       rdf:resource="http://purl.org/dc/dcmitype/StillImage" />
    <dc:title></dc:title>
  </cc:Work>
</rdf:RDF>
</metadata>
  <g
     transform="matrix(0.01345384,0,0,-0.01345384,-0.79377656,18.566299)"
     id="g6"
     style="fill:#000000;stroke:none">
    <path
       d="m 3041,1367 c -26,-13 -23,-4 -301,-752 -78,-209 -152,-398 -165,-421 -26,-45 -58,-70 -101,-79 -60,-14 -64,-16 -64,-41 l 0,-24 205,0 205,0 0,25 c 0,27 -4,30 -62,40 -48,8 -68,28 -68,69 0,18 23,103 50,189 l 51,157 202,0 203,0 57,-174 c 31,-96 57,-181 57,-189 0,-22 -33,-46 -76,-55 -33,-6 -40,-12 -42,-35 l -3,-27 230,0 231,0 0,24 c 0,25 -16,36 -53,36 -38,0 -85,37 -110,87 -22,44 -107,286 -333,950 -43,128 -81,233 -84,233 -3,0 -16,-6 -29,-13 z m 42,-495 c 42,-130 77,-243 77,-250 0,-10 -38,-12 -167,-10 -162,3 -168,4 -165,23 7,37 165,475 172,475 3,0 41,-107 83,-238 z"
       id="path8"
       inkscape:connector-curvature="0" />
    <path
       d="m 4085,1367 c -117,-30 -206,-102 -253,-206 -21,-45 -26,-71 -26,-137 0,-72 4,-89 32,-147 38,-77 117,-155 211,-207 245,-137 303,-198 309,-326 5,-87 -7,-128 -53,-182 -85,-99 -251,-96 -353,7 -47,48 -107,154 -118,210 -7,31 -25,39 -53,22 -11,-7 -10,-31 9,-146 12,-76 24,-144 27,-151 8,-20 88,-53 171,-71 235,-48 452,59 512,254 36,117 20,221 -48,311 -50,66 -113,115 -251,193 -198,112 -246,169 -246,299 0,58 5,84 23,117 63,120 251,140 343,35 32,-36 70,-112 83,-164 7,-30 42,-39 52,-14 5,13 -22,266 -28,271 -2,1 -32,10 -68,20 -84,23 -211,28 -275,12 z"
       id="path10"
       inkscape:connector-curvature="0" />
    <path
       d="m 72,1323 c 3,-24 8,-28 38,-31 57,-5 88,-21 99,-54 7,-20 11,-206 11,-540 0,-571 1,-559 -68,-577 C 132,115 104,109 90,108 71,106 64,98 62,78 l -3,-28 255,0 256,0 0,25 c 0,26 -8,30 -88,39 -52,5 -79,27 -92,75 -14,51 -13,421 1,421 6,0 39,-7 73,-16 186,-49 386,38 466,200 40,80 54,172 41,256 -22,136 -90,219 -219,268 -66,26 -72,26 -375,30 l -308,4 3,-29 z m 574,-63 c 56,-28 109,-89 131,-154 20,-60 23,-190 5,-253 C 747,731 649,658 522,658 c -39,0 -87,5 -107,12 l -35,12 0,268 c 0,295 3,314 54,330 48,15 161,4 212,-20 z"
       id="path12"
       inkscape:connector-curvature="0" />
    <path
       d="m 1092,1323 c 3,-24 9,-29 46,-35 58,-10 94,-33 126,-82 l 27,-41 -3,-480 c -3,-437 -5,-483 -21,-512 -18,-34 -62,-63 -96,-63 -35,0 -51,-12 -51,-36 l 0,-24 220,0 220,0 0,25 c 0,26 -3,27 -81,40 -20,3 -47,17 -63,34 -39,41 -47,140 -44,569 l 3,362 51,-67 C 2094,133 2171,35 2200,32 l 28,-3 4,578 c 3,511 5,582 20,615 19,42 46,60 103,67 35,5 40,10 43,34 l 3,27 -221,0 -221,0 3,-27 c 3,-25 8,-29 56,-35 107,-16 121,-40 133,-222 12,-186 11,-718 -1,-714 -5,2 -164,201 -352,443 -189,242 -363,466 -388,498 l -45,57 -138,0 -138,0 3,-27 z"
       id="path14"
       inkscape:connector-curvature="0" />
  </g>
</svg>
