<?xml version="1.0" encoding="UTF-8" standalone="no"?><!DOCTYPE svg PUBLIC "-//W3C//DTD SVG 1.1//EN" "http://www.w3.org/Graphics/SVG/1.1/DTD/svg11.dtd"><svg width="100%" height="100%" viewBox="0 0 108 31" version="1.1" xmlns="http://www.w3.org/2000/svg" xmlns:xlink="http://www.w3.org/1999/xlink" xml:space="preserve" xmlns:serif="http://www.serif.com/" style="fill-rule:evenodd;clip-rule:evenodd;stroke-linejoin:round;stroke-miterlimit:1.41421;"><g><path d="M108,25.95c0,-2.749 -2.235,-4.987 -4.984,-4.987c-2.816,0 -5.056,2.238 -5.056,4.987c0,2.813 2.24,5.05 5.056,5.05c2.749,0 4.984,-2.237 4.984,-5.05Z" style="fill:#ed1c24;fill-rule:nonzero;"/><path d="M69.612,30.098l23.852,0l0,-6.927l-15.794,0l0,-4.665l14.111,0l0,-6.422l-14.111,0l0,-4.5l15.584,0l0,-6.883l-23.642,0l0,29.397Z" style="fill:#231f20;fill-rule:nonzero;"/><path d="M13.774,30.603c7.142,0 11.885,-3.567 11.885,-9.573l0,-0.085c0,-5.503 -4.197,-7.687 -10.916,-9.158c-4.12,-0.924 -5.129,-1.513 -5.129,-2.859l0,-0.084c0,-1.092 0.967,-1.889 2.942,-1.889c2.607,0 5.549,0.964 8.235,2.899l4.071,-5.755c-3.192,-2.56 -7.096,-3.901 -12.096,-3.901c-7.056,0 -11.38,3.943 -11.38,9.403l0,0.085c0,6.009 4.827,7.772 11.088,9.202c4.032,0.964 5.001,1.597 5.001,2.857l0,0.083c0,1.26 -1.179,2.016 -3.407,2.016c-3.402,0 -6.594,-1.216 -9.532,-3.528l-4.536,5.419c3.653,3.23 8.566,4.868 13.774,4.868Z" style="fill:#231f20;fill-rule:nonzero;"/><path d="M28.632,30.098l8.142,0l0,-8.402l4.078,0c7.269,0 12.598,-3.651 12.598,-10.623l0,-0.083c0,-6.469 -4.783,-10.289 -12.178,-10.289l-12.64,0l0,29.397Zm8.142,-14.781l0,-7.774l3.868,0c2.901,0 4.709,1.301 4.709,3.826l0,0.083c0,2.311 -1.808,3.865 -4.666,3.865l-3.911,0Z" style="fill:#231f20;fill-rule:nonzero;"/><rect x="56.352" y="0.701" width="8.142" height="29.395" style="fill:#231f20;fill-rule:nonzero;"/></g></svg>