<?xml version="1.0" encoding="utf-8"?>
<!-- Generator: Adobe Illustrator 16.0.0, SVG Export Plug-In . SVG Version: 6.00 Build 0)  -->
<!DOCTYPE svg PUBLIC "-//W3C//DTD SVG 1.1//EN" "http://www.w3.org/Graphics/SVG/1.1/DTD/svg11.dtd">
<svg version="1.1" xmlns="http://www.w3.org/2000/svg" xmlns:xlink="http://www.w3.org/1999/xlink" x="0px" y="0px" width="500px"
	 height="137px" viewBox="0 0 500 137" enable-background="new 0 0 500 137" xml:space="preserve">
<g id="图层_2" display="none">
	<rect x="2.168" y="3.854" display="inline" width="132.876" height="132.877"/>
	<polygon display="inline" fill="#FFFFFF" points="6.057,140.619 -1.721,132.842 133.155,1.964 136.933,5.743 	"/>
	
		<line display="inline" fill="none" stroke="#FFFFFF" stroke-width="7" stroke-miterlimit="10" x1="21.537" y1="120.01" x2="148.771" y2="90.432"/>
	
		<line display="inline" fill="none" stroke="#FFFFFF" stroke-width="7" stroke-miterlimit="10" x1="48.466" y1="90.432" x2="-8.969" y2="12.426"/>
	
		<line display="inline" fill="none" stroke="#FFFFFF" stroke-width="5" stroke-miterlimit="10" x1="84.899" y1="53.998" x2="171.911" y2="63.006"/>
	
		<line display="inline" fill="none" stroke="#FFFFFF" stroke-width="5" stroke-miterlimit="10" x1="19.749" y1="53.998" x2="36.468" y2="-3.002"/>
	
		<line display="inline" fill="none" stroke="#FFFFFF" stroke-width="3" stroke-miterlimit="10" x1="165.916" y1="23.451" x2="107.618" y2="55.384"/>
	<polyline display="inline" fill="none" stroke="#FFFFFF" stroke-width="5" stroke-miterlimit="10" points="55.324,-6.433 
		57.253,32.175 59.609,79.288 159.907,79.288 	"/>
	
		<line display="inline" fill="none" stroke="#FFFFFF" stroke-width="5" stroke-miterlimit="10" x1="104.639" y1="100.692" x2="159.907" y2="127.3"/>
	<polyline display="inline" fill="none" stroke="#FFFFFF" stroke-width="3" stroke-miterlimit="10" points="107.618,-12.432 
		79.631,20.402 57.938,45.855 	"/>
	<path display="inline" fill="none" stroke="#FFFFFF" stroke-miterlimit="10" d="M68.605-12.432"/>
	
		<line display="inline" fill="none" stroke="#FFFFFF" stroke-width="3" stroke-miterlimit="10" x1="29.611" y1="20.375" x2="19.749" y2="-3.002"/>
	
		<line display="inline" fill="none" stroke="#FFFFFF" stroke-width="2" stroke-miterlimit="10" x1="84.04" y1="15.229" x2="78.75" y2="-12.432"/>
	
		<line display="inline" fill="none" stroke="#FFFFFF" stroke-width="2" stroke-miterlimit="10" x1="73.291" y1="27.841" x2="113.25" y2="25.498"/>
	
		<line display="inline" fill="none" stroke="#FFFFFF" stroke-width="2" stroke-miterlimit="10" x1="128.405" y1="43.998" x2="140.25" y2="20.375"/>
</g>
<g id="图层_2_x5F_复制" display="none">
	<g display="inline">
		<polygon fill="#FFFFFF" points="60.412,45.265 61.623,69.497 104.083,27.037 74.468,28.774 		"/>
		<polygon fill="#FFFFFF" points="135.044,32.988 131.129,40.795 135.044,38.651 		"/>
		<polygon fill="#FFFFFF" points="95.708,3.854 76.265,26.666 106.211,24.909 127.267,3.854 		"/>
		<polygon fill="#FFFFFF" points="60.193,40.896 82.848,14.318 80.847,3.854 58.342,3.854 		"/>
		<polygon fill="#FFFFFF" points="94.226,52.45 107.367,53.811 128.046,42.484 135.044,28.528 135.044,11.631 		"/>
		<polygon fill="#FFFFFF" points="47.671,83.449 56.855,74.265 53.335,3.854 37.063,3.854 23.389,50.47 		"/>
		<polygon fill="#FFFFFF" points="28.742,14.457 31.852,3.854 24.269,3.854 		"/>
		<polygon fill="#FFFFFF" points="84.511,12.366 91.767,3.854 82.883,3.854 		"/>
		<polygon fill="#FFFFFF" points="112.619,54.354 135.044,56.676 135.044,42.071 		"/>
		<polygon fill="#FFFFFF" points="19.663,45.409 27.406,19.009 21.013,3.854 2.168,3.854 2.168,21.649 		"/>
		<polygon fill="#FFFFFF" points="105.783,104.019 23.538,123.138 9.946,136.73 135.044,136.73 135.044,118.105 		"/>
		<polygon fill="#FFFFFF" points="135.044,81.788 64.888,81.788 32.902,113.774 135.044,90.029 		"/>
		<polygon fill="#FFFFFF" points="69.888,76.788 135.044,76.788 135.044,61.702 89.671,57.005 		"/>
		<polygon fill="#FFFFFF" points="2.168,128.953 42.665,88.456 2.168,33.455 		"/>
		<polygon fill="#FFFFFF" points="135.044,97.216 113.558,102.211 135.044,112.555 		"/>
	</g>
</g>
<g id="图层_6">
	<path fill="none" stroke="#FFFFFF" stroke-miterlimit="10" d="M68.605-12.432"/>
	<g>
		<polygon fill="#FFFFFF" points="75.306,23.184 109.309,21.189 131.145,0 95.065,0 		"/>
		<polygon fill="#FFFFFF" points="135.044,29.609 131.064,37.544 135.044,35.365 		"/>
		<polygon fill="#FFFFFF" points="59.194,42.086 60.517,68.536 107.076,23.356 73.479,25.326 		"/>
		<polygon fill="#FFFFFF" points="91.144,49.138 106.916,50.771 127.933,39.26 135.044,25.076 135.044,3.897 		"/>
		<polygon fill="#FFFFFF" points="46.884,81.762 55.664,73.242 52.002,0 35.464,0 21.566,47.376 		"/>
		<polygon fill="#FFFFFF" points="83.687,8.651 91.06,0 82.032,0 		"/>
		<polygon fill="#FFFFFF" points="27.007,10.775 30.168,0 22.461,0 		"/>
		<polygon fill="#FFFFFF" points="135.044,94.885 113.207,99.961 135.044,110.474 		"/>
		<polygon fill="#FFFFFF" points="17.78,42.232 25.65,15.401 19.152,0 0,0 0,18.085 		"/>
		<polygon fill="#FFFFFF" points="112.254,51.324 135.044,53.684 135.044,38.84 		"/>
		<polygon fill="#FFFFFF" points="105.306,101.797 21.038,121.389 7.787,135.044 135.044,135.044 135.044,116.115 		"/>
		<polygon fill="#FFFFFF" points="66.9,74.123 135.044,74.123 135.044,58.792 86.64,53.781 		"/>
		<polygon fill="#FFFFFF" points="0,127.257 41.732,86.762 0,30.083 		"/>
		<polygon fill="#FFFFFF" points="135.044,79.205 61.971,79.205 30.19,111.956 135.044,87.581 		"/>
		<polygon fill="#FFFFFF" points="58.972,37.646 81.996,10.634 79.962,0 57.091,0 		"/>
	</g>
	<g>
		<path fill="#FFFFFF" d="M163.701,40.197c0.106,0.403,0.317,0.998,0.488,1.316c-4.035,2.825-4.609,3.25-4.927,3.654
			c-0.149-0.34-0.574-0.892-0.851-1.147c0.425-0.297,1.147-1.02,1.147-2.018v-7.243h-3.568V33.25h5.098v8.688L163.701,40.197z
			 M161.195,31.147c-0.7-0.808-2.146-2.188-3.187-3.145l1.062-0.976c1.062,0.913,2.527,2.208,3.229,2.974L161.195,31.147z
			 M169.713,26.622c-0.021,2.188-0.021,4.376-0.17,6.501c0.297,2.039,1.254,8.773,5.884,11.704
			c-0.445,0.298-0.913,0.786-1.168,1.167c-2.974-2.018-4.483-5.607-5.267-8.581c-0.681,3.504-2.104,6.563-4.931,8.625
			c-0.276-0.362-0.764-0.85-1.211-1.125c5.354-3.718,5.247-11.132,5.291-18.291H169.713z"/>
		<path fill="#FFFFFF" d="M183.132,34.419c0,0.212,0,0.467-0.021,0.722h3.991v1.508h-4.077c-0.044,0.468-0.128,0.957-0.213,1.423
			c0.999,0.999,3.569,3.866,4.228,4.61l-1.063,1.338c-0.722-1.042-2.379-3.038-3.524-4.333c-0.68,2.251-1.977,4.545-4.398,6.266
			c-0.212-0.339-0.765-0.934-1.104-1.168c3.229-2.295,4.228-5.354,4.503-8.136h-4.27v-1.508h4.376c0-0.255,0-0.51,0-0.744v-3.484
			h-1.614c-0.511,1.275-1.061,2.422-1.722,3.336c-0.274-0.276-0.934-0.701-1.295-0.914c1.253-1.636,2.127-4.163,2.633-6.733
			l1.532,0.297c-0.171,0.892-0.405,1.742-0.659,2.549h6.054v1.465h-3.356V34.419z M195.367,28.45v16.738h-1.572v-1.466h-4.481V45.4
			h-1.53V28.45H195.367z M193.795,42.236v-12.3h-4.481v12.3H193.795z"/>
		<path fill="#FFFFFF" d="M205.812,30.786c-0.638,1.614-1.53,3.165-2.549,4.588c0.829,0.786,2.379,2.4,2.781,2.868l-0.912,1.274
			c-0.446-0.616-1.402-1.785-2.188-2.655v9.113H201.5v-8.518c-0.872,0.892-1.784,1.699-2.656,2.314
			c-0.128-0.446-0.468-1.232-0.701-1.507c2.21-1.402,4.503-3.952,5.801-6.564h-5.354v-1.445h6.141l0.274-0.063L205.812,30.786z
			 M202.688,30.128c-0.381-0.744-1.211-1.933-1.911-2.783l1.21-0.723c0.744,0.851,1.573,1.977,1.975,2.698L202.688,30.128z
			 M216.984,29.958v11.024h-1.508v-0.85h-3.017v5.842h-1.551v-5.842h-2.975v0.998h-1.443V29.958h4.418v-3.356h1.551v3.356H216.984z
			 M207.935,31.381v2.931h2.975v-2.931H207.935z M210.909,38.709v-2.974h-2.975v2.974H210.909z M212.46,31.381v2.931h3.017v-2.931
			H212.46z M215.477,38.709v-2.974h-3.017v2.974H215.477z"/>
		<path fill="#FFFFFF" d="M226.706,37.541c-0.042,0.425-0.042,1.062-0.02,1.402c-5.396,1.083-6.14,1.273-6.607,1.529
			c-0.063-0.318-0.317-1.083-0.51-1.486c0.488-0.106,1-0.637,1.656-1.381c0.427-0.426,1.297-1.487,2.274-2.826
			c-2.697,0.361-3.228,0.468-3.548,0.638c-0.085-0.34-0.34-1.105-0.531-1.529c0.402-0.085,0.765-0.575,1.254-1.296
			c0.487-0.701,2.102-3.42,2.996-5.99l1.508,0.7c-0.999,2.231-2.273,4.525-3.569,6.331l2.909-0.319
			c0.489-0.722,0.957-1.508,1.381-2.272l1.381,0.871c-1.444,2.295-3.079,4.546-4.779,6.373L226.706,37.541z M226.813,42.852
			c-2.464,0.658-5.012,1.317-6.923,1.826l-0.32-1.571c1.764-0.361,4.461-0.999,7.074-1.614L226.813,42.852z M238.198,36.563
			c-1.21-0.806-3.504-1.996-5.479-2.867c-1.72,1.211-3.633,2.188-5.502,2.889c-0.213-0.382-0.637-0.977-0.955-1.295
			c3.313-1.126,6.903-3.356,8.836-6.097h-7.455v-1.466h8.475l0.276-0.064l1.125,0.617c-0.828,1.699-2.102,3.186-3.569,4.439
			c1.872,0.806,3.973,1.805,5.144,2.549L238.198,36.563z M233.568,43.936h5.416v1.486h-12.447v-1.486h5.481v-5.141h-4.187v-1.466
			h10.155v1.466h-4.419V43.936z"/>
		<path fill="#FFFFFF" d="M247.964,39.304c-0.362-0.701-1.252-2.082-1.976-3.164v9.835h-1.552v-9.39
			c-0.869,2.125-1.975,4.227-3.079,5.544c-0.148-0.425-0.53-1.062-0.786-1.423c1.339-1.508,2.826-4.228,3.654-6.67h-3.356V32.55
			h3.567v-3.208c-0.977,0.191-1.975,0.36-2.909,0.489c-0.087-0.34-0.297-0.892-0.467-1.231c2.38-0.383,5.161-1,6.755-1.7
			l0.955,1.253c-0.786,0.318-1.762,0.616-2.782,0.849v3.549h3.122v1.487h-3.122v0.382c0.659,0.743,2.486,3.08,2.93,3.653
			L247.964,39.304z M257.564,40.43v5.544h-1.55v-5.289l-6.926,1.147l-0.254-1.509l7.18-1.147V26.602h1.55v12.32l2.487-0.383
			l0.232,1.444L257.564,40.43z M253.465,37.605c-0.764-0.935-2.397-2.252-3.737-3.101l0.976-0.935
			c1.36,0.828,3.018,2.082,3.802,2.994L253.465,37.605z M253.933,31.997c-0.659-0.892-2.124-2.145-3.377-3.016l0.998-0.914
			c1.274,0.807,2.762,2.019,3.462,2.911L253.933,31.997z"/>
		<path fill="#FFFFFF" d="M281.116,40.005h-8.646v4.057c0,0.957-0.254,1.402-1.021,1.636c-0.765,0.255-1.976,0.277-3.907,0.277
			c-0.107-0.447-0.425-1.083-0.659-1.53c1.614,0.063,3.06,0.063,3.464,0.021c0.445-0.021,0.551-0.127,0.551-0.425v-4.035h-8.454
			v-1.466h8.454V37.01c1.232-0.447,2.592-1.168,3.675-1.891h-8.581v-1.401h10.388l0.298-0.085l1.04,0.786
			c-1.36,1.253-3.335,2.421-5.247,3.271v0.849h8.646V40.005z M264.377,34.312h-1.508v-4.184h3.504
			c-0.381-0.808-1.146-1.891-1.825-2.698l1.317-0.616c0.784,0.892,1.656,2.081,2.017,2.888l-0.806,0.426h4.652
			c-0.298-0.893-0.957-2.21-1.594-3.165l1.358-0.51c0.724,0.998,1.466,2.336,1.72,3.229l-1.082,0.446h3.463
			c0.786-0.977,1.655-2.358,2.146-3.377l1.593,0.551c-0.639,0.957-1.381,1.977-2.062,2.826h3.464v4.184h-1.552v-2.76h-14.806V34.312
			z"/>
		<path fill="#FFFFFF" d="M296.765,40.834h-13.127v-1.53h13.127V40.834z M301.183,34.843c0,0-0.02,0.552-0.063,0.765
			c-0.595,6.054-1.191,8.476-2.146,9.388c-0.53,0.553-1.084,0.702-1.977,0.745c-0.765,0.042-2.293,0.021-3.78-0.085
			c-0.042-0.467-0.277-1.126-0.595-1.55c1.657,0.148,3.292,0.148,3.908,0.148c0.531,0,0.851-0.022,1.084-0.255
			c0.806-0.616,1.338-2.804,1.827-7.669h-12.237l-1.314-0.021c0.657-2.336,1.508-6.33,2.018-9.24l1.59,0.17
			c-0.146,0.722-0.273,1.507-0.443,2.293h11.811v1.508h-12.109c-0.297,1.338-0.573,2.655-0.848,3.802H301.183z"/>
		<path fill="#FFFFFF" d="M323.586,40.005h-8.645v4.057c0,0.957-0.255,1.402-1.02,1.636c-0.765,0.255-1.976,0.277-3.907,0.277
			c-0.107-0.447-0.426-1.083-0.659-1.53c1.613,0.063,3.058,0.063,3.461,0.021c0.448-0.021,0.554-0.127,0.554-0.425v-4.035h-8.455
			v-1.466h8.455V37.01c1.231-0.447,2.591-1.168,3.674-1.891h-8.581v-1.401h10.388l0.298-0.085l1.039,0.786
			c-1.358,1.253-3.335,2.421-5.246,3.271v0.849h8.645V40.005z M306.849,34.312h-1.51v-4.184h3.506
			c-0.382-0.808-1.146-1.891-1.825-2.698l1.315-0.616c0.785,0.892,1.656,2.081,2.019,2.888l-0.809,0.426h4.652
			c-0.297-0.893-0.954-2.21-1.591-3.165l1.357-0.51c0.723,0.998,1.467,2.336,1.72,3.229l-1.082,0.446h3.463
			c0.786-0.977,1.656-2.358,2.146-3.377l1.592,0.551c-0.636,0.957-1.379,1.977-2.059,2.826h3.462v4.184h-1.551v-2.76h-14.806V34.312
			z"/>
		<path fill="#FFFFFF" d="M340.021,38.795c-4.354,1.529-9.134,3.165-12.383,4.291l-0.573-1.593
			c3.036-0.914,8.072-2.592,12.659-4.185L340.021,38.795z M343.611,29.044c-0.149,11.11-0.317,14.679-1.105,15.741
			c-0.466,0.701-0.977,0.934-1.763,0.999c-0.806,0.084-2.188,0.043-3.398-0.021c0-0.446-0.211-1.084-0.508-1.508
			c1.484,0.105,2.782,0.105,3.354,0.105c0.383,0,0.638-0.064,0.851-0.339c0.679-0.744,0.85-4.589,0.978-14.338h-14.615v-1.529
			h16.207V29.044z M330.846,31.423c1.848,1.253,4.375,3.081,5.628,4.249l-1.125,1.21c-1.19-1.19-3.675-3.102-5.565-4.44
			L330.846,31.423z"/>
		<path fill="#FFFFFF" d="M365.377,27.579v18.438h-1.635v-1.061h-14.21v1.061h-1.573V27.579H365.377z M363.742,43.489V29.044h-14.21
			v14.445H363.742z M362.511,40.197v1.338h-11.575v-1.338h4.884v-3.568h-3.993v-1.36h3.993v-3.017h-4.588v-1.423h10.855v1.423h-4.78
			v3.017h4.248v1.36h-4.248v3.568H362.511z M359.643,37.01c0.785,0.68,1.721,1.657,2.146,2.315l-1.083,0.638
			c-0.403-0.66-1.317-1.679-2.061-2.401L359.643,37.01z"/>
		<path fill="#FFFFFF" d="M385.317,35.204c-0.955,0.787-2.122,1.636-3.271,2.401c0.979,2.804,2.996,5.204,5.65,6.224
			c-0.339,0.297-0.807,0.893-1.02,1.296c-2.696-1.211-4.716-3.675-5.861-6.734c-0.32,0.212-0.681,0.426-1,0.595
			c0.724,2.74,0.192,5.353-0.955,6.245c-0.68,0.573-1.23,0.744-2.167,0.744c-0.486,0-1.146-0.022-1.826-0.043
			c0-0.446-0.17-1.062-0.403-1.487c0.765,0.063,1.465,0.106,1.912,0.106c0.553,0,0.955-0.064,1.358-0.446
			c0.638-0.468,1.02-1.934,0.828-3.654c-2.423,1.848-6.054,3.611-9.09,4.545c-0.169-0.403-0.533-0.976-0.83-1.337
			c3.398-0.786,7.521-2.762,9.623-4.673c-0.148-0.488-0.317-0.999-0.574-1.487c-2.081,1.423-5.354,2.91-7.88,3.696
			c-0.17-0.34-0.508-0.913-0.808-1.231c2.654-0.638,6.203-2.146,8.051-3.527c-0.275-0.445-0.615-0.849-1.02-1.253
			c-1.891,1.062-4.078,1.891-6.118,2.507c-0.148-0.318-0.594-0.957-0.869-1.254c2.676-0.637,5.565-1.699,7.583-3.08h-4.844v-1.381
			h12.215v1.381h-5.27c-0.467,0.403-0.955,0.765-1.508,1.125c0.978,0.978,1.721,2.103,2.166,3.25
			c1.616-1.041,3.442-2.442,4.633-3.547L385.317,35.204z M370.661,32.847h-1.528v-4.354h7.965c-0.234-0.531-0.51-1.084-0.787-1.55
			l1.615-0.468c0.382,0.595,0.807,1.402,1.041,2.018h7.839v4.354h-1.594v-2.889h-14.551V32.847z"/>
		<path fill="#FFFFFF" d="M408.613,44.041v1.296h-18.904v-1.296h8.582v-1.826h-6.989v-1.275h6.989v-1.465h-6.353v-6.542h6.353
			v-1.274h-8.476v-1.296h8.476v-1.529c-2.209,0.149-4.462,0.234-6.543,0.276c-0.021-0.382-0.191-0.913-0.339-1.253
			c4.906-0.127,10.854-0.51,14.188-1.125l0.85,1.232c-1.806,0.339-4.121,0.573-6.606,0.764v1.635h8.645v1.296h-8.645v1.274h6.65
			v6.542h-6.65v1.465h7.435v1.275h-7.435v1.826H408.613z M393.489,35.672h4.802v-1.594h-4.802V35.672z M398.291,38.349v-1.615
			h-4.802v1.615H398.291z M399.841,34.079v1.594h5.056v-1.594H399.841z M404.896,36.733h-5.056v1.615h5.056V36.733z"/>
		<path fill="#FFFFFF" d="M410.712,45.294c1.123-0.956,2.207-2.656,2.887-4.227l1.489,0.382c-0.701,1.657-1.785,3.441-2.934,4.545
			L410.712,45.294z M427.449,39.793h-14.125v-6.755h6.096v-6.437h1.572v2.272h8.029v1.487h-8.029v2.677h6.457V39.793z
			 M425.856,34.525h-11.024v3.781h11.024V34.525z M418.506,41.513c0.277,1.338,0.511,3.08,0.532,4.1l-1.572,0.213
			c0-1.063-0.19-2.826-0.469-4.186L418.506,41.513z M422.775,41.343c0.66,1.275,1.34,2.995,1.594,4.057l-1.527,0.361
			c-0.215-1.041-0.852-2.804-1.489-4.099L422.775,41.343z M427.046,40.939c1.082,1.338,2.294,3.101,2.825,4.292l-1.487,0.595
			c-0.489-1.169-1.656-2.996-2.718-4.356L427.046,40.939z"/>
		<path fill="#FFFFFF" d="M450.766,38.922v1.38h-8.771c-1.213,2.698-3.591,4.546-8.307,5.63c-0.171-0.425-0.554-1.019-0.892-1.359
			c4.036-0.85,6.202-2.231,7.37-4.271h-7.583v-1.38h8.221c0.658-1.954,0.784-4.354,0.87-7.35h1.636
			c-0.084,2.889-0.255,5.311-0.828,7.35H450.766z M434.538,33.313h-1.551v-4.291h8.199c-0.276-0.658-0.681-1.444-1.062-2.06
			l1.55-0.489c0.511,0.786,1.083,1.806,1.381,2.548h7.222v4.291h-1.614V30.51h-14.125V33.313z M434.963,34.8
			c1.168,0.638,2.634,1.615,3.313,2.337l-0.955,1.19c-0.681-0.765-2.103-1.785-3.271-2.465L434.963,34.8z M439.231,35.034
			c-0.615-0.723-1.953-1.763-3.101-2.442l0.957-0.999c1.126,0.616,2.484,1.572,3.144,2.315L439.231,35.034z M443.163,40.897
			c2.825,1.02,5.798,2.485,7.519,3.76l-0.955,1.21c-1.699-1.295-4.525-2.761-7.329-3.823L443.163,40.897z"/>
		<path fill="#FFFFFF" d="M458.726,41.024c-1.912,0.531-3.844,1.083-5.437,1.509l-0.299-1.317c1.445-0.319,3.504-0.871,5.587-1.402
			L458.726,41.024z M461.02,36.479c0,0,0,0.468-0.021,0.659c-0.339,5.332-0.658,7.329-1.294,8.009
			c-0.384,0.424-0.767,0.572-1.403,0.615c-0.509,0.042-1.509,0.021-2.505-0.021c-0.044-0.425-0.191-0.956-0.448-1.338
			c1.041,0.105,2.02,0.126,2.422,0.126c0.341,0,0.553-0.021,0.744-0.254c0.446-0.446,0.765-2.167,1.04-6.5h-5.649
			c0.255-1.848,0.531-5.014,0.659-7.265l1.358,0.063c-0.126,1.849-0.341,4.143-0.532,5.906h2.613
			c0.255-2.018,0.532-4.991,0.702-7.54h-5.035v-1.381h6.479c-0.213,2.845-0.511,6.627-0.786,8.921H461.02z M467.731,26.92
			c-0.147,0.34-0.317,0.638-0.467,0.956c1.338,1.997,3.634,4.228,5.565,5.501c-0.276,0.361-0.638,1.02-0.787,1.466
			c-1.889-1.403-4.056-3.589-5.542-5.65c-1.424,2.316-3.337,4.291-5.333,5.693c-0.192-0.296-0.679-0.956-0.935-1.253
			c2.508-1.614,4.844-4.206,6.118-7.18L467.731,26.92z M472.087,36.648c-0.891,2.231-2.062,5.014-3.102,6.947h3.251v1.38h-10.749
			v-1.38h6.14c1.041-1.955,2.314-5.098,3.015-7.329L472.087,36.648z M463.399,36.394c0.616,1.593,1.189,3.674,1.401,5.013
			l-1.296,0.361c-0.148-1.381-0.743-3.462-1.337-5.077L463.399,36.394z M469.837,34.525h-6.289v-1.36h6.289V34.525z M466.713,41.216
			c-0.085-1.359-0.466-3.441-0.849-5.056l1.252-0.169c0.403,1.614,0.786,3.653,0.914,5.034L466.713,41.216z"/>
		<path fill="#FFFFFF" d="M493.473,43.977V45.4h-18.715v-1.424h8.517v-2.803h-6.586v-1.402h6.586v-2.23h1.594v2.23h6.734v1.402
			h-6.734v2.803H493.473z M476.54,32.209h-1.528v-3.738h8.54c-0.233-0.531-0.553-1.147-0.828-1.636l1.508-0.445
			c0.382,0.638,0.829,1.465,1.084,2.082h7.857v3.738h-1.592v-2.272H476.54V32.209z M490.477,38.178
			c-0.299-0.382-0.702-0.871-1.211-1.36c-10.068,0.787-11.067,0.851-11.726,1.126c-0.087-0.318-0.297-1.041-0.468-1.445
			c0.404-0.063,0.893-0.339,1.444-0.764c0.469-0.319,1.741-1.339,2.932-2.549h-4.291v-1.381h13.997v1.381h-7.667
			c-1.126,1.125-2.357,2.188-3.588,3.08l8.196-0.573c-0.571-0.531-1.167-1.041-1.72-1.486l1.169-0.744
			c1.444,1.127,3.27,2.741,4.164,3.845L490.477,38.178z"/>
		<path fill="#FFFFFF" d="M173.116,93.631c-0.843-1.288-2.229-3.121-3.617-4.807v19.326H163.7V89.915
			c-1.883,1.684-3.717,3.22-5.648,4.36c-0.396-1.636-1.537-4.906-2.231-5.997c4.957-2.725,9.764-7.583,12.736-12.837h-11.299V70.14
			h8.673c-0.893-1.834-2.478-4.262-4.014-6.096l4.658-2.429c1.734,1.884,3.617,4.461,4.51,6.244l-3.917,2.28h4.609l0.992-0.246
			l3.123,2.276c-1.389,3.62-3.42,7.189-5.7,10.359c2.032,1.783,5.601,5.255,6.592,6.194L173.116,93.631z M202.802,100.768v5.848
			h-28.595v-5.848h11.943V82.382h-9.763v-5.7h9.763V62.16h6.097v14.521h9.366v5.7h-9.366v18.386H202.802z"/>
		<path fill="#FFFFFF" d="M241.696,84.562c-1.982,4.609-4.609,8.476-7.831,11.647c4.759,3.122,10.707,5.251,17.991,6.343
			c-1.288,1.287-2.826,3.717-3.568,5.302c-7.832-1.486-14.025-4.015-19.03-7.78c-5.254,3.718-11.647,6.245-18.933,8.027
			c-0.691-1.337-2.428-3.964-3.567-5.251c7.187-1.39,13.282-3.519,18.138-6.74c-2.923-3.171-5.351-6.987-7.236-11.399l5.304-1.636
			c1.486,3.62,3.618,6.841,6.345,9.516c2.825-2.675,5.005-5.896,6.442-9.764L241.696,84.562z M224.946,76.483
			c-3.37,4.361-8.723,8.87-13.133,11.548c-1.091-1.189-3.32-3.321-4.658-4.311c4.41-2.232,9.218-5.85,12.092-9.418L224.946,76.483z
			 M250.964,73.856h-43.463v-5.75h19.328c-0.694-1.634-1.635-3.419-2.528-4.905l5.65-1.981c1.337,2.132,2.974,4.956,3.617,6.839
			l-0.148,0.048h17.544V73.856z M238.624,74.005c4.262,2.926,10.011,7.286,12.737,10.458l-5.057,3.815
			c-2.429-3.073-7.928-7.73-12.34-10.952L238.624,74.005z"/>
		<path fill="#FFFFFF" d="M267.013,69.546c-0.645,3.319-1.536,6.691-2.628,9.861h9.269v22.796h-9.466v3.62h-4.905V90.409
			c-0.646,0.94-1.34,1.883-2.033,2.726c-0.197-1.586-1.188-5.351-1.983-7.037c3.023-4.063,5.056-10.061,6.294-16.552h-5.25v-5.354
			h17.986v5.354H267.013z M268.647,84.61h-4.46v12.392h4.46V84.61z M301.951,87.584h-5.205v20.615h-5.599V87.584h-5.648
			c-0.299,7.284-1.737,15.563-6.841,20.963c-0.991-1.04-3.121-2.675-4.461-3.419c4.262-4.607,5.501-11.497,5.799-17.544h-4.609
			v-5.55h4.709v-12.24h-3.42v-5.452h24.284v5.452h-4.214v12.24h5.205V87.584z M291.147,82.034v-12.24h-5.551v12.24H291.147z"/>
		<path fill="#FFFFFF" d="M344.859,101.758c1.039,0,1.238-0.94,1.388-7.087c1.288,1.04,3.816,2.032,5.451,2.479
			c-0.545,8.027-2.031,10.208-6.244,10.208h-4.41c-4.709,0-6.195-1.683-6.195-7.433v-8.97h-7.235
			c-0.645,6.49-4.213,13.33-17.841,17.097c-0.941-1.536-2.726-3.618-4.163-4.905c11.547-3.123,14.967-7.781,15.81-12.191h-11.695
			v-5.453h11.943v-4.261h6.095v4.261h13.183v14.374c0,1.634,0.149,1.882,1.188,1.882H344.859z M312.794,76.534h-5.945V66.77h18.336
			c-0.495-1.339-0.992-2.676-1.537-3.865l6.295-1.537c0.893,1.687,1.882,3.767,2.478,5.402h17.495v9.268h-6.245v-4.163h-30.876
			V76.534z M307.938,79.656c4.411-1.389,10.11-3.966,14.174-6.938l4.658,2.724c-4.312,3.421-10.209,6.69-15.066,8.426
			L307.938,79.656z M334.452,72.618c4.607,2.031,11.002,5.353,14.322,7.78l-4.313,3.519c-2.923-2.378-9.167-5.897-13.976-8.177
			L334.452,72.618z"/>
		<path fill="#FFFFFF" d="M366.458,95.365l3.616-3.172c0.498,1.537,1.538,3.768,2.232,4.809
			c-8.624,7.581-10.111,8.969-10.953,10.158c-0.693-1.09-2.526-2.975-3.469-3.717c1.14-1.09,2.924-3.519,2.924-6.441v-14.67h-5.848
			v-5.303h11.497V95.365z M364.229,74.104c-1.438-2.23-4.709-5.749-7.188-8.227l4.015-3.468c2.477,2.328,5.848,5.599,7.434,7.78
			L364.229,74.104z M391.237,92.193c2.874,3.718,6.889,7.385,10.604,9.366c-1.238,1.092-3.073,3.071-4.013,4.561
			c-3.222-2.281-6.592-6.047-9.269-10.011v12.041h-5.799V96.209c-2.824,4.261-6.541,8.026-10.357,10.307
			c-0.891-1.339-2.577-3.369-3.815-4.462c4.311-2.079,8.625-5.796,11.496-9.86h-10.011v-5.303h12.688v-2.874h-10.308V63.848h25.969
			v20.169h-9.862v2.874h12.143v5.303H391.237z M377.758,71.676h5.252v-3.17h-5.252V71.676z M377.758,79.407h5.252v-3.222h-5.252
			V79.407z M392.872,68.506h-4.559v3.17h4.559V68.506z M392.872,76.186h-4.559v3.222h4.559V76.186z"/>
		<path fill="#FFFFFF" d="M419.179,101.41c2.925,0.895,6.593,1.092,10.953,1.092c3.271,0,16.7,0,20.765-0.197
			c-0.793,1.139-1.635,3.37-1.933,4.855h-18.882c-9.168,0-15.264-0.94-19.229-6.195c-0.646,2.826-1.586,5.205-2.972,7.186
			c-0.845-0.793-2.925-2.18-4.066-2.774c2.874-3.718,3.519-9.614,3.618-16.354l4.809,0.297c-0.1,2.031-0.199,3.966-0.396,5.749
			c0.644,1.438,1.437,2.577,2.377,3.519V87.238h-9.266v-4.263h22.399v4.263h-8.178v4.063h7.187v4.262h-7.187V101.41z
			 M425.226,80.151h-17.991V63.796h17.991V80.151z M419.773,67.711h-7.284v2.329h7.284V67.711z M419.773,73.757h-7.284v2.429h7.284
			V73.757z M441.134,78.268c-0.299,13.38-1.586,20.368-13.231,23.986c-0.496-1.189-1.687-2.974-2.626-3.866
			c10.157-2.924,10.804-8.375,11.001-20.12H441.134z M434.345,72.073c0.444-1.09,0.892-2.33,1.239-3.567h-8.377v-4.658h23.192v4.658
			h-9.067c-0.547,1.288-1.14,2.478-1.684,3.567h8.869V92.49h-5.006V76.285h-9.96v16.504h-4.758V72.073H434.345z M447.131,102.404
			c-1.736-1.884-5.552-4.908-8.326-6.991l3.221-3.17c2.776,1.883,6.591,4.759,8.573,6.542L447.131,102.404z"/>
		<path fill="#FFFFFF" d="M472.595,86.842c-0.199,1.437-0.247,3.618-0.199,4.757c-12.885,2.478-14.917,3.072-16.255,3.814
			c-0.247-1.09-1.09-3.519-1.685-4.903c1.238-0.298,2.378-1.438,4.063-3.173c0.744-0.843,2.33-2.775,4.165-5.205
			c-4.857,0.546-6.097,0.894-6.889,1.291c-0.298-1.141-1.19-3.767-1.784-5.256c0.989-0.247,1.833-1.337,2.974-2.973
			c1.139-1.535,4.558-7.729,6.442-13.479l5.254,2.429c-1.984,4.608-4.71,9.465-7.583,13.479l4.856-0.396
			c1.041-1.685,2.08-3.419,2.974-5.106l4.46,2.875c-2.777,4.609-6.096,9.269-9.517,13.282L472.595,86.842z M472.247,101.015
			c-5.799,1.687-11.844,3.271-16.65,4.511l-1.041-5.601c4.312-0.841,10.804-2.28,17.048-3.766L472.247,101.015z M500,101.955v5.304
			h-28.595v-5.304h4.359V64.291h20.271v37.664H500z M481.365,69.645v7.136h8.822v-7.136H481.365z M481.365,89.27h8.822v-7.235
			h-8.822V89.27z M481.365,101.955h8.822v-7.482h-8.822V101.955z"/>
	</g>
</g>
<g id="图层_5" display="none">
	<path display="inline" fill="none" stroke="#FFFFFF" stroke-miterlimit="10" d="M68.259-11.934"/>
	<polygon display="inline" fill="#FFFFFF" points="24.274,50.98 48.613,84.051 55.387,77.275 51.701,3.549 38.186,3.549 	"/>
	<polygon display="inline" fill="#FFFFFF" points="60.961,35.633 88.308,3.549 59.356,3.549 	"/>
	<polygon display="inline" fill="#FFFFFF" points="134.52,82.601 60.871,82.601 30.022,113.449 134.52,89.155 	"/>
	<polygon display="inline" fill="#FFFFFF" points="2,33.625 2,130.662 43.149,89.516 15.886,52.489 15.864,52.481 15.866,52.469 	
		"/>
	<polygon display="inline" fill="#FFFFFF" points="98.346,3.549 61.513,46.755 62.679,69.986 129.116,3.549 	"/>
	<polygon display="inline" fill="#FFFFFF" points="68.512,74.954 134.52,74.954 134.52,62.576 85.925,57.546 	"/>
	<polygon display="inline" fill="#FFFFFF" points="18.573,43.245 30.22,3.549 2,3.549 2,20.732 	"/>
	<polygon display="inline" fill="#FFFFFF" points="103.746,104.152 22.184,123.114 21.839,121.631 7.403,136.066 134.52,136.066 
		134.52,118.965 	"/>
	<polygon display="inline" fill="#FFFFFF" points="134.52,35.599 134.52,8.949 92.888,50.581 105.496,51.884 105.331,51.586 	"/>
	<polygon display="inline" fill="#FFFFFF" points="118.278,53.21 134.52,54.89 134.52,44.311 	"/>
	<polygon display="inline" fill="#FFFFFF" points="134.52,96.996 115.633,101.386 134.52,110.479 	"/>
</g>
<g id="图层_1_x5F_复制" display="none">
	<path display="inline" fill="none" stroke="#FFFFFF" stroke-miterlimit="10" d="M8.56-1.98"/>
	<g display="inline">
		<g>
			<polygon points="2.877,6.147 6.022,10.419 6.897,9.544 6.421,0.02 4.675,0.02 			"/>
			<polygon points="7.617,4.165 11.15,0.02 7.41,0.02 			"/>
			<polygon points="17.12,10.232 7.605,10.232 3.62,14.218 17.12,11.079 			"/>
			<polygon points="0,3.905 0,16.441 5.316,11.125 1.794,6.342 1.791,6.341 1.792,6.339 			"/>
			<polygon points="12.447,0.02 7.688,5.602 7.839,8.603 16.422,0.02 			"/>
			<polygon points="8.593,9.245 17.12,9.245 17.12,7.646 10.842,6.996 			"/>
			<polygon points="2.141,5.148 3.646,0.02 0,0.02 0,2.24 			"/>
			<polygon points="13.145,13.017 2.607,15.466 2.563,15.274 0.698,17.14 17.12,17.14 17.12,14.93 			"/>
			<polygon points="17.12,4.16 17.12,0.717 11.742,6.096 13.371,6.264 13.349,6.226 			"/>
			<polygon points="15.022,6.436 17.12,6.652 17.12,5.286 			"/>
			<polygon points="17.12,12.092 14.68,12.659 17.12,13.834 			"/>
		</g>
		<g>
			<rect x="19.33" y="1.124" fill="none" width="36.67" height="16.016"/>
			<path d="M21.397,1.339c-0.004,0.118-0.008,0.304-0.024,0.533c0.056,0.368,0.292,2.245,1.723,2.885
				c-0.027,0.016-0.067,0.059-0.083,0.091c-1.173-0.538-1.553-1.885-1.688-2.597c-0.13,0.87-0.518,2.04-1.688,2.604
				c-0.016-0.028-0.055-0.063-0.083-0.083c1.688-0.798,1.715-2.893,1.723-3.434H21.397z"/>
			<path d="M24.766,1.545c-0.126,0.316-0.289,0.695-0.442,1.02c0.336,0.344,0.419,0.64,0.419,0.901c0,0.17-0.04,0.336-0.135,0.403
				C24.56,3.9,24.497,3.92,24.422,3.928c-0.087,0.008-0.189,0.008-0.276,0c-0.004-0.032-0.02-0.079-0.044-0.115
				c0.111,0.008,0.214,0.012,0.289,0.004c0.056-0.004,0.103-0.016,0.139-0.04c0.075-0.051,0.099-0.186,0.099-0.312
				c0-0.245-0.095-0.534-0.438-0.885c0.158-0.332,0.312-0.684,0.418-0.968H23.81v3.276h-0.115V1.497h0.972l0.02-0.008L24.766,1.545z
				 M25.418,3.28c-0.126,0.454-0.332,0.893-0.558,1.186c-0.016-0.016-0.071-0.051-0.103-0.067c0.237-0.289,0.427-0.708,0.542-1.138
				L25.418,3.28z M27.006,2.624v0.115h-1.047v1.937c0,0.106-0.032,0.146-0.115,0.17c-0.087,0.023-0.257,0.023-0.545,0.023
				c-0.008-0.035-0.028-0.079-0.047-0.118c0.253,0.008,0.455,0.004,0.51,0c0.063-0.004,0.079-0.02,0.079-0.075V2.738h-0.917V2.624
				H27.006z M26.793,1.793h-1.707V1.679h1.707V1.793z M26.473,3.256c0.202,0.372,0.415,0.866,0.498,1.162l-0.123,0.036
				c-0.075-0.292-0.285-0.794-0.486-1.174L26.473,3.256z"/>
			<path d="M27.668,2.149h0.115v2.739h-0.115V2.149z M27.814,1.398C28,1.553,28.213,1.778,28.313,1.924l-0.095,0.067
				c-0.095-0.15-0.308-0.375-0.494-0.538L27.814,1.398z M28.514,2.469h1.364v1.711h-1.364V2.469z M28.628,3.264h1.134v-0.68h-1.134
				V3.264z M28.628,4.066h1.134V3.378h-1.134V4.066z M30.735,4.671c0,0.11-0.028,0.154-0.103,0.178
				c-0.079,0.023-0.229,0.023-0.466,0.023c-0.012-0.031-0.032-0.087-0.052-0.126c0.206,0.008,0.384,0.004,0.435,0.004
				c0.055-0.004,0.071-0.02,0.071-0.075V1.683h-1.952V1.568h2.067V4.671z"/>
			<path d="M32.697,4.046c0.012,0.028,0.032,0.071,0.043,0.091c-0.628,0.435-0.708,0.494-0.755,0.553
				c-0.012-0.032-0.043-0.087-0.063-0.119c0.035-0.02,0.099-0.067,0.099-0.213v-1.66h-0.628V2.584h0.743v1.83L32.697,4.046z
				 M32.223,2.146c-0.126-0.158-0.368-0.415-0.577-0.597l0.083-0.071c0.206,0.178,0.458,0.419,0.573,0.577L32.223,2.146z
				 M34.922,3.023v0.114h-2.458V3.023h0.672c0.056-0.194,0.123-0.455,0.186-0.724h-0.573V2.185h0.597
				c0.048-0.206,0.095-0.411,0.13-0.589h-0.873V1.481h2.181v0.115h-1.186c-0.035,0.182-0.079,0.387-0.126,0.589h0.941l0.023-0.012
				l0.079,0.016c-0.028,0.241-0.063,0.573-0.106,0.834H34.922z M32.831,3.56h1.81v1.308h-0.115V4.702h-1.581V4.88h-0.115V3.56z
				 M32.946,3.675v0.913h1.581V3.675H32.946z M33.44,2.299c-0.063,0.269-0.126,0.53-0.182,0.724h1.04
				c0.036-0.226,0.067-0.522,0.095-0.724H33.44z"/>
			<path d="M38.864,1.972v0.114h-3.49V1.972H38.864z M35.947,3.671h2.32v1.197h-0.114V4.679h-2.091V4.88h-0.115V3.671z
				 M38.223,2.624h-2.249V2.509h2.249V2.624z M35.975,3.078h2.249v0.115h-2.249V3.078z M36.062,3.786v0.778h2.091V3.786H36.062z
				 M37.279,1.92c-0.083-0.15-0.277-0.375-0.447-0.537l0.099-0.056c0.17,0.158,0.359,0.379,0.446,0.53L37.279,1.92z"/>
			<path d="M41.845,2.932c-0.158,0.439-0.392,0.787-0.684,1.067c0.439,0.372,1.008,0.62,1.692,0.735
				c-0.028,0.028-0.063,0.075-0.083,0.111c-0.684-0.13-1.257-0.387-1.7-0.767c-0.442,0.387-1.023,0.64-1.719,0.818
				c-0.012-0.032-0.051-0.083-0.079-0.115c0.699-0.154,1.272-0.399,1.711-0.778c-0.3-0.285-0.538-0.632-0.699-1.043l0.106-0.043
				c0.154,0.391,0.383,0.731,0.68,1.004c0.289-0.269,0.506-0.609,0.656-1.023L41.845,2.932z M42.722,2.027h-3.351V1.912h3.351V2.027
				z M40.529,2.284c-0.265,0.336-0.672,0.684-1.012,0.917c-0.02-0.024-0.063-0.075-0.091-0.099c0.344-0.213,0.743-0.545,0.996-0.861
				L40.529,2.284z M41.09,1.829c-0.051-0.134-0.178-0.344-0.292-0.498L40.9,1.292c0.119,0.15,0.245,0.359,0.3,0.49L41.09,1.829z
				 M41.695,2.256c0.379,0.253,0.818,0.621,1.032,0.874l-0.095,0.079c-0.206-0.257-0.64-0.632-1.023-0.889L41.695,2.256z"/>
			<path d="M43.925,2.979c-0.154-0.139-0.45-0.328-0.703-0.451l0.071-0.079c0.253,0.115,0.549,0.296,0.7,0.427L43.925,2.979z
				 M44.186,3.517c-0.209,0.419-0.51,0.953-0.739,1.304l-0.099-0.079c0.213-0.312,0.533-0.861,0.755-1.3L44.186,3.517z
				 M44.048,2.003c-0.134-0.158-0.403-0.391-0.632-0.553l0.083-0.067c0.229,0.154,0.498,0.383,0.628,0.537L44.048,2.003z
				 M44.625,3.149h0.115v0.446c0,0.435-0.06,0.913-0.593,1.285c-0.016-0.028-0.056-0.063-0.087-0.083
				c0.514-0.348,0.565-0.806,0.565-1.202V3.149z M46.597,3.106c-0.052-0.087-0.135-0.198-0.229-0.313
				c-1.763,0.115-1.909,0.126-2,0.162c-0.008-0.036-0.032-0.099-0.043-0.13c0.059-0.016,0.15-0.036,0.213-0.099
				c0.095-0.087,0.427-0.506,0.597-0.735h-0.877V1.876h1.225c-0.051-0.154-0.13-0.359-0.213-0.518l0.103-0.028
				c0.087,0.17,0.186,0.396,0.233,0.545h1.146v0.115h-1.466c-0.17,0.229-0.451,0.589-0.628,0.791l1.628-0.103
				c-0.13-0.158-0.28-0.324-0.415-0.462l0.095-0.055C46.233,2.434,46.55,2.81,46.7,3.042L46.597,3.106z M45.356,3.161h0.115v1.553
				h-0.115V3.161z M46.506,4.71c0.048,0,0.091-0.004,0.115-0.02c0.024-0.016,0.043-0.051,0.056-0.11
				c0.008-0.067,0.012-0.218,0.016-0.419c0.028,0.023,0.059,0.04,0.095,0.051c-0.004,0.17-0.012,0.379-0.028,0.438
				c-0.012,0.067-0.035,0.107-0.079,0.13c-0.036,0.02-0.103,0.032-0.158,0.032h-0.186c-0.059,0-0.13-0.012-0.17-0.04
				c-0.047-0.032-0.059-0.075-0.059-0.289V3.149h0.115v1.383c0,0.095,0.004,0.143,0.031,0.162c0.02,0.012,0.056,0.016,0.087,0.016
				H46.506z"/>
			<path d="M48.144,1.343c-0.067,0.197-0.146,0.435-0.217,0.604h0.707v2.506h-1.146v0.34h-0.115V1.948h0.435
				c0.075-0.178,0.17-0.458,0.209-0.644L48.144,1.343z M48.52,2.063h-1.032V3.09h1.032V2.063z M48.52,4.339V3.205h-1.032v1.134
				H48.52z M50.582,2.042c-0.067,1.854-0.13,2.45-0.284,2.628c-0.067,0.079-0.139,0.103-0.253,0.106
				c-0.119,0.004-0.344-0.004-0.557-0.02c-0.008-0.04-0.016-0.087-0.04-0.119c0.261,0.02,0.498,0.024,0.581,0.024
				c0.079,0,0.126-0.008,0.162-0.06c0.134-0.142,0.206-0.763,0.273-2.533h-1.186c-0.111,0.296-0.241,0.557-0.392,0.767
				c-0.02-0.016-0.075-0.047-0.106-0.059c0.28-0.372,0.486-0.921,0.608-1.494l0.119,0.024c-0.051,0.225-0.115,0.442-0.186,0.648
				h1.26V2.042z M49.883,3.79c-0.13-0.241-0.415-0.64-0.664-0.925l0.095-0.055c0.249,0.288,0.538,0.676,0.668,0.913L49.883,3.79z"/>
			<path d="M21.115,10.272c0,0.272-0.035,0.45-0.193,0.554c-0.158,0.108-0.356,0.124-0.633,0.124
				c-0.015-0.168-0.099-0.455-0.178-0.618c0.138,0.01,0.287,0.01,0.341,0.01c0.055,0,0.069-0.02,0.069-0.079V9.347H20.23
				c-0.044,0.593-0.144,1.216-0.336,1.666c-0.104-0.119-0.375-0.341-0.509-0.41c0.252-0.647,0.267-1.602,0.267-2.299V6.475h1.463
				V10.272z M20.521,8.754V8.215H20.27v0.084c0,0.138,0,0.292-0.005,0.455H20.521z M20.27,7.023v0.618h0.252V7.023H20.27z
				 M24.066,7.612h-2.853V6.939h1.038c-0.074-0.148-0.163-0.306-0.237-0.44l0.643-0.217c0.128,0.198,0.282,0.455,0.381,0.657h1.028
				V7.612z M22.242,8.007c0.104,0.104,0.212,0.218,0.321,0.336c0.089-0.232,0.168-0.479,0.228-0.732l0.588,0.134l-0.034,0.124h0.613
				v3.115h-0.653V10.82h-2.012V7.864h0.657v0.371L22.242,8.007z M21.95,9.412c0.119-0.144,0.232-0.307,0.332-0.484
				c-0.109-0.134-0.223-0.267-0.332-0.391V9.412z M23.305,10.158v-0.46L22.994,9.95c-0.074-0.148-0.183-0.321-0.316-0.509
				c-0.144,0.237-0.297,0.45-0.465,0.628c-0.054-0.074-0.158-0.203-0.262-0.312v0.4H23.305z M23.305,8.002
				c-0.089,0.287-0.192,0.569-0.311,0.835c0.114,0.139,0.217,0.272,0.311,0.4V8.002z"/>
			<path d="M25.354,8.789c-0.203-0.143-0.643-0.38-0.934-0.534l0.386-0.534c0.272,0.124,0.727,0.336,0.949,0.47L25.354,8.789z
				 M24.47,10.455c0.262-0.366,0.638-0.964,0.939-1.542l0.529,0.479c-0.262,0.52-0.559,1.053-0.86,1.548L24.47,10.455z
				 M25.547,7.424c-0.193-0.144-0.618-0.381-0.89-0.544l0.405-0.519c0.262,0.133,0.697,0.351,0.91,0.484L25.547,7.424z
				 M27.871,8.418v0.524h0.999v2.027h-0.682v-0.178h-1.335v0.198h-0.647V8.942h0.984V8.418h-1.266V7.73h1.266V7.276
				c-0.302,0.044-0.608,0.079-0.9,0.104c-0.024-0.173-0.119-0.455-0.193-0.613c0.831-0.079,1.716-0.247,2.264-0.479l0.549,0.563
				c-0.316,0.124-0.667,0.228-1.038,0.302V7.73h1.207v0.688H27.871z M28.188,9.589h-1.335v0.554h1.335V9.589z"/>
			<path d="M33.931,7.335c0,0-0.005,0.228-0.005,0.312c-0.044,1.987-0.089,2.729-0.252,2.966c-0.133,0.193-0.257,0.252-0.44,0.292
				c-0.163,0.035-0.405,0.035-0.653,0.029c-0.015-0.193-0.089-0.469-0.198-0.667c-0.128,0.267-0.296,0.509-0.504,0.722
				c-0.114-0.183-0.346-0.44-0.529-0.559c0.124-0.124,0.232-0.257,0.321-0.406l-0.44,0.139c-0.01-0.055-0.02-0.114-0.04-0.178
				c-1.152,0.327-1.379,0.411-1.532,0.509v-0.02c-0.005,0.01-0.005,0.015-0.005,0.02c-0.035-0.133-0.148-0.459-0.227-0.633
				c0.104-0.04,0.178-0.143,0.257-0.321c0.06-0.138,0.213-0.598,0.316-1.093h-0.578V7.8h2.205v0.647h-0.89
				c-0.094,0.371-0.228,0.757-0.371,1.103l0.653-0.163c-0.06-0.183-0.128-0.366-0.193-0.529L31.399,8.7
				c0.148,0.331,0.306,0.756,0.4,1.083c0.222-0.484,0.306-1.068,0.336-1.76h-0.45V7.335h0.464c0.005-0.301,0.005-0.618,0.005-0.949
				h0.712c0,0.327,0,0.643-0.005,0.949H33.931z M31.542,7.295H29.58V6.668h1.962V7.295z M32.838,8.022
				c-0.044,0.86-0.153,1.606-0.44,2.215c0.198,0.015,0.366,0.015,0.47,0.015c0.079,0,0.124-0.02,0.178-0.089
				c0.099-0.128,0.139-0.707,0.173-2.141H32.838z"/>
			<path d="M38.759,10.198c0,0.351-0.064,0.549-0.277,0.663c-0.213,0.118-0.5,0.138-0.91,0.138
				c-0.025-0.198-0.134-0.529-0.237-0.712c0.232,0.015,0.519,0.015,0.603,0.015c0.084-0.005,0.114-0.035,0.114-0.114V7.197h-2.877
				v3.797h-0.697V6.52h4.281V10.198z M37.829,8.052h-2.452V7.454h2.452V8.052z M36.257,10.064v0.312H35.6V8.349h2.037v1.715H36.257z
				 M36.257,8.932v0.543h0.717V8.932H36.257z"/>
			<path d="M41.99,8.354v1.167c0.385-0.262,0.697-0.593,0.924-1.033l0.707,0.321c-0.796,1.414-2.116,1.923-3.98,2.19
				c-0.064-0.208-0.212-0.495-0.361-0.682c0.915-0.104,1.696-0.267,2.329-0.579h-0.391V8.354h-1.918V7.676h0.643V6.583h0.731v1.093
				h0.638V6.297h0.776v0.321h1.414v0.672h-1.414v0.386h1.71v0.677H41.99z M41.021,8.695c-0.287,0.435-0.747,0.885-1.147,1.157
				c-0.119-0.139-0.381-0.41-0.534-0.534c0.375-0.203,0.771-0.534,0.989-0.865L41.021,8.695z"/>
			<path d="M48.307,10.262c0.015,0,0.029-0.005,0.039-0.024c0.015-0.025,0.02-0.069,0.025-0.173c0.005-0.104,0.01-0.331,0.01-0.608
				c0.134,0.109,0.336,0.223,0.509,0.282c-0.005,0.262-0.029,0.603-0.064,0.756c-0.03,0.153-0.084,0.257-0.173,0.326
				c-0.084,0.074-0.212,0.099-0.331,0.099h-0.287c-0.129,0-0.287-0.049-0.381-0.153c-0.099-0.114-0.144-0.247-0.144-0.677V7.261
				h-0.484v0.935c0,0.851-0.124,2.101-0.855,2.808c-0.109-0.133-0.391-0.371-0.559-0.47v0.465h-0.717V9.377
				c-0.128,0.302-0.272,0.579-0.43,0.796c-0.069-0.212-0.237-0.489-0.351-0.667c0.306-0.43,0.578-1.068,0.722-1.617h-0.618V7.207
				h0.677V6.302h0.717v0.905h0.5v0.682h-0.5v0.094c0.164,0.168,0.559,0.613,0.667,0.742c0.01-0.188,0.015-0.366,0.015-0.534V6.583
				h1.933v3.461c0,0.114,0,0.168,0.005,0.188c0.01,0.02,0.02,0.029,0.034,0.029H48.307z M45.612,10.504
				c0.48-0.479,0.623-1.137,0.667-1.745l-0.351,0.678c-0.079-0.158-0.198-0.356-0.316-0.549V10.504z"/>
			<path d="M50.875,7.859h1.018v0.647h-1.018v0.272h0.934v1.216c0,0.262-0.034,0.43-0.192,0.534
				c-0.158,0.099-0.346,0.109-0.578,0.104c-0.016-0.173-0.09-0.425-0.164-0.593v0.949h-0.683V9.417h-0.272v1.187h-0.638V8.779h0.91
				V8.507H49.11V7.859h0.391c-0.158-0.074-0.371-0.158-0.5-0.203c0.193-0.311,0.351-0.815,0.43-1.28l0.658,0.134
				c-0.03,0.138-0.06,0.276-0.099,0.415h0.203V6.336h0.683v0.588h0.826v0.647h-0.826V7.859z M50.193,7.859V7.572h-0.415
				c-0.04,0.104-0.084,0.203-0.124,0.287H50.193z M50.875,9.417v0.613c0.094,0.005,0.198,0.005,0.238,0.005
				c0.039,0,0.054-0.01,0.054-0.055V9.417H50.875z M52.705,9.51h-0.668V6.683h0.668V9.51z M53.619,6.401v3.787
				c0,0.361-0.064,0.549-0.262,0.667c-0.203,0.114-0.5,0.139-0.891,0.139c-0.024-0.198-0.123-0.514-0.212-0.717
				c0.237,0.01,0.484,0.01,0.568,0.01c0.079,0,0.108-0.025,0.108-0.104V6.401H53.619z"/>
			<path d="M20.393,14.964c0.012,0.024,0.027,0.054,0.033,0.065c-0.459,0.376-0.515,0.42-0.539,0.462
				c-0.015-0.021-0.044-0.054-0.068-0.071c0.044-0.033,0.142-0.121,0.142-0.251v-1.137h-0.477v-0.086h0.563v1.282L20.393,14.964z
				 M20.073,13.552c-0.083-0.11-0.252-0.287-0.397-0.412l0.063-0.056c0.145,0.121,0.313,0.293,0.396,0.399L20.073,13.552z
				 M21.367,14.662c0.198,0.302,0.53,0.622,0.799,0.772c-0.024,0.018-0.047,0.044-0.065,0.068c-0.278-0.172-0.627-0.521-0.826-0.841
				h-0.009v1.009H21.18v-1.009h-0.012c-0.201,0.358-0.571,0.705-0.894,0.876c-0.015-0.024-0.042-0.053-0.062-0.071
				c0.316-0.145,0.672-0.474,0.87-0.805h-0.761v-0.086h0.858v-0.337h-0.678v-1.101h1.4v1.101h-0.636v0.337h0.87v0.086H21.367z
				 M20.588,13.644h0.592v-0.42h-0.592V13.644z M20.588,14.153h0.592v-0.423h-0.592V14.153z M21.816,13.224h-0.55v0.42h0.55V13.224z
				 M21.816,13.729h-0.55v0.423h0.55V13.729z"/>
			<path d="M25.104,15.509c-0.018,0.027-0.035,0.062-0.041,0.089h-0.77c-0.71,0-1.229-0.08-1.516-0.539
				c-0.05,0.243-0.133,0.441-0.269,0.601c-0.015-0.015-0.054-0.042-0.077-0.056c0.222-0.234,0.293-0.592,0.317-1.042l0.088,0.006
				c-0.009,0.136-0.021,0.264-0.041,0.379c0.077,0.145,0.177,0.251,0.302,0.332v-0.906h-0.646v-0.086h1.335v0.086h-0.604v0.394
				h0.557v0.086h-0.557v0.479c0.284,0.148,0.666,0.178,1.113,0.178H25.104z M23.613,14.014h-0.947v-0.876h0.947V14.014z
				 M23.527,13.224h-0.775v0.308h0.775V13.224z M23.527,13.617h-0.775v0.311h0.775V13.617z M24.48,13.851
				c-0.026,0.87-0.121,1.309-0.764,1.54c-0.012-0.018-0.039-0.048-0.059-0.063c0.63-0.216,0.713-0.642,0.737-1.477H24.48z
				 M24.252,13.597c0.036-0.101,0.077-0.252,0.101-0.358h-0.568v-0.086h1.309v0.086h-0.646c-0.032,0.122-0.071,0.261-0.109,0.358
				h0.58v1.249h-0.092v-1.164h-0.808v1.164H23.93v-1.249H24.252z M25.004,15.346c-0.115-0.136-0.349-0.344-0.553-0.486l0.065-0.044
				c0.198,0.139,0.438,0.341,0.557,0.477L25.004,15.346z"/>
			<path d="M26.418,14.579c0,0.027,0.006,0.06,0.009,0.08c-0.838,0.178-0.924,0.198-0.971,0.225
				c-0.006-0.021-0.021-0.071-0.035-0.098c0.053-0.012,0.136-0.089,0.233-0.198c0.068-0.074,0.243-0.275,0.42-0.518
				c-0.53,0.077-0.601,0.092-0.636,0.112c-0.006-0.023-0.021-0.074-0.033-0.098c0.047-0.009,0.104-0.089,0.175-0.192
				c0.077-0.104,0.332-0.506,0.488-0.879l0.092,0.042c-0.175,0.361-0.382,0.729-0.589,0.998l0.571-0.074
				c0.074-0.107,0.154-0.219,0.219-0.332l0.089,0.042c-0.257,0.391-0.539,0.761-0.82,1.048L26.418,14.579z M26.436,15.192
				c-0.364,0.092-0.737,0.181-1.006,0.249l-0.021-0.092c0.252-0.053,0.637-0.148,1.021-0.237L26.436,15.192z M28.067,15.512v0.086
				h-1.711v-0.086h0.34v-2.359h1.096v2.359H28.067z M26.782,13.238v0.681h0.924v-0.681H26.782z M26.782,14.709h0.924v-0.705h-0.924
				V14.709z M26.782,15.512h0.924v-0.716h-0.924V15.512z"/>
		</g>
	</g>
</g>
</svg>
