<?xml version="1.0" encoding="UTF-8" standalone="no"?><!DOCTYPE svg PUBLIC "-//W3C//DTD SVG 1.1//EN" "http://www.w3.org/Graphics/SVG/1.1/DTD/svg11.dtd"><svg width="100%" height="100%" viewBox="0 0 500 137" version="1.1" xmlns="http://www.w3.org/2000/svg" xmlns:xlink="http://www.w3.org/1999/xlink" xml:space="preserve" xmlns:serif="http://www.serif.com/" style="fill-rule:evenodd;clip-rule:evenodd;stroke-linejoin:round;stroke-miterlimit:1.41421;"><g id="图层-6" serif:id="图层 6"><path d="M95.065,0l-19.76,23.183l34.003,-1.994l21.836,-21.189l-36.079,0Z" style="fill:#fff;fill-rule:nonzero;"/><path d="M135.044,29.609l-3.979,7.935l3.979,-2.179l0,-5.756Z" style="fill:#fff;fill-rule:nonzero;"/><path d="M59.194,42.086l1.322,26.45l46.56,-45.18l-33.598,1.969l-14.284,16.761Z" style="fill:#fff;fill-rule:nonzero;"/><path d="M91.144,49.138l15.772,1.633l21.017,-11.51l7.111,-14.185l0,-21.179l-43.9,45.241Z" style="fill:#fff;fill-rule:nonzero;"/><path d="M35.465,0l-13.899,47.376l25.319,34.385l8.779,-8.519l-3.662,-73.242l-16.538,0Z" style="fill:#fff;fill-rule:nonzero;"/><path d="M82.032,0l1.654,8.651l7.373,-8.651l-9.027,0Z" style="fill:#fff;fill-rule:nonzero;"/><path d="M22.461,0l4.546,10.775l3.161,-10.775l-7.707,0Z" style="fill:#fff;fill-rule:nonzero;"/><path d="M135.044,94.885l-21.837,5.076l21.837,10.513l0,-15.589Z" style="fill:#fff;fill-rule:nonzero;"/><path d="M0,0l0,18.085l17.78,24.147l7.87,-26.831l-6.498,-15.401l-19.152,0Z" style="fill:#fff;fill-rule:nonzero;"/><path d="M112.254,51.324l22.79,2.359l0,-14.843l-22.79,12.484Z" style="fill:#fff;fill-rule:nonzero;"/><path d="M105.306,101.797l-84.268,19.592l-13.251,13.655l127.257,0l0,-18.929l-29.738,-14.318Z" style="fill:#fff;fill-rule:nonzero;"/><path d="M66.9,74.123l68.144,0l0,-15.331l-48.405,-5.011l-19.739,20.342Z" style="fill:#fff;fill-rule:nonzero;"/><path d="M0,127.257l41.732,-40.495l-41.732,-56.679l0,97.174Z" style="fill:#fff;fill-rule:nonzero;"/><path d="M135.044,79.205l-73.073,0l-31.781,32.751l104.854,-24.375l0,-8.376Z" style="fill:#fff;fill-rule:nonzero;"/><path d="M57.091,0l1.881,37.645l23.025,-27.011l-2.034,-10.634l-22.872,0Z" style="fill:#fff;fill-rule:nonzero;"/><path d="M169.713,26.622c-0.021,2.188 -0.021,4.376 -0.17,6.501c0.297,2.039 1.254,8.773 5.884,11.704c-0.445,0.298 -0.913,0.786 -1.168,1.168c-2.974,-2.019 -4.484,-5.608 -5.267,-8.581c-0.68,3.504 -2.104,6.562 -4.93,8.624c-0.277,-0.362 -0.764,-0.85 -1.211,-1.125c5.354,-3.719 5.247,-11.132 5.291,-18.291l1.571,0Zm-8.518,4.525c-0.7,-0.807 -2.146,-2.188 -3.186,-3.144l1.061,-0.976c1.062,0.913 2.528,2.208 3.23,2.973l-1.105,1.147Zm2.506,9.05c0.107,0.403 0.318,0.997 0.489,1.316c-4.036,2.825 -4.61,3.25 -4.927,3.654c-0.15,-0.34 -0.574,-0.892 -0.851,-1.147c0.425,-0.297 1.148,-1.02 1.148,-2.018l0,-7.243l-3.569,0l0,-1.509l5.098,0l0,8.687l2.612,-1.74Z" style="fill:#fff;fill-rule:nonzero;"/><path d="M193.795,29.937l-4.481,0l0,12.3l4.481,0l0,-12.3Zm1.572,-1.487l0,16.738l-1.572,0l0,-1.465l-4.482,0l0,1.677l-1.53,0l0,-16.95l7.584,0Zm-12.235,5.969c0,0.212 0,0.467 -0.021,0.722l3.992,0l0,1.507l-4.078,0c-0.044,0.468 -0.128,0.957 -0.213,1.424c1,0.999 3.57,3.865 4.228,4.61l-1.062,1.338c-0.722,-1.041 -2.379,-3.038 -3.525,-4.333c-0.68,2.25 -1.976,4.545 -4.398,6.266c-0.212,-0.34 -0.765,-0.934 -1.105,-1.168c3.229,-2.295 4.228,-5.354 4.503,-8.137l-4.269,0l0,-1.507l4.376,0l0,-0.744l0,-3.484l-1.615,0c-0.51,1.275 -1.06,2.422 -1.721,3.336c-0.275,-0.276 -0.934,-0.701 -1.295,-0.914c1.253,-1.636 2.127,-4.163 2.633,-6.733l1.532,0.297c-0.171,0.892 -0.406,1.742 -0.659,2.549l6.053,0l0,1.465l-3.356,0l0,3.506Z" style="fill:#fff;fill-rule:nonzero;"/><path d="M215.477,35.736l-3.017,0l0,2.974l3.017,0l0,-2.974Zm-3.017,-1.424l3.017,0l0,-2.931l-3.017,0l0,2.931Zm-1.551,1.424l-2.975,0l0,2.974l2.975,0l0,-2.974Zm-2.974,-1.424l2.975,0l0,-2.931l-2.975,0l0,2.931Zm9.049,-4.354l0,11.024l-1.507,0l0,-0.849l-3.017,0l0,5.842l-1.551,0l0,-5.842l-2.974,0l0,0.997l-1.444,0l0,-11.172l4.418,0l0,-3.356l1.551,0l0,3.356l4.524,0Zm-14.296,0.17c-0.38,-0.744 -1.21,-1.933 -1.911,-2.783l1.21,-0.723c0.744,0.851 1.574,1.977 1.975,2.698l-1.274,0.808Zm3.124,0.658c-0.638,1.614 -1.531,3.165 -2.549,4.589c0.829,0.785 2.379,2.4 2.781,2.867l-0.912,1.275c-0.446,-0.617 -1.403,-1.785 -2.189,-2.656l0,9.114l-1.443,0l0,-8.518c-0.872,0.892 -1.784,1.699 -2.656,2.314c-0.128,-0.446 -0.468,-1.232 -0.701,-1.507c2.21,-1.403 4.503,-3.952 5.8,-6.565l-5.354,0l0,-1.445l6.14,0l0.275,-0.063l0.808,0.595Z" style="fill:#fff;fill-rule:nonzero;"/><path d="M233.568,43.935l5.416,0l0,1.486l-12.447,0l0,-1.486l5.481,0l0,-5.141l-4.186,0l0,-1.465l10.155,0l0,1.465l-4.419,0l0,5.141Zm4.63,-7.373c-1.21,-0.806 -3.504,-1.995 -5.48,-2.866c-1.719,1.211 -3.632,2.188 -5.502,2.888c-0.212,-0.381 -0.636,-0.976 -0.955,-1.295c3.313,-1.126 6.904,-3.356 8.836,-6.097l-7.455,0l0,-1.465l8.475,0l0.276,-0.064l1.125,0.617c-0.828,1.699 -2.101,3.185 -3.569,4.439c1.872,0.806 3.973,1.805 5.143,2.549l-0.894,1.294Zm-11.386,6.289c-2.464,0.658 -5.012,1.317 -6.923,1.826l-0.32,-1.571c1.764,-0.361 4.461,-0.999 7.074,-1.614l0.169,1.359Zm-0.106,-5.311c-0.042,0.425 -0.042,1.062 -0.02,1.403c-5.396,1.083 -6.139,1.273 -6.607,1.529c-0.064,-0.319 -0.318,-1.084 -0.51,-1.487c0.488,-0.106 1,-0.637 1.656,-1.381c0.427,-0.425 1.297,-1.486 2.275,-2.825c-2.698,0.361 -3.228,0.468 -3.548,0.637c-0.085,-0.34 -0.34,-1.105 -0.531,-1.528c0.402,-0.086 0.764,-0.575 1.253,-1.297c0.488,-0.701 2.102,-3.42 2.997,-5.99l1.507,0.7c-0.999,2.231 -2.273,4.525 -3.569,6.331l2.909,-0.319c0.489,-0.722 0.957,-1.508 1.381,-2.273l1.381,0.871c-1.444,2.295 -3.079,4.546 -4.779,6.373l4.205,-0.744Z" style="fill:#fff;fill-rule:nonzero;"/><path d="M253.933,31.997c-0.659,-0.892 -2.124,-2.145 -3.377,-3.016l0.998,-0.914c1.275,0.806 2.762,2.018 3.462,2.91l-1.083,1.02Zm-0.468,5.608c-0.763,-0.935 -2.397,-2.253 -3.737,-3.101l0.976,-0.935c1.36,0.828 3.017,2.081 3.801,2.994l-1.04,1.042Zm4.1,2.825l0,5.545l-1.55,0l0,-5.29l-6.926,1.147l-0.254,-1.508l7.18,-1.147l0,-12.576l1.55,0l0,12.321l2.487,-0.383l0.233,1.444l-2.72,0.447Zm-9.601,-1.126c-0.362,-0.702 -1.252,-2.082 -1.975,-3.164l0,9.835l-1.552,0l0,-9.39c-0.869,2.124 -1.975,4.227 -3.079,5.544c-0.149,-0.424 -0.53,-1.062 -0.786,-1.423c1.339,-1.508 2.826,-4.228 3.654,-6.669l-3.356,0l0,-1.487l3.567,0l0,-3.208c-0.977,0.191 -1.975,0.36 -2.909,0.488c-0.087,-0.34 -0.297,-0.892 -0.467,-1.231c2.38,-0.383 5.161,-0.999 6.755,-1.7l0.955,1.253c-0.786,0.319 -1.762,0.616 -2.782,0.849l0,3.549l3.122,0l0,1.487l-3.122,0l0,0.382c0.659,0.743 2.486,3.079 2.929,3.653l-0.954,1.232Z" style="fill:#fff;fill-rule:nonzero;"/><path d="M264.377,34.312l-1.508,0l0,-4.184l3.504,0c-0.381,-0.807 -1.145,-1.89 -1.825,-2.697l1.317,-0.616c0.784,0.892 1.657,2.081 2.017,2.888l-0.806,0.425l4.653,0c-0.298,-0.892 -0.957,-2.21 -1.594,-3.165l1.358,-0.51c0.724,0.998 1.466,2.337 1.72,3.229l-1.082,0.446l3.463,0c0.786,-0.976 1.655,-2.358 2.145,-3.377l1.593,0.551c-0.639,0.957 -1.381,1.977 -2.061,2.826l3.463,0l0,4.184l-1.551,0l0,-2.76l-14.806,0l0,2.76Zm16.739,5.694l-8.645,0l0,4.056c0,0.957 -0.254,1.403 -1.021,1.636c-0.764,0.255 -1.975,0.277 -3.907,0.277c-0.107,-0.447 -0.425,-1.083 -0.659,-1.53c1.614,0.064 3.059,0.064 3.464,0.021c0.445,-0.021 0.55,-0.127 0.55,-0.425l0,-4.035l-8.454,0l0,-1.466l8.454,0l0,-1.529c1.233,-0.448 2.592,-1.169 3.675,-1.891l-8.581,0l0,-1.402l10.388,0l0.298,-0.085l1.04,0.786c-1.361,1.254 -3.335,2.421 -5.247,3.271l0,0.85l8.645,0l0,1.466Z" style="fill:#fff;fill-rule:nonzero;"/><path d="M301.183,34.843c0,0 -0.02,0.552 -0.062,0.765c-0.595,6.054 -1.192,8.476 -2.146,9.388c-0.53,0.553 -1.084,0.701 -1.977,0.744c-0.764,0.043 -2.293,0.021 -3.78,-0.085c-0.042,-0.467 -0.277,-1.126 -0.595,-1.55c1.658,0.149 3.292,0.149 3.909,0.149c0.531,0 0.85,-0.022 1.084,-0.256c0.805,-0.616 1.338,-2.804 1.827,-7.669l-12.238,0l-1.314,-0.02c0.657,-2.337 1.508,-6.33 2.018,-9.24l1.589,0.17c-0.146,0.722 -0.273,1.507 -0.443,2.293l11.811,0l0,1.509l-12.11,0c-0.297,1.338 -0.573,2.655 -0.847,3.802l13.274,0Zm-4.418,5.991l-13.127,0l0,-1.53l13.127,0l0,1.53Z" style="fill:#fff;fill-rule:nonzero;"/><path d="M306.849,34.312l-1.51,0l0,-4.184l3.506,0c-0.382,-0.807 -1.146,-1.89 -1.825,-2.697l1.315,-0.616c0.785,0.892 1.657,2.081 2.019,2.888l-0.809,0.425l4.653,0c-0.297,-0.892 -0.954,-2.21 -1.591,-3.165l1.357,-0.51c0.723,0.998 1.467,2.337 1.72,3.229l-1.082,0.446l3.463,0c0.786,-0.976 1.656,-2.358 2.145,-3.377l1.592,0.551c-0.636,0.957 -1.379,1.977 -2.058,2.826l3.461,0l0,4.184l-1.55,0l0,-2.76l-14.806,0l0,2.76Zm16.737,5.694l-8.644,0l0,4.056c0,0.957 -0.255,1.403 -1.02,1.636c-0.764,0.255 -1.975,0.277 -3.907,0.277c-0.107,-0.447 -0.426,-1.083 -0.659,-1.53c1.613,0.064 3.057,0.064 3.461,0.021c0.448,-0.021 0.553,-0.127 0.553,-0.425l0,-4.035l-8.455,0l0,-1.466l8.455,0l0,-1.529c1.232,-0.448 2.591,-1.169 3.674,-1.891l-8.581,0l0,-1.402l10.388,0l0.298,-0.085l1.039,0.786c-1.359,1.254 -3.335,2.421 -5.246,3.271l0,0.85l8.644,0l0,1.466Z" style="fill:#fff;fill-rule:nonzero;"/><path d="M330.846,31.423c1.848,1.253 4.375,3.081 5.628,4.249l-1.125,1.21c-1.19,-1.189 -3.675,-3.102 -5.565,-4.44l1.062,-1.019Zm12.766,-2.379c-0.15,11.109 -0.318,14.678 -1.106,15.74c-0.466,0.701 -0.976,0.934 -1.763,0.999c-0.805,0.084 -2.188,0.043 -3.398,-0.022c0,-0.446 -0.211,-1.084 -0.508,-1.507c1.485,0.105 2.782,0.105 3.355,0.105c0.383,0 0.637,-0.064 0.85,-0.339c0.679,-0.744 0.85,-4.589 0.978,-14.339l-14.615,0l0,-1.529l16.207,0l0,0.892Zm-3.59,9.751c-4.355,1.528 -9.134,3.164 -12.383,4.29l-0.573,-1.593c3.036,-0.914 8.072,-2.592 12.659,-4.185l0.297,1.488Z" style="fill:#fff;fill-rule:nonzero;"/><path d="M359.643,37.01c0.785,0.68 1.721,1.657 2.146,2.315l-1.084,0.638c-0.403,-0.66 -1.317,-1.679 -2.06,-2.401l0.998,-0.552Zm2.868,3.187l0,1.338l-11.575,0l0,-1.338l4.884,0l0,-3.569l-3.993,0l0,-1.36l3.993,0l0,-3.016l-4.588,0l0,-1.424l10.855,0l0,1.424l-4.78,0l0,3.016l4.248,0l0,1.36l-4.248,0l0,3.569l5.204,0Zm1.232,-11.153l-14.21,0l0,14.445l14.21,0l0,-14.445Zm1.634,-1.466l0,18.438l-1.634,0l0,-1.061l-14.21,0l0,1.061l-1.574,0l0,-18.438l17.418,0Z" style="fill:#fff;fill-rule:nonzero;"/><path d="M370.661,32.847l-1.528,0l0,-4.354l7.965,0c-0.235,-0.531 -0.51,-1.084 -0.788,-1.551l1.616,-0.468c0.381,0.596 0.806,1.402 1.041,2.019l7.839,0l0,4.354l-1.594,0l0,-2.889l-14.551,0l0,2.889Zm14.656,2.357c-0.955,0.787 -2.122,1.636 -3.271,2.401c0.978,2.804 2.996,5.204 5.65,6.224c-0.339,0.297 -0.806,0.893 -1.019,1.296c-2.697,-1.211 -4.716,-3.675 -5.862,-6.734c-0.32,0.212 -0.68,0.426 -1,0.595c0.724,2.74 0.193,5.353 -0.955,6.245c-0.679,0.574 -1.23,0.744 -2.167,0.744c-0.486,0 -1.145,-0.022 -1.826,-0.043c0,-0.446 -0.17,-1.062 -0.403,-1.487c0.764,0.064 1.465,0.107 1.912,0.107c0.553,0 0.955,-0.064 1.358,-0.446c0.638,-0.468 1.02,-1.934 0.828,-3.655c-2.422,1.849 -6.053,3.611 -9.089,4.545c-0.169,-0.402 -0.534,-0.976 -0.831,-1.337c3.399,-0.786 7.521,-2.762 9.623,-4.673c-0.148,-0.488 -0.317,-0.998 -0.574,-1.487c-2.081,1.423 -5.353,2.91 -7.88,3.696c-0.17,-0.34 -0.507,-0.913 -0.807,-1.231c2.654,-0.638 6.203,-2.147 8.051,-3.528c-0.276,-0.445 -0.616,-0.848 -1.02,-1.253c-1.891,1.062 -4.078,1.891 -6.118,2.507c-0.149,-0.318 -0.594,-0.956 -0.869,-1.254c2.675,-0.636 5.565,-1.698 7.583,-3.079l-4.844,0l0,-1.381l12.215,0l0,1.381l-5.27,0c-0.467,0.403 -0.955,0.764 -1.508,1.125c0.978,0.978 1.721,2.103 2.166,3.25c1.617,-1.04 3.443,-2.442 4.633,-3.547l1.294,1.019Z" style="fill:#fff;fill-rule:nonzero;"/><path d="M404.896,36.733l-5.056,0l0,1.615l5.056,0l0,-1.615Zm-5.055,-1.061l5.056,0l0,-1.594l-5.056,0l0,1.594Zm-1.55,1.061l-4.802,0l0,1.615l4.802,0l0,-1.615Zm-4.802,-1.061l4.802,0l0,-1.594l-4.802,0l0,1.594Zm15.124,8.369l0,1.295l-18.904,0l0,-1.295l8.582,0l0,-1.826l-6.989,0l0,-1.276l6.989,0l0,-1.465l-6.353,0l0,-6.542l6.353,0l0,-1.275l-8.476,0l0,-1.296l8.476,0l0,-1.529c-2.209,0.149 -4.462,0.234 -6.543,0.276c-0.021,-0.382 -0.191,-0.913 -0.339,-1.254c4.906,-0.127 10.854,-0.509 14.189,-1.125l0.849,1.232c-1.805,0.34 -4.121,0.573 -6.606,0.765l0,1.635l8.644,0l0,1.296l-8.644,0l0,1.275l6.65,0l0,6.542l-6.65,0l0,1.465l7.434,0l0,1.276l-7.434,0l0,1.826l8.772,0Z" style="fill:#fff;fill-rule:nonzero;"/><path d="M427.046,40.939c1.082,1.338 2.294,3.101 2.825,4.292l-1.487,0.595c-0.489,-1.169 -1.656,-2.996 -2.718,-4.356l1.38,-0.531Zm-4.271,0.404c0.661,1.275 1.34,2.995 1.594,4.057l-1.527,0.361c-0.215,-1.04 -0.852,-2.804 -1.489,-4.099l1.422,-0.319Zm-4.269,0.17c0.277,1.338 0.511,3.08 0.532,4.1l-1.572,0.213c0,-1.063 -0.191,-2.826 -0.469,-4.186l1.509,-0.127Zm7.351,-6.989l-11.024,0l0,3.781l11.024,0l0,-3.781Zm1.592,5.269l-14.125,0l0,-6.755l6.096,0l0,-6.437l1.572,0l0,2.272l8.03,0l0,1.487l-8.03,0l0,2.678l6.457,0l0,6.755Zm-16.737,5.501c1.123,-0.956 2.207,-2.656 2.887,-4.227l1.489,0.382c-0.701,1.657 -1.785,3.442 -2.934,4.545l-1.442,-0.7Z" style="fill:#fff;fill-rule:nonzero;"/><path d="M443.163,40.897c2.825,1.02 5.798,2.485 7.519,3.76l-0.956,1.211c-1.699,-1.295 -4.525,-2.762 -7.329,-3.824l0.766,-1.147Zm-3.932,-5.863c-0.615,-0.722 -1.953,-1.763 -3.1,-2.442l0.957,-0.999c1.126,0.616 2.484,1.572 3.143,2.315l-1,1.126Zm-4.268,-0.234c1.168,0.638 2.634,1.615 3.312,2.337l-0.955,1.191c-0.68,-0.765 -2.102,-1.785 -3.271,-2.465l0.914,-1.063Zm-0.425,-1.486l-1.551,0l0,-4.292l8.199,0c-0.276,-0.657 -0.68,-1.443 -1.061,-2.059l1.55,-0.489c0.51,0.786 1.083,1.806 1.381,2.548l7.221,0l0,4.292l-1.614,0l0,-2.804l-14.125,0l0,2.804Zm16.228,5.608l0,1.38l-8.771,0c-1.213,2.698 -3.591,4.546 -8.307,5.63c-0.171,-0.426 -0.553,-1.019 -0.891,-1.359c4.036,-0.85 6.202,-2.232 7.37,-4.271l-7.583,0l0,-1.38l8.221,0c0.658,-1.954 0.784,-4.355 0.87,-7.35l1.635,0c-0.084,2.888 -0.254,5.311 -0.828,7.35l8.284,0Z" style="fill:#fff;fill-rule:nonzero;"/><path d="M466.713,41.216c-0.085,-1.359 -0.466,-3.441 -0.849,-5.056l1.252,-0.169c0.404,1.614 0.786,3.653 0.914,5.034l-1.317,0.191Zm3.124,-6.691l-6.289,0l0,-1.36l6.289,0l0,1.36Zm-6.437,1.869c0.616,1.593 1.189,3.675 1.401,5.013l-1.296,0.361c-0.148,-1.381 -0.743,-3.462 -1.337,-5.076l1.232,-0.298Zm8.687,0.255c-0.891,2.231 -2.061,5.014 -3.102,6.946l3.251,0l0,1.381l-10.749,0l0,-1.381l6.14,0c1.041,-1.954 2.315,-5.097 3.015,-7.329l1.445,0.383Zm-4.355,-9.729c-0.148,0.34 -0.318,0.638 -0.467,0.956c1.338,1.997 3.634,4.228 5.565,5.502c-0.276,0.361 -0.638,1.019 -0.787,1.465c-1.889,-1.402 -4.056,-3.589 -5.542,-5.65c-1.424,2.316 -3.337,4.291 -5.333,5.693c-0.192,-0.296 -0.679,-0.956 -0.934,-1.253c2.507,-1.614 4.843,-4.206 6.118,-7.18l1.38,0.467Zm-6.712,9.559c0,0 0,0.467 -0.022,0.658c-0.339,5.332 -0.658,7.329 -1.294,8.01c-0.384,0.424 -0.766,0.572 -1.403,0.615c-0.509,0.042 -1.509,0.021 -2.505,-0.021c-0.044,-0.425 -0.191,-0.956 -0.448,-1.338c1.041,0.105 2.019,0.126 2.422,0.126c0.34,0 0.552,-0.021 0.744,-0.254c0.446,-0.446 0.764,-2.167 1.04,-6.5l-5.65,0c0.255,-1.848 0.532,-5.014 0.66,-7.265l1.358,0.063c-0.126,1.849 -0.341,4.143 -0.532,5.906l2.613,0c0.255,-2.018 0.532,-4.992 0.702,-7.54l-5.035,0l0,-1.381l6.48,0c-0.213,2.845 -0.511,6.627 -0.787,8.921l1.657,0Zm-2.294,4.546c-1.912,0.531 -3.844,1.083 -5.437,1.508l-0.299,-1.317c1.446,-0.319 3.504,-0.871 5.587,-1.402l0.149,1.211Z" style="fill:#fff;fill-rule:nonzero;"/><path d="M490.477,38.178c-0.299,-0.382 -0.702,-0.871 -1.211,-1.36c-10.068,0.787 -11.067,0.851 -11.726,1.126c-0.086,-0.318 -0.296,-1.041 -0.467,-1.445c0.404,-0.063 0.892,-0.339 1.444,-0.763c0.469,-0.319 1.741,-1.339 2.932,-2.55l-4.291,0l0,-1.381l13.997,0l0,1.381l-7.667,0c-1.126,1.125 -2.358,2.188 -3.588,3.08l8.196,-0.573c-0.571,-0.532 -1.167,-1.041 -1.72,-1.487l1.169,-0.744c1.445,1.127 3.27,2.741 4.164,3.845l-1.232,0.871Zm-13.937,-5.969l-1.528,0l0,-3.739l8.54,0c-0.233,-0.53 -0.553,-1.147 -0.828,-1.636l1.508,-0.445c0.382,0.638 0.829,1.465 1.084,2.081l7.857,0l0,3.739l-1.592,0l0,-2.273l-15.041,0l0,2.273Zm16.933,11.767l0,1.424l-18.715,0l0,-1.424l8.517,0l0,-2.803l-6.586,0l0,-1.402l6.586,0l0,-2.23l1.594,0l0,2.23l6.734,0l0,1.402l-6.734,0l0,2.803l8.604,0Z" style="fill:#fff;fill-rule:nonzero;"/></g><g id="Layer2"><g><path d="M177.883,92.753c-0.96,-0.912 -4.416,-4.272 -6.384,-6c2.208,-3.072 4.176,-6.528 5.52,-10.032l-3.024,-2.208l-0.96,0.24l-4.464,0l3.792,-2.208c-0.864,-1.728 -2.688,-4.224 -4.368,-6.048l-4.512,2.352c1.488,1.776 3.024,4.128 3.888,5.904l-8.4,0l0,5.136l10.944,0c-2.88,5.088 -7.536,9.792 -12.336,12.432c0.672,1.056 1.776,4.224 2.16,5.808c1.872,-1.104 3.648,-2.592 5.472,-4.224l0,17.664l5.616,0l0,-18.72c1.344,1.632 2.688,3.408 3.504,4.656l3.552,-4.752Zm14.976,11.664l0,-17.808l9.072,0l0,-5.52l-9.072,0l0,-14.064l-5.904,0l0,14.064l-9.456,0l0,5.52l9.456,0l0,17.808l-11.568,0l0,5.664l27.696,0l0,-5.664l-10.224,0Z" style="fill:#fff;fill-rule:nonzero;"/><path d="M233.611,98.657c1.392,1.296 2.784,2.784 4.128,4.272l-16.704,0.96c2.688,-2.4 5.328,-5.184 7.536,-7.92l20.16,0l0,-5.52l-39.696,0l0,5.52l11.616,0c-2.592,3.168 -5.184,5.76 -6.336,6.624c-1.488,1.296 -2.544,2.064 -3.792,2.352c0.672,1.632 1.632,4.56 1.92,5.808c2.352,-0.912 5.664,-1.104 29.328,-2.832c0.96,1.296 1.776,2.544 2.352,3.648l5.088,-3.12c-2.112,-3.6 -6.528,-8.64 -10.704,-12.288l-4.896,2.496Zm-12.816,-17.472c2.88,-2.016 5.616,-4.176 8.016,-6.576c2.352,2.208 5.328,4.464 8.496,6.576l-16.512,0Zm7.728,-14.688c-4.56,6.144 -13.248,12 -22.368,15.456c1.344,1.152 3.264,3.648 4.08,5.088c2.592,-1.152 4.992,-2.448 7.344,-3.792l0,3.168l22.416,0l0,-3.552c2.4,1.392 4.944,2.688 7.44,3.696c0.912,-1.536 2.736,-3.84 3.984,-5.04c-7.056,-2.256 -14.64,-6.576 -19.296,-10.512c0.528,-0.672 1.056,-1.344 1.584,-2.016l-5.184,-2.496Z" style="fill:#fff;fill-rule:nonzero;"/><path d="M267.931,74.704c-1.632,-2.066 -5.136,-5.134 -7.728,-7.244l-3.648,3.404c2.544,2.35 5.952,5.715 7.44,7.873l3.936,-4.033Zm22.416,24.238l0,6.102l-13.536,0l0,-6.102l13.536,0Zm-18.96,3.267c-0.432,-1.153 -0.96,-2.979 -1.152,-4.274l-4.704,3.169l0,-19.679l-11.04,0l0,5.472l5.712,0l0,14.687c0,2.114 -1.248,3.699 -2.208,4.418c0.96,1.151 2.4,3.596 2.88,4.94c0.816,-1.056 2.304,-2.255 10.512,-7.964l0,8.588l5.424,0l0,-1.584l13.536,0l0,1.44l5.712,0l0,-17.37l-24.672,0l0,8.157Zm17.52,-20.451c-0.096,1.442 -0.24,2.884 -0.384,4.374l-7.104,0c0.336,-1.394 0.672,-2.836 1.008,-4.374l6.48,0Zm5.04,4.374c0.288,-2.884 0.576,-6.1 0.672,-9.169l-3.984,-0.24l-0.912,0.193l-6.336,0c0.288,-1.251 0.528,-2.452 0.72,-3.654l13.392,0l0,-4.986l-27.936,0l0,4.986l8.832,0c-0.24,1.202 -0.48,2.403 -0.72,3.654l-6.48,0l0,4.842l5.472,0c-0.336,1.538 -0.72,2.98 -1.056,4.374l-7.68,0l0,5.13l31.152,0l0,-5.13l-5.136,0Z" style="fill:#fff;fill-rule:nonzero;"/><path d="M334.795,100.862l0,4.326l-20.064,0l0,-4.326l20.064,0Zm-25.68,10.704l5.616,0l0,-1.68l20.064,0l0,1.536l5.904,0l0,-15.306l-31.584,0l0,15.45Zm0.576,-18.816l30.48,0l0,-4.458l-30.48,0l0,4.458Zm30.48,-11.898l-30.48,0l0,4.458l30.48,0l0,-4.458Zm-10.704,-7.632c-0.816,-2.016 -2.448,-4.704 -4.08,-6.768l-5.76,1.44c1.152,1.632 2.352,3.6 3.12,5.328l-19.728,0l0,4.794l43.536,0l0,-4.794l-17.088,0Z" style="fill:#fff;fill-rule:nonzero;"/><path d="M363.595,74.801c-1.536,-2.115 -4.8,-5.279 -7.2,-7.533l-3.888,3.357c2.4,2.397 5.568,5.81 6.96,7.967l4.128,-3.791Zm-1.968,6.624l-11.136,0l0,5.136l5.664,0l0,14.208c0,2.832 -1.728,5.184 -2.832,6.24c0.912,0.72 2.688,2.544 3.36,3.6c0.816,-1.152 2.256,-2.496 10.608,-9.84c-0.672,-1.008 -1.68,-3.168 -2.16,-4.656l-3.504,3.072l0,-17.76Zm10.944,-0.819l5.088,0l0,3.126l-5.088,0l0,-3.126Zm0,-7.44l5.088,0l0,3.078l-5.088,0l0,-3.078Zm14.64,3.078l-4.416,0l0,-3.078l4.416,0l0,3.078Zm0,7.488l-4.416,0l0,-3.126l4.416,0l0,3.126Zm7.584,12.378l0,-5.13l-11.76,0l0,-2.79l9.552,0l0,-19.53l-25.152,0l0,19.53l9.984,0l0,2.79l-12.288,0l0,5.13l9.696,0c-2.784,3.936 -6.96,7.536 -11.136,9.552c1.2,1.056 2.832,3.024 3.696,4.32c3.696,-2.208 7.296,-5.856 10.032,-9.984l0,11.568l5.616,0l0,-11.664c2.592,3.84 5.856,7.488 8.976,9.696c0.912,-1.44 2.688,-3.36 3.888,-4.416c-3.6,-1.92 -7.488,-5.472 -10.272,-9.072l9.168,0Z" style="fill:#fff;fill-rule:nonzero;"/><path d="M443.131,102.496c-1.92,-1.729 -5.616,-4.512 -8.304,-6.334l-3.12,3.068c2.688,2.017 6.384,4.948 8.064,6.773l3.36,-3.507Zm-13.872,-19.872c-0.192,11.378 -0.816,16.654 -10.656,19.488c0.912,0.865 2.064,2.594 2.544,3.747c11.28,-3.507 12.528,-10.272 12.816,-23.235l-4.704,0Zm-7.248,-5.999l0,20.064l4.608,0l0,-15.984l9.648,0l0,15.697l4.848,0l0,-19.777l-8.592,0c0.528,-1.056 1.104,-2.208 1.632,-3.456l8.784,0l0,-4.512l-22.464,0l0,4.512l8.112,0c-0.336,1.2 -0.768,2.4 -1.2,3.456l-5.376,0Zm-8.736,-1.965l-7.056,0l0,-2.262l7.056,0l0,2.262Zm0,5.952l-7.056,0l0,-2.358l7.056,0l0,2.358Zm5.28,-12l-17.424,0l0,15.834l17.424,0l0,-15.834Zm-5.856,30.762l6.96,0l0,-4.122l-6.96,0l0,-3.942l7.92,0l0,-4.122l-21.696,0l0,4.122l8.976,0l0,10.994c-0.912,-0.913 -1.68,-2.018 -2.304,-3.41c0.192,-1.725 0.288,-3.595 0.384,-5.565l-4.656,-0.289c-0.096,6.526 -0.72,12.243 -3.504,15.84c1.104,0.575 3.12,1.918 3.936,2.686c1.344,-1.919 2.256,-4.22 2.88,-6.956c3.84,5.085 9.744,5.996 18.624,5.996l18.288,0c0.288,-1.439 1.104,-3.596 1.872,-4.699c-3.936,0.193 -16.944,0.193 -20.112,0.193c-4.224,0 -7.776,-0.193 -10.608,-1.057l0,-5.669Z" style="fill:#fff;fill-rule:nonzero;"/><path d="M455.995,92.323c3.312,-3.892 6.528,-8.403 9.216,-12.865l-4.32,-2.786c-0.864,1.631 -1.872,3.312 -2.88,4.944l-4.704,0.385c2.784,-3.89 5.424,-8.594 7.344,-13.053l-5.088,-2.352c-1.824,5.564 -5.136,11.563 -6.24,13.052c-1.104,1.584 -1.92,2.641 -2.88,2.881c0.576,1.44 1.44,3.984 1.728,5.088c0.768,-0.384 1.968,-0.72 6.672,-1.248c-1.776,2.353 -3.312,4.225 -4.032,5.042c-1.632,1.68 -2.736,2.783 -3.936,3.071c0.576,1.343 1.392,3.692 1.632,4.748c1.296,-0.72 3.264,-1.296 15.744,-3.693c-0.048,-1.103 0,-3.214 0.192,-4.606l-8.448,1.392Zm7.488,7.628c-6.048,1.441 -12.336,2.834 -16.512,3.651l1.008,5.422c4.656,-1.199 10.512,-2.733 16.128,-4.365l-0.624,-4.708Zm9.456,-1.633l8.544,0l0,7.254l-8.544,0l0,-7.254Zm8.544,-24.048l0,6.918l-8.544,0l0,-6.918l8.544,0Zm-8.544,12l8.544,0l0,7.014l-8.544,0l0,-7.014Zm14.208,19.302l0,-36.48l-19.632,0l0,36.48l-4.224,0l0,5.13l27.696,0l0,-5.13l-3.84,0Z" style="fill:#fff;fill-rule:nonzero;"/></g></g></svg>