<svg xmlns="http://www.w3.org/2000/svg" width="418" height="136.961" baseProfile="tiny" viewBox="0 0 418 136.961"><path fill="#FFF" d="M60.412 45.246l1.21 24.232 42.46-42.46-29.614 1.736m60.576 4.214l-3.915 7.808 3.91-2.145M95.71 3.84L76.267 26.65l29.946-1.755 21.06-21.055m-67.08 37.04L82.85 14.3l-2-10.463H58.34M94.226 52.43l13.14 1.36 20.68-11.325 6.998-13.957V11.612M47.67 83.43l9.185-9.185-3.52-70.41H37.063L23.39 50.45m5.352-36.012l3.11-10.604H24.27m60.24 8.513l7.257-8.513h-8.884m29.737 50.5l22.424 2.32v-14.6M19.664 45.39l7.742-26.4-6.393-15.156H2.168V21.63M105.783 104l-82.245 19.118L9.946 136.71h125.098v-18.624m0-36.316H64.888l-31.986 31.985L135.044 90.01M69.888 76.77h65.156V61.682L89.67 56.985m-87.502 71.95l40.497-40.498-40.497-55m132.876 63.76l-21.486 4.994 21.486 10.35m32.582-98.79c-.03.91-.062 2.35-.185 4.13.43 2.85 2.27 17.38 13.34 22.33-.21.12-.52.46-.64.71-9.08-4.16-12.02-14.59-13.06-20.1-1.01 6.74-4 15.79-13.06 20.16-.12-.21-.42-.48-.64-.64 13.06-6.18 13.28-22.39 13.34-26.58h.92zm26.074 1.59c-.98 2.45-2.235 5.38-3.424 7.89 2.6 2.66 3.24 4.96 3.24 6.97 0 1.32-.303 2.61-1.04 3.13-.368.24-.855.4-1.438.46-.674.06-1.464.06-2.138 0-.034-.24-.155-.61-.34-.89.856.07 1.654.1 2.232.04.43-.03.8-.12 1.072-.31.58-.39.764-1.43.764-2.41 0-1.89-.732-4.13-3.393-6.85 1.22-2.57 2.414-5.29 3.24-7.49H186.3v25.36h-.888V14.97h7.523l.155-.06.61.43zm5.05 13.43c-.98 3.52-2.57 6.91-4.316 9.18-.12-.12-.548-.39-.794-.52 1.838-2.23 3.303-5.47 4.193-8.81l.917.16zm12.298-5.08v.89h-8.104v14.98c0 .83-.243 1.14-.89 1.32-.67.18-1.99.18-4.22.18-.063-.27-.218-.61-.37-.91 1.958.06 3.52.03 3.95 0 .486-.03.607-.15.607-.58V24.58h-7.09v-.888h16.12zm-1.66-6.43H196.18v-.88h13.21v.89zm-2.472 11.32c1.56 2.88 3.21 6.7 3.857 9l-.943.28c-.585-2.26-2.207-6.15-3.767-9.08l.853-.18zm9.254-8.56h.882v21.2h-.882v-21.2zm1.134-5.81c1.438 1.19 3.08 2.94 3.85 4.07l-.737.52c-.73-1.16-2.382-2.9-3.82-4.16l.707-.42zm5.41 8.29h10.555v13.25h-10.56V22.49zm.89 6.15h8.783v-5.26h-8.782v5.26zm0 6.21h8.783v-5.32h-8.782v5.33zm16.3 4.69c0 .86-.212 1.19-.79 1.38-.617.19-1.78.19-3.615.19-.09-.24-.25-.67-.4-.98 1.59.07 2.97.04 3.37.04.42-.03.55-.15.55-.58V16.41H223.9v-.888h16.005V39.54zm15.184-4.83c.1.22.25.55.342.71-4.862 3.37-5.48 3.83-5.845 4.28-.084-.24-.335-.67-.486-.91.27-.15.76-.52.76-1.65V24.27h-4.87v-.89h5.75v14.17l4.33-2.847zM251.418 20c-.974-1.225-2.846-3.21-4.467-4.617l.65-.55c1.59 1.373 3.55 3.24 4.44 4.467l-.61.7zm20.898 6.79v.887h-19.033v-.882h5.2c.432-1.5.95-3.517 1.444-5.6h-4.438v-.89h4.61c.37-1.59.74-3.182 1.01-4.557h-6.75v-.89h16.88v.89h-9.18c-.27 1.408-.61 3-.98 4.56h7.28l.18-.092.61.125c-.22 1.87-.48 4.44-.82 6.46h3.98zm-16.178 4.16h14.002v10.12h-.883v-1.29H257.02v1.38h-.882V30.94zm.883.89v7.06h12.24v-7.07h-12.24zm3.83-10.65c-.49 2.083-.98 4.1-1.41 5.6h8.05c.28-1.746.52-4.04.74-5.6h-7.37zm41.98-2.535v.884h-27.01v-.89h27.01zM280.25 31.8h17.97v9.266h-.89v-1.47h-16.19v1.56h-.892v-9.36zm17.628-8.108h-17.41v-.89h17.41v.89zm-17.41 3.52h17.41v.89h-17.41v-.89zm.678 5.476v6.024h16.187v-6.03h-16.19zm9.43-14.44c-.648-1.16-2.147-2.904-3.464-4.158l.77-.43c1.316 1.226 2.776 2.938 3.446 4.1l-.753.49zm35.34 7.83c-1.226 3.4-3.03 6.09-5.297 8.264 3.4 2.872 7.8 4.795 13.09 5.69-.22.21-.5.58-.64.85-5.3-1.007-9.73-2.996-13.16-5.933-3.43 2.99-7.92 4.95-13.31 6.33-.09-.25-.4-.65-.61-.89 5.41-1.19 9.85-3.09 13.25-6.03-2.33-2.2-4.17-4.89-5.42-8.08l.82-.34c1.19 3.02 2.96 5.65 5.26 7.77 2.23-2.08 3.92-4.72 5.08-7.92l.91.27zm6.787-7.004h-25.94v-.884H332.7v.886zm-16.977 1.99c-2.05 2.6-5.2 5.294-7.833 7.1-.15-.185-.488-.583-.7-.77 2.655-1.65 5.752-4.215 7.7-6.67l.83.34zm4.344-3.516c-.397-1.04-1.378-2.662-2.26-3.856l.79-.302c.913 1.16 1.896 2.783 2.32 3.792l-.852.364zm4.68 3.304c2.937 1.957 6.33 4.803 7.99 6.76l-.746.614c-1.59-1.99-4.95-4.895-7.915-6.882l.67-.49zm17.267 5.6c-1.195-1.073-3.486-2.54-5.442-3.49l.55-.61c1.947.89 4.253 2.295 5.417 3.303l-.528.797zm2.016 4.158c-1.62 3.244-3.95 7.375-5.715 10.097l-.768-.612c1.65-2.41 4.124-6.664 5.845-10.06l.64.58zm-1.07-11.724c-1.04-1.22-3.126-3.027-4.9-4.28l.648-.52c1.78 1.193 3.86 2.968 4.87 4.16l-.61.642zm4.47 8.877h.882v3.455c0 3.367-.45 7.07-4.58 9.947-.13-.215-.44-.49-.68-.643 3.98-2.694 4.383-6.24 4.383-9.3v-3.46zm15.264-.34c-.403-.674-1.043-1.53-1.78-2.417-13.646.883-14.772.98-15.48 1.25-.054-.275-.244-.763-.335-1.01.456-.12 1.155-.274 1.657-.76.72-.67 3.29-3.917 4.61-5.694h-6.79v-.89h9.48c-.4-1.19-1.02-2.78-1.65-4.005l.8-.217c.67 1.313 1.43 3.06 1.8 4.22h8.86v.89h-11.34c-1.32 1.776-3.49 4.557-4.87 6.118l12.6-.795c-1.01-1.224-2.17-2.505-3.21-3.58l.74-.427c2.08 2.112 4.53 5.02 5.69 6.82l-.79.49zm-9.61.43h.882v12.02h-.89V27.846zm8.895 11.993c.372 0 .715-.03.9-.16.18-.12.324-.397.423-.855.062-.52.092-1.68.114-3.24.22.19.46.31.74.4-.04 1.32-.09 2.94-.22 3.4-.09.52-.26.83-.61 1.01-.28.16-.8.25-1.23.25h-1.44c-.46 0-1.01-.09-1.32-.31-.38-.24-.46-.58-.46-2.23V27.76h.88v10.7c0 .736.03 1.1.25 1.255.14.093.43.124.67.124h1.28zm12.685-26.07c-.52 1.527-1.135 3.365-1.682 4.68h5.472V37.85h-8.874v2.632h-.88V18.454h3.36c.58-1.374 1.318-3.548 1.62-4.984l.985.306zm2.907 5.57h-7.99v7.95h7.99v-7.95zm0 17.62v-8.78h-7.99v8.78h7.99zm15.97-17.775c-.523 14.35-1.01 18.97-2.2 20.35-.522.62-1.07.8-1.962.83-.912.03-2.655-.03-4.307-.15-.06-.3-.13-.67-.312-.91 2.02.15 3.858.19 4.498.19.62 0 .99-.06 1.26-.46 1.04-1.1 1.59-5.9 2.11-19.61h-9.17c-.86 2.3-1.86 4.32-3.03 5.94-.16-.12-.58-.36-.83-.45 2.17-2.88 3.76-7.13 4.71-11.57l.92.19c-.39 1.75-.89 3.43-1.43 5.02h9.76v.68zm-5.42 13.53c-1-1.87-3.21-4.95-5.13-7.16l.726-.42c1.933 2.23 4.164 5.24 5.175 7.07l-.77.52zM165.444 82.9c0 2.103-.267 3.48-1.49 4.283-1.227.84-2.757.957-4.9.957-.112-1.3-.764-3.524-1.375-4.786 1.06.077 2.21.077 2.63.077.42 0 .53-.15.53-.61v-7.08h-2.26c-.35 4.59-1.11 9.42-2.61 12.9-.8-.92-2.91-2.63-3.94-3.17 1.95-5.01 2.06-12.4 2.06-17.79V53.5h11.33v29.39zm-4.59-11.75v-4.17h-1.95v.65c0 1.065 0 2.253-.04 3.514h1.99zm-1.954-13.4v4.784h1.95v-4.79h-1.95zm29.39 4.552h-22.08v-5.21h8.036c-.574-1.143-1.263-2.37-1.836-3.402l4.973-1.682c.995 1.53 2.183 3.52 2.95 5.086h7.96v5.21zm-14.12 3.063c.804.8 1.645 1.68 2.487 2.6.69-1.8 1.302-3.713 1.762-5.667l4.55 1.04-.27.957h4.74V88.4h-5.06v-1.27h-15.57V64.25h5.08v2.87l2.26-1.76zm-2.26 10.87c.92-1.114 1.798-2.376 2.566-3.75-.843-1.04-1.724-2.07-2.566-3.025v6.773zm10.486 5.776v-3.56l-2.408 1.95c-.574-1.14-1.42-2.49-2.447-3.94-1.11 1.84-2.3 3.48-3.6 4.86-.42-.57-1.22-1.57-2.03-2.41V82h10.49zm0-16.69c-.688 2.22-1.49 4.41-2.408 6.47.882 1.08 1.684 2.11 2.408 3.1v-9.56zm15.867 6.09c-1.57-1.1-4.974-2.94-7.23-4.13l2.986-4.13c2.1.96 5.62 2.61 7.34 3.64l-3.1 4.63zm-6.853 12.9c2.028-2.83 4.935-7.46 7.273-11.93l4.092 3.71c-2.023 4.02-4.324 8.15-6.654 11.98l-4.71-3.75zm8.343-23.45c-1.494-1.11-4.783-2.94-6.888-4.21L196 52.62c2.032 1.028 5.398 2.715 7.042 3.746l-3.29 4.48zm17.984 7.69v4.06h7.73v15.68h-5.28v-1.38H209.86v1.53h-5.014V72.6h7.617v-4.06h-9.8v-5.32h9.8V59.7c-2.343.342-4.71.612-6.97.805-.19-1.34-.92-3.52-1.492-4.75 6.43-.61 13.29-1.91 17.53-3.71l4.25 4.362c-2.44.956-5.16 1.76-8.03 2.337v4.475h9.34v5.32h-9.33zm2.45 9.07H209.86v4.28h10.33v-4.28zm44.46-17.45s-.04 1.76-.04 2.41c-.35 15.39-.69 21.12-1.955 22.96-1.028 1.5-1.994 1.96-3.402 2.27-1.262.27-3.142.27-5.053.23-.12-1.49-.69-3.63-1.536-5.16-.99 2.07-2.29 3.94-3.89 5.59-.87-1.42-2.68-3.4-4.09-4.32.95-.96 1.79-2 2.48-3.14l-3.4 1.08c-.07-.42-.15-.88-.31-1.38-8.91 2.53-10.67 3.18-11.85 3.94v-.15c-.04.08-.04.12-.04.15-.26-1.03-1.14-3.55-1.75-4.9.8-.31 1.37-1.11 1.98-2.49.47-1.07 1.66-4.63 2.46-8.46h-4.48v-5.01h17.07v5.01h-6.88c-.73 2.87-1.77 5.86-2.87 8.53l5.05-1.26c-.45-1.41-.99-2.83-1.5-4.09l4.45-1.225c1.14 2.563 2.37 5.856 3.1 8.38 1.72-3.75 2.38-8.266 2.61-13.62h-3.49v-5.33h3.6c.05-2.333.05-4.78.05-7.35h5.51c0 2.53 0 4.98-.05 7.35h8.27zm-18.487-.3h-15.19V55h15.19v4.86zm10.024 5.63c-.343 6.66-1.188 12.44-3.402 17.15 1.522.11 2.83.11 3.638.11.608 0 .95-.15 1.377-.69.77-.99 1.065-5.47 1.332-16.57h-2.95zm45.826 16.83c0 2.72-.494 4.25-2.138 5.13-1.644.92-3.865 1.07-7.04 1.07-.188-1.53-1.033-4.09-1.833-5.5 1.79.11 4.01.11 4.66.11.64-.03.87-.27.87-.88V59.09h-22.26v29.39h-5.4V53.85H302v28.47zm-7.19-16.62h-18.987v-4.63h18.986v4.62zm-12.17 15.57v2.41h-5.09V68.01h15.767v13.27H282.65zm0-8.76v4.21h5.556v-4.21h-5.556zm44.382-4.48v9.04c2.977-2.03 5.39-4.59 7.154-7.99l5.47 2.49c-6.156 10.94-16.383 14.88-30.812 16.95-.487-1.61-1.644-3.83-2.794-5.28 7.086-.81 13.137-2.07 18.028-4.48h-3.02V68.04H306.21v-5.243h4.978V54.34h5.653v8.457h4.95v-10.68h6v2.486h10.95v5.206h-10.95v2.98h13.24v5.24h-13.99zm-7.51 2.65c-2.216 3.37-5.77 6.85-8.874 8.96-.914-1.07-2.945-3.17-4.133-4.13 2.907-1.57 5.967-4.13 7.656-6.69l5.35 1.88zm56.406 12.13c.105 0 .22-.03.296-.19.12-.19.16-.53.19-1.34.038-.8.076-2.56.076-4.7 1.036.84 2.604 1.73 3.942 2.18-.03 2.03-.22 4.67-.495 5.86-.228 1.18-.654 1.99-1.34 2.52-.646.57-1.643.76-2.564.76h-2.215c-1.004 0-2.22-.38-2.95-1.19-.763-.88-1.112-1.92-1.112-5.24v-21.9h-3.752v7.24c0 6.585-.96 16.265-6.613 21.738-.84-1.03-3.02-2.867-4.33-3.635v3.597h-5.54V75.96c-.99 2.336-2.1 4.48-3.32 6.16-.54-1.644-1.83-3.786-2.71-5.167 2.37-3.33 4.49-8.265 5.59-12.513h-4.78v-5.28h5.25v-7h5.55v7.003h3.87v5.28h-3.87v.73c1.27 1.3 4.33 4.743 5.18 5.74.07-1.454.11-2.834.11-4.135v-12.44h14.96v26.79c0 .88 0 1.3.05 1.453.08.16.15.23.27.23h.31zm-20.868 1.87c3.72-3.71 4.83-8.8 5.18-13.51l-2.72 5.25c-.61-1.23-1.53-2.76-2.45-4.25v12.51zm40.75-20.47h7.88v5.02h-7.87v2.11h7.23v9.42c0 2.03-.26 3.33-1.48 4.13-1.22.77-2.67.85-4.47.81-.12-1.34-.7-3.29-1.27-4.59v7.35h-5.28v-12.2h-2.1v9.19h-4.94V71.33h7.04v-2.104h-8.385v-5.014h3.03c-1.225-.572-2.87-1.223-3.865-1.57 1.5-2.41 2.713-6.312 3.33-9.91l5.09 1.036c-.235 1.068-.46 2.14-.768 3.214h1.57v-4.558h5.28v4.558h6.4v5.01h-6.397v2.22zm-5.28 0v-2.23h-3.21c-.3.81-.65 1.58-.96 2.23h4.17zm5.28 12.06v4.75c.73.04 1.54.04 1.84.04.31 0 .41-.07.41-.42v-4.36h-2.25zm14.17.73h-5.18v-21.9h5.18v21.88zm7.07-24.06v29.31c0 2.8-.5 4.25-2.02 5.17-1.57.88-3.87 1.07-6.9 1.07-.19-1.52-.94-3.97-1.63-5.54 1.83.08 3.75.08 4.4.08.62 0 .84-.19.84-.81v-29.3h5.33zm-257.2 66.29c.1.19.21.42.26.51-3.55 2.91-3.98 3.26-4.17 3.58-.11-.17-.34-.42-.53-.56.35-.26 1.1-.94 1.1-1.95V112h-3.69v-.67h4.36v9.92l2.68-2.04zm-2.47-10.93c-.64-.86-1.95-2.23-3.07-3.19l.49-.44c1.13.93 2.43 2.27 3.07 3.09l-.48.53zm10.02 8.59c1.54 2.33 4.11 4.81 6.19 5.97-.18.14-.36.34-.51.53-2.15-1.33-4.85-4.03-6.39-6.51h-.07v7.81h-.66v-7.82h-.09c-1.55 2.78-4.42 5.46-6.92 6.79-.11-.18-.32-.41-.48-.55 2.45-1.12 5.2-3.67 6.74-6.23h-5.89v-.66h6.65v-2.61h-5.24v-8.52h10.836v8.52h-4.925v2.61h6.74v.666h-5.96zm-6.02-7.88h4.58v-3.26h-4.58V109zm0 3.93h4.58v-3.28h-4.58v3.27zm9.51-7.2h-4.26V109h4.27v-3.25zm0 3.92h-4.26v3.27h4.27v-3.27zm25.45 13.77c-.14.21-.27.48-.32.69h-5.96c-5.5 0-9.51-.61-11.73-4.17-.39 1.88-1.03 3.42-2.08 4.65-.12-.11-.41-.32-.6-.43 1.72-1.81 2.27-4.58 2.46-8.064l.688.046c-.07 1.05-.16 2.04-.317 2.93.6 1.12 1.37 1.95 2.34 2.566v-7.01h-5v-.663h10.34v.66h-4.67v3.05h4.31v.668h-4.31v3.71c2.2 1.15 5.16 1.38 8.62 1.38h6.26zm-11.55-11.57h-7.33v-6.78h7.33v6.78zm-.66-6.11h-6v2.39h6v-2.386zm0 3.05h-6v2.41h6v-2.41zm7.38 1.81c-.2 6.74-.93 10.13-5.91 11.92-.09-.14-.292-.37-.45-.48 4.88-1.67 5.523-4.97 5.705-11.43h.665zm-1.76-1.97c.276-.78.597-1.95.78-2.77h-4.4v-.66h10.13v.667h-5c-.25.94-.55 2.02-.844 2.777h4.49v9.67h-.71v-9.01h-6.257v9.01h-.69v-9.66h2.49zm5.82 13.55c-.89-1.06-2.7-2.667-4.283-3.767l.503-.347c1.534 1.08 3.39 2.64 4.31 3.69l-.53.42zm10.95-5.94c0 .203.046.46.07.614-6.49 1.378-7.155 1.536-7.522 1.747-.045-.17-.156-.556-.273-.76.417-.096 1.054-.69 1.81-1.54.53-.575 1.886-2.13 3.255-4.014-4.1.597-4.647.715-4.925.87-.045-.18-.162-.57-.253-.753.365-.06.8-.68 1.35-1.49.596-.8 2.56-3.914 3.78-6.8l.71.32c-1.35 2.8-2.953 5.64-4.556 7.722l4.426-.58c.567-.83 1.19-1.7 1.69-2.57l.69.32c-1.986 3.026-4.17 5.89-6.344 8.11l6.1-1.212zm.137 4.74c-2.823.71-5.712 1.4-7.793 1.93l-.16-.71c1.95-.41 4.927-1.15 7.91-1.84l.046.616zm12.617 2.473v.663h-13.24v-.66h2.635V105.2h8.48v18.262h2.12zm-9.935-17.6v5.264h7.14v-5.27h-7.15zm0 11.384h7.14V111.8h-7.15v5.46zm0 6.21h7.14v-5.54h-7.15v5.54z"/></svg>