<?xml version="1.0" encoding="utf-8"?>
<!-- Generator: Adobe Illustrator 16.0.0, SVG Export Plug-In . SVG Version: 6.00 Build 0)  -->
<!DOCTYPE svg PUBLIC "-//W3C//DTD SVG 1.1//EN" "http://www.w3.org/Graphics/SVG/1.1/DTD/svg11.dtd">
<svg version="1.1" xmlns="http://www.w3.org/2000/svg" xmlns:xlink="http://www.w3.org/1999/xlink" x="0px" y="0px" width="450px"
	 height="137px" viewBox="0 0 450 137" enable-background="new 0 0 450 137" xml:space="preserve">
<g id="图层_2" display="none">
	<rect x="2.168" y="3.854" display="inline" width="132.876" height="132.877"/>
	<polygon display="inline" fill="#FFFFFF" points="6.057,140.619 -1.721,132.842 133.155,1.964 136.933,5.743 	"/>
	
		<line display="inline" fill="none" stroke="#FFFFFF" stroke-width="7" stroke-miterlimit="10" x1="21.537" y1="120.01" x2="148.771" y2="90.432"/>
	
		<line display="inline" fill="none" stroke="#FFFFFF" stroke-width="7" stroke-miterlimit="10" x1="48.466" y1="90.432" x2="-8.969" y2="12.426"/>
	
		<line display="inline" fill="none" stroke="#FFFFFF" stroke-width="5" stroke-miterlimit="10" x1="84.899" y1="53.998" x2="171.911" y2="63.006"/>
	
		<line display="inline" fill="none" stroke="#FFFFFF" stroke-width="5" stroke-miterlimit="10" x1="19.749" y1="53.998" x2="36.468" y2="-3.002"/>
	
		<line display="inline" fill="none" stroke="#FFFFFF" stroke-width="3" stroke-miterlimit="10" x1="165.916" y1="23.451" x2="107.618" y2="55.384"/>
	<polyline display="inline" fill="none" stroke="#FFFFFF" stroke-width="5" stroke-miterlimit="10" points="55.324,-6.433 
		57.253,32.175 59.609,79.288 159.907,79.288 	"/>
	
		<line display="inline" fill="none" stroke="#FFFFFF" stroke-width="5" stroke-miterlimit="10" x1="104.639" y1="100.692" x2="159.907" y2="127.3"/>
	<polyline display="inline" fill="none" stroke="#FFFFFF" stroke-width="3" stroke-miterlimit="10" points="107.618,-12.432 
		79.631,20.402 57.938,45.855 	"/>
	<path display="inline" fill="none" stroke="#FFFFFF" stroke-miterlimit="10" d="M68.605-12.432"/>
	
		<line display="inline" fill="none" stroke="#FFFFFF" stroke-width="3" stroke-miterlimit="10" x1="29.611" y1="20.375" x2="19.749" y2="-3.002"/>
	
		<line display="inline" fill="none" stroke="#FFFFFF" stroke-width="2" stroke-miterlimit="10" x1="84.04" y1="15.229" x2="78.75" y2="-12.432"/>
	
		<line display="inline" fill="none" stroke="#FFFFFF" stroke-width="2" stroke-miterlimit="10" x1="73.291" y1="27.841" x2="113.25" y2="25.498"/>
	
		<line display="inline" fill="none" stroke="#FFFFFF" stroke-width="2" stroke-miterlimit="10" x1="128.405" y1="43.998" x2="140.25" y2="20.375"/>
</g>
<g id="图层_2_x5F_复制" display="none">
	<g display="inline">
		<polygon fill="#FFFFFF" points="60.412,45.265 61.623,69.497 104.083,27.037 74.468,28.774 		"/>
		<polygon fill="#FFFFFF" points="135.044,32.988 131.129,40.795 135.044,38.651 		"/>
		<polygon fill="#FFFFFF" points="95.708,3.854 76.265,26.666 106.211,24.909 127.267,3.854 		"/>
		<polygon fill="#FFFFFF" points="60.193,40.896 82.848,14.318 80.847,3.854 58.342,3.854 		"/>
		<polygon fill="#FFFFFF" points="94.226,52.45 107.367,53.811 128.046,42.484 135.044,28.528 135.044,11.631 		"/>
		<polygon fill="#FFFFFF" points="47.671,83.449 56.855,74.265 53.335,3.854 37.063,3.854 23.389,50.47 		"/>
		<polygon fill="#FFFFFF" points="28.742,14.457 31.852,3.854 24.269,3.854 		"/>
		<polygon fill="#FFFFFF" points="84.511,12.366 91.767,3.854 82.883,3.854 		"/>
		<polygon fill="#FFFFFF" points="112.619,54.354 135.044,56.676 135.044,42.071 		"/>
		<polygon fill="#FFFFFF" points="19.663,45.409 27.406,19.009 21.013,3.854 2.168,3.854 2.168,21.649 		"/>
		<polygon fill="#FFFFFF" points="105.783,104.019 23.538,123.138 9.946,136.73 135.044,136.73 135.044,118.105 		"/>
		<polygon fill="#FFFFFF" points="135.044,81.788 64.888,81.788 32.902,113.774 135.044,90.029 		"/>
		<polygon fill="#FFFFFF" points="69.888,76.788 135.044,76.788 135.044,61.702 89.671,57.005 		"/>
		<polygon fill="#FFFFFF" points="2.168,128.953 42.665,88.456 2.168,33.455 		"/>
		<polygon fill="#FFFFFF" points="135.044,97.216 113.558,102.211 135.044,112.555 		"/>
	</g>
</g>
<g id="图层_6">
	<path fill="none" stroke="#FFFFFF" stroke-miterlimit="10" d="M68.605-12.432"/>
	<g>
		<polygon fill="#FFFFFF" points="76.265,26.666 109.722,24.704 131.207,3.854 95.707,3.854 		"/>
		<polygon fill="#FFFFFF" points="135.044,32.988 131.129,40.795 135.044,38.651 		"/>
		<polygon fill="#FFFFFF" points="60.412,45.265 61.713,71.289 107.524,26.835 74.468,28.774 		"/>
		<polygon fill="#FFFFFF" points="91.849,52.204 107.367,53.811 128.046,42.484 135.044,28.528 135.044,7.689 		"/>
		<polygon fill="#FFFFFF" points="48.3,84.304 56.938,75.922 53.335,3.854 37.063,3.854 23.389,50.47 		"/>
		<polygon fill="#FFFFFF" points="84.511,12.366 91.766,3.854 82.883,3.854 		"/>
		<polygon fill="#FFFFFF" points="28.742,14.457 31.852,3.854 24.269,3.854 		"/>
		<polygon fill="#FFFFFF" points="135.044,97.216 113.558,102.211 135.044,112.555 		"/>
		<polygon fill="#FFFFFF" points="19.663,45.409 27.406,19.009 21.013,3.854 2.168,3.854 2.168,21.649 		"/>
		<polygon fill="#FFFFFF" points="112.619,54.354 135.044,56.676 135.044,42.071 		"/>
		<polygon fill="#FFFFFF" points="105.783,104.019 22.869,123.294 9.831,136.73 135.044,136.73 135.044,118.105 		"/>
		<polygon fill="#FFFFFF" points="67.995,76.788 135.044,76.788 135.044,61.702 87.417,56.771 		"/>
		<polygon fill="#FFFFFF" points="2.168,129.068 43.23,89.224 2.168,33.455 		"/>
		<polygon fill="#FFFFFF" points="135.044,81.788 63.143,81.788 31.874,114.014 135.044,90.029 		"/>
		<polygon fill="#FFFFFF" points="60.193,40.896 82.848,14.318 80.847,3.854 58.342,3.854 		"/>
	</g>
	<path fill="#FFFFFF" d="M171.167,9.967l-0.741,5.499h-6.396v21.606h-7.216V15.466h-6.785V9.967H171.167z"/>
	<path fill="#FFFFFF" d="M190.394,9.967l-0.74,5.109h-9.243v5.772h8.072v4.953h-8.072v6.162h9.867v5.109h-17.082V9.967H190.394z"/>
	<path fill="#FFFFFF" d="M207.826,37.072l-1.209-5.538h-7.176l-1.209,5.538h-7.488l8.034-27.105h8.658l8.034,27.105H207.826z
		 M200.572,26.386h4.914l-2.457-11.271L200.572,26.386z"/>
	<path fill="#FFFFFF" d="M244.564,37.072h-7.098l-0.352-10.101l-0.039-1.677c-0.052-1.56-0.078-2.743-0.078-3.549
		c0-1.95,0.078-3.9,0.234-5.85l-3.705,18.369h-6.825l-3.938-18.369c0.233,3.042,0.351,5.72,0.351,8.034
		c0,1.326-0.013,2.34-0.039,3.042l-0.312,10.101h-7.099l1.989-27.105h8.97l3.628,17.979l3.275-17.979h9.009L244.564,37.072z"/>
	<path fill="#FFFFFF" d="M166.662,56.962c1.573,0.599,2.983,1.495,4.231,2.691l-3.236,3.821c-1.872-1.481-3.836-2.223-5.89-2.223
		c-1.066,0-1.879,0.202-2.438,0.604c-0.56,0.403-0.838,0.969-0.838,1.696c0,0.521,0.143,0.95,0.429,1.287
		c0.286,0.339,0.767,0.663,1.443,0.976c0.676,0.312,1.741,0.701,3.197,1.17c2.782,0.884,4.816,1.995,6.104,3.334
		c1.287,1.34,1.931,3.192,1.931,5.558c0,1.716-0.442,3.231-1.326,4.544s-2.164,2.334-3.841,3.062
		c-1.678,0.728-3.646,1.092-5.909,1.092c-4.315,0-7.839-1.313-10.568-3.939l3.549-3.938c2.157,1.769,4.407,2.651,6.747,2.651
		c1.222,0,2.17-0.266,2.847-0.799c0.676-0.533,1.014-1.241,1.014-2.126c0-0.624-0.13-1.137-0.39-1.54s-0.722-0.767-1.385-1.092
		s-1.632-0.683-2.905-1.073c-3.068-0.961-5.226-2.118-6.474-3.471c-1.248-1.352-1.872-3.055-1.872-5.109
		c0-1.611,0.435-3.028,1.307-4.251c0.87-1.222,2.079-2.164,3.627-2.827c1.546-0.663,3.282-0.994,5.206-0.994
		C163.275,56.065,165.089,56.364,166.662,56.962z"/>
	<path fill="#FFFFFF" d="M194.995,59.809c2.184,2.496,3.276,5.994,3.276,10.491c0,2.938-0.488,5.479-1.463,7.625
		c-0.975,2.145-2.398,3.789-4.271,4.934c-1.872,1.144-4.108,1.716-6.708,1.716c-3.927,0-6.975-1.248-9.146-3.744
		s-3.257-6.006-3.257-10.53c0-2.938,0.487-5.473,1.463-7.604c0.975-2.132,2.392-3.77,4.251-4.914
		c1.858-1.144,4.088-1.716,6.688-1.716C189.756,56.065,192.811,57.313,194.995,59.809z M182.105,63.358
		c-0.793,1.403-1.189,3.718-1.189,6.941c0,3.225,0.402,5.545,1.209,6.962c0.806,1.417,2.041,2.125,3.705,2.125
		c1.716,0,2.964-0.701,3.744-2.105c0.779-1.404,1.17-3.73,1.17-6.981c0-3.224-0.391-5.538-1.17-6.941
		c-0.78-1.404-2.028-2.106-3.744-2.106C184.14,61.252,182.898,61.954,182.105,63.358z"/>
	<path fill="#FFFFFF" d="M217.575,56.845c1.378,0.521,2.665,1.287,3.861,2.302l-3.394,4.017c-0.806-0.598-1.586-1.053-2.34-1.365
		c-0.754-0.312-1.56-0.468-2.418-0.468c-1.716,0-3.056,0.741-4.017,2.223c-0.963,1.482-1.443,3.719-1.443,6.708
		c0,2.99,0.487,5.214,1.463,6.669c0.975,1.457,2.333,2.185,4.075,2.185c0.936,0,1.8-0.188,2.594-0.565
		c0.792-0.377,1.657-0.93,2.593-1.658l3.198,4.057c-1.066,1.066-2.347,1.937-3.842,2.613c-1.495,0.676-3.113,1.014-4.855,1.014
		c-2.573,0-4.816-0.553-6.728-1.657c-1.91-1.105-3.387-2.73-4.426-4.875c-1.04-2.146-1.561-4.739-1.561-7.781
		c0-2.964,0.533-5.512,1.6-7.644c1.065-2.132,2.548-3.757,4.445-4.875s4.082-1.677,6.553-1.677
		C214.65,56.065,216.196,56.325,217.575,56.845z"/>
	<path fill="#FFFFFF" d="M231.187,56.767v27.105h-7.215V56.767H231.187z"/>
	<path fill="#FFFFFF" d="M249.633,83.872l-1.209-5.538h-7.176l-1.209,5.538h-7.488l8.034-27.105h8.658l8.034,27.105H249.633z
		 M242.379,73.187h4.914l-2.457-11.271L242.379,73.187z"/>
	<path fill="#FFFFFF" d="M265.857,56.767v21.489h10.413l-0.78,5.616h-16.848V56.767H265.857z"/>
	<path fill="#FFFFFF" d="M168.047,103.645c1.378,0.521,2.665,1.287,3.861,2.302l-3.394,4.017c-0.806-0.598-1.586-1.053-2.34-1.365
		c-0.754-0.312-1.56-0.468-2.418-0.468c-1.716,0-3.056,0.741-4.017,2.223c-0.963,1.482-1.443,3.719-1.443,6.708
		c0,2.99,0.487,5.214,1.463,6.669c0.975,1.457,2.333,2.185,4.075,2.185c0.936,0,1.8-0.188,2.594-0.565
		c0.792-0.377,1.657-0.93,2.593-1.658l3.198,4.057c-1.066,1.066-2.347,1.937-3.842,2.613c-1.495,0.676-3.113,1.014-4.855,1.014
		c-2.573,0-4.816-0.553-6.728-1.657c-1.91-1.105-3.387-2.73-4.426-4.875c-1.04-2.146-1.561-4.739-1.561-7.781
		c0-2.964,0.533-5.512,1.6-7.644c1.065-2.132,2.548-3.757,4.445-4.875s4.082-1.677,6.553-1.677
		C165.122,102.865,166.668,103.125,168.047,103.645z"/>
	<path fill="#FFFFFF" d="M194.178,106.608c2.184,2.496,3.276,5.994,3.276,10.491c0,2.938-0.488,5.479-1.463,7.625
		c-0.975,2.145-2.398,3.789-4.271,4.934c-1.872,1.144-4.108,1.716-6.708,1.716c-3.927,0-6.975-1.248-9.146-3.744
		s-3.257-6.006-3.257-10.53c0-2.938,0.487-5.473,1.463-7.604c0.975-2.132,2.392-3.77,4.251-4.914
		c1.858-1.144,4.088-1.716,6.688-1.716C188.938,102.865,191.993,104.113,194.178,106.608z M181.288,110.158
		c-0.793,1.403-1.189,3.718-1.189,6.941c0,3.225,0.402,5.545,1.209,6.962c0.806,1.417,2.041,2.125,3.705,2.125
		c1.716,0,2.964-0.701,3.744-2.105c0.779-1.404,1.17-3.73,1.17-6.981c0-3.224-0.391-5.538-1.17-6.941
		c-0.78-1.404-2.028-2.106-3.744-2.106C183.322,108.052,182.081,108.754,181.288,110.158z"/>
	<path fill="#FFFFFF" d="M227.951,130.672h-7.098l-0.352-10.101l-0.039-1.678c-0.052-1.56-0.078-2.742-0.078-3.549
		c0-1.95,0.078-3.899,0.234-5.85l-3.705,18.369h-6.825l-3.938-18.369c0.233,3.042,0.351,5.72,0.351,8.034
		c0,1.325-0.013,2.34-0.039,3.042l-0.312,10.101h-7.099l1.989-27.105h8.97l3.628,17.979l3.275-17.979h9.009L227.951,130.672z"/>
	<path fill="#FFFFFF" d="M258.722,130.672h-7.098l-0.352-10.101l-0.039-1.678c-0.052-1.56-0.078-2.742-0.078-3.549
		c0-1.95,0.078-3.899,0.234-5.85l-3.705,18.369h-6.825l-3.938-18.369c0.233,3.042,0.351,5.72,0.351,8.034
		c0,1.325-0.013,2.34-0.039,3.042l-0.312,10.101h-7.099l1.989-27.105h8.97l3.628,17.979l3.275-17.979h9.009L258.722,130.672z"/>
	<path fill="#FFFFFF" d="M283.213,121.585c0,1.872-0.409,3.549-1.229,5.031c-0.818,1.481-2.047,2.646-3.686,3.49
		c-1.638,0.845-3.64,1.268-6.006,1.268c-3.588,0-6.305-0.878-8.15-2.633c-1.847-1.755-2.77-4.14-2.77-7.156v-18.019h7.215v17.784
		c0,1.639,0.293,2.841,0.878,3.607c0.585,0.768,1.527,1.15,2.827,1.15s2.236-0.39,2.809-1.17c0.571-0.779,0.857-1.976,0.857-3.588
		v-17.784h7.254V121.585z"/>
	<path fill="#FFFFFF" d="M308.406,130.672h-9.087l-6.863-20.397l0.116,0.819c0.26,1.794,0.462,3.478,0.604,5.051
		s0.215,3.36,0.215,5.362v9.165h-6.396v-27.105h8.892l7.098,20.476c-0.312-1.95-0.553-3.705-0.722-5.265
		c-0.169-1.561-0.253-3.354-0.253-5.383v-9.828h6.396V130.672z"/>
	<path fill="#FFFFFF" d="M319.834,103.566v27.105h-7.215v-27.105H319.834z"/>
	<path fill="#FFFFFF" d="M340.23,103.645c1.378,0.521,2.665,1.287,3.861,2.302l-3.394,4.017c-0.806-0.598-1.586-1.053-2.34-1.365
		c-0.754-0.312-1.56-0.468-2.418-0.468c-1.716,0-3.056,0.741-4.017,2.223c-0.963,1.482-1.443,3.719-1.443,6.708
		c0,2.99,0.487,5.214,1.463,6.669c0.975,1.457,2.333,2.185,4.075,2.185c0.936,0,1.8-0.188,2.594-0.565
		c0.792-0.377,1.657-0.93,2.593-1.658l3.198,4.057c-1.066,1.066-2.347,1.937-3.842,2.613c-1.495,0.676-3.113,1.014-4.855,1.014
		c-2.573,0-4.816-0.553-6.728-1.657c-1.91-1.105-3.387-2.73-4.426-4.875c-1.04-2.146-1.561-4.739-1.561-7.781
		c0-2.964,0.533-5.512,1.6-7.644c1.065-2.132,2.548-3.757,4.445-4.875s4.082-1.677,6.553-1.677
		C337.306,102.865,338.852,103.125,340.23,103.645z"/>
	<path fill="#FFFFFF" d="M360.861,130.672l-1.209-5.538h-7.176l-1.209,5.538h-7.488l8.034-27.105h8.658l8.034,27.105H360.861z
		 M353.607,119.986h4.914l-2.457-11.271L353.607,119.986z"/>
	<path fill="#FFFFFF" d="M387.226,103.566l-0.741,5.499h-6.396v21.606h-7.216v-21.606h-6.785v-5.499H387.226z"/>
	<path fill="#FFFFFF" d="M396.469,103.566v27.105h-7.215v-27.105H396.469z"/>
	<path fill="#FFFFFF" d="M421.194,106.608c2.184,2.496,3.276,5.994,3.276,10.491c0,2.938-0.488,5.479-1.463,7.625
		c-0.975,2.145-2.398,3.789-4.271,4.934c-1.872,1.144-4.108,1.716-6.708,1.716c-3.927,0-6.975-1.248-9.146-3.744
		s-3.257-6.006-3.257-10.53c0-2.938,0.487-5.473,1.463-7.604c0.975-2.132,2.392-3.77,4.251-4.914
		c1.858-1.144,4.088-1.716,6.688-1.716C415.955,102.865,419.01,104.113,421.194,106.608z M408.305,110.158
		c-0.793,1.403-1.189,3.718-1.189,6.941c0,3.225,0.402,5.545,1.209,6.962c0.806,1.417,2.041,2.125,3.705,2.125
		c1.716,0,2.964-0.701,3.744-2.105c0.779-1.404,1.17-3.73,1.17-6.981c0-3.224-0.391-5.538-1.17-6.941
		c-0.78-1.404-2.028-2.106-3.744-2.106C410.339,108.052,409.098,108.754,408.305,110.158z"/>
	<path fill="#FFFFFF" d="M449,130.672h-9.087l-6.863-20.397l0.116,0.819c0.26,1.794,0.462,3.478,0.604,5.051s0.215,3.36,0.215,5.362
		v9.165h-6.396v-27.105h8.892l7.098,20.476c-0.312-1.95-0.553-3.705-0.722-5.265c-0.169-1.561-0.253-3.354-0.253-5.383v-9.828H449
		V130.672z"/>
</g>
<g id="图层_5" display="none">
	<path display="inline" fill="none" stroke="#FFFFFF" stroke-miterlimit="10" d="M68.259-11.934"/>
	<polygon display="inline" fill="#FFFFFF" points="24.274,50.98 48.613,84.051 55.387,77.275 51.701,3.549 38.186,3.549 	"/>
	<polygon display="inline" fill="#FFFFFF" points="60.961,35.633 88.308,3.549 59.356,3.549 	"/>
	<polygon display="inline" fill="#FFFFFF" points="134.52,82.601 60.871,82.601 30.022,113.449 134.52,89.155 	"/>
	<polygon display="inline" fill="#FFFFFF" points="2,33.625 2,130.662 43.149,89.516 15.886,52.489 15.864,52.481 15.866,52.469 	
		"/>
	<polygon display="inline" fill="#FFFFFF" points="98.346,3.549 61.513,46.755 62.679,69.986 129.116,3.549 	"/>
	<polygon display="inline" fill="#FFFFFF" points="68.512,74.954 134.52,74.954 134.52,62.576 85.925,57.546 	"/>
	<polygon display="inline" fill="#FFFFFF" points="18.573,43.245 30.22,3.549 2,3.549 2,20.732 	"/>
	<polygon display="inline" fill="#FFFFFF" points="103.746,104.152 22.184,123.114 21.839,121.631 7.403,136.066 134.52,136.066 
		134.52,118.965 	"/>
	<polygon display="inline" fill="#FFFFFF" points="134.52,35.599 134.52,8.949 92.888,50.581 105.496,51.884 105.331,51.586 	"/>
	<polygon display="inline" fill="#FFFFFF" points="118.278,53.21 134.52,54.89 134.52,44.311 	"/>
	<polygon display="inline" fill="#FFFFFF" points="134.52,96.996 115.633,101.386 134.52,110.479 	"/>
</g>
<g id="图层_1_x5F_复制" display="none">
	<path display="inline" fill="none" stroke="#FFFFFF" stroke-miterlimit="10" d="M8.56-1.98"/>
	<g display="inline">
		<g>
			<polygon points="2.877,6.147 6.022,10.419 6.897,9.544 6.421,0.02 4.675,0.02 			"/>
			<polygon points="7.617,4.165 11.15,0.02 7.41,0.02 			"/>
			<polygon points="17.12,10.232 7.605,10.232 3.62,14.218 17.12,11.079 			"/>
			<polygon points="0,3.905 0,16.441 5.316,11.125 1.794,6.342 1.791,6.341 1.792,6.339 			"/>
			<polygon points="12.447,0.02 7.688,5.602 7.839,8.603 16.422,0.02 			"/>
			<polygon points="8.593,9.245 17.12,9.245 17.12,7.646 10.842,6.996 			"/>
			<polygon points="2.141,5.148 3.646,0.02 0,0.02 0,2.24 			"/>
			<polygon points="13.145,13.017 2.607,15.466 2.563,15.274 0.698,17.14 17.12,17.14 17.12,14.93 			"/>
			<polygon points="17.12,4.16 17.12,0.717 11.742,6.096 13.371,6.264 13.349,6.226 			"/>
			<polygon points="15.022,6.436 17.12,6.652 17.12,5.286 			"/>
			<polygon points="17.12,12.092 14.68,12.659 17.12,13.834 			"/>
		</g>
		<g>
			<rect x="19.33" y="1.124" fill="none" width="36.67" height="16.016"/>
			<path d="M21.397,1.339c-0.004,0.118-0.008,0.304-0.024,0.533c0.056,0.368,0.292,2.245,1.723,2.885
				c-0.027,0.016-0.067,0.059-0.083,0.091c-1.173-0.538-1.553-1.885-1.688-2.597c-0.13,0.87-0.518,2.04-1.688,2.604
				c-0.016-0.028-0.055-0.063-0.083-0.083c1.688-0.798,1.715-2.893,1.723-3.434H21.397z"/>
			<path d="M24.766,1.545c-0.126,0.316-0.289,0.695-0.442,1.02c0.336,0.344,0.419,0.64,0.419,0.901c0,0.17-0.04,0.336-0.135,0.403
				C24.56,3.9,24.497,3.92,24.422,3.928c-0.087,0.008-0.189,0.008-0.276,0c-0.004-0.032-0.02-0.079-0.044-0.115
				c0.111,0.008,0.214,0.012,0.289,0.004c0.056-0.004,0.103-0.016,0.139-0.04c0.075-0.051,0.099-0.186,0.099-0.312
				c0-0.245-0.095-0.534-0.438-0.885c0.158-0.332,0.312-0.684,0.418-0.968H23.81v3.276h-0.115V1.497h0.972l0.02-0.008L24.766,1.545z
				 M25.418,3.28c-0.126,0.454-0.332,0.893-0.558,1.186c-0.016-0.016-0.071-0.051-0.103-0.067c0.237-0.289,0.427-0.708,0.542-1.138
				L25.418,3.28z M27.006,2.624v0.115h-1.047v1.937c0,0.106-0.032,0.146-0.115,0.17c-0.087,0.023-0.257,0.023-0.545,0.023
				c-0.008-0.035-0.028-0.079-0.047-0.118c0.253,0.008,0.455,0.004,0.51,0c0.063-0.004,0.079-0.02,0.079-0.075V2.738h-0.917V2.624
				H27.006z M26.793,1.793h-1.707V1.679h1.707V1.793z M26.473,3.256c0.202,0.372,0.415,0.866,0.498,1.162l-0.123,0.036
				c-0.075-0.292-0.285-0.794-0.486-1.174L26.473,3.256z"/>
			<path d="M27.668,2.149h0.115v2.739h-0.115V2.149z M27.814,1.398C28,1.553,28.213,1.778,28.313,1.924l-0.095,0.067
				c-0.095-0.15-0.308-0.375-0.494-0.538L27.814,1.398z M28.514,2.469h1.364v1.711h-1.364V2.469z M28.628,3.264h1.134v-0.68h-1.134
				V3.264z M28.628,4.066h1.134V3.378h-1.134V4.066z M30.735,4.671c0,0.11-0.028,0.154-0.103,0.178
				c-0.079,0.023-0.229,0.023-0.466,0.023c-0.012-0.031-0.032-0.087-0.052-0.126c0.206,0.008,0.384,0.004,0.435,0.004
				c0.055-0.004,0.071-0.02,0.071-0.075V1.683h-1.952V1.568h2.067V4.671z"/>
			<path d="M32.697,4.046c0.012,0.028,0.032,0.071,0.043,0.091c-0.628,0.435-0.708,0.494-0.755,0.553
				c-0.012-0.032-0.043-0.087-0.063-0.119c0.035-0.02,0.099-0.067,0.099-0.213v-1.66h-0.628V2.584h0.743v1.83L32.697,4.046z
				 M32.223,2.146c-0.126-0.158-0.368-0.415-0.577-0.597l0.083-0.071c0.206,0.178,0.458,0.419,0.573,0.577L32.223,2.146z
				 M34.922,3.023v0.114h-2.458V3.023h0.672c0.056-0.194,0.123-0.455,0.186-0.724h-0.573V2.185h0.597
				c0.048-0.206,0.095-0.411,0.13-0.589h-0.873V1.481h2.181v0.115h-1.186c-0.035,0.182-0.079,0.387-0.126,0.589h0.941l0.023-0.012
				l0.079,0.016c-0.028,0.241-0.063,0.573-0.106,0.834H34.922z M32.831,3.56h1.81v1.308h-0.115V4.702h-1.581V4.88h-0.115V3.56z
				 M32.946,3.675v0.913h1.581V3.675H32.946z M33.44,2.299c-0.063,0.269-0.126,0.53-0.182,0.724h1.04
				c0.036-0.226,0.067-0.522,0.095-0.724H33.44z"/>
			<path d="M38.864,1.972v0.114h-3.49V1.972H38.864z M35.947,3.671h2.32v1.197h-0.114V4.679h-2.091V4.88h-0.115V3.671z
				 M38.223,2.624h-2.249V2.509h2.249V2.624z M35.975,3.078h2.249v0.115h-2.249V3.078z M36.062,3.786v0.778h2.091V3.786H36.062z
				 M37.279,1.92c-0.083-0.15-0.277-0.375-0.447-0.537l0.099-0.056c0.17,0.158,0.359,0.379,0.446,0.53L37.279,1.92z"/>
			<path d="M41.845,2.932c-0.158,0.439-0.392,0.787-0.684,1.067c0.439,0.372,1.008,0.62,1.692,0.735
				c-0.028,0.028-0.063,0.075-0.083,0.111c-0.684-0.13-1.257-0.387-1.7-0.767c-0.442,0.387-1.023,0.64-1.719,0.818
				c-0.012-0.032-0.051-0.083-0.079-0.115c0.699-0.154,1.272-0.399,1.711-0.778c-0.3-0.285-0.538-0.632-0.699-1.043l0.106-0.043
				c0.154,0.391,0.383,0.731,0.68,1.004c0.289-0.269,0.506-0.609,0.656-1.023L41.845,2.932z M42.722,2.027h-3.351V1.912h3.351V2.027
				z M40.529,2.284c-0.265,0.336-0.672,0.684-1.012,0.917c-0.02-0.024-0.063-0.075-0.091-0.099c0.344-0.213,0.743-0.545,0.996-0.861
				L40.529,2.284z M41.09,1.829c-0.051-0.134-0.178-0.344-0.292-0.498L40.9,1.292c0.119,0.15,0.245,0.359,0.3,0.49L41.09,1.829z
				 M41.695,2.256c0.379,0.253,0.818,0.621,1.032,0.874l-0.095,0.079c-0.206-0.257-0.64-0.632-1.023-0.889L41.695,2.256z"/>
			<path d="M43.925,2.979c-0.154-0.139-0.45-0.328-0.703-0.451l0.071-0.079c0.253,0.115,0.549,0.296,0.7,0.427L43.925,2.979z
				 M44.186,3.517c-0.209,0.419-0.51,0.953-0.739,1.304l-0.099-0.079c0.213-0.312,0.533-0.861,0.755-1.3L44.186,3.517z
				 M44.048,2.003c-0.134-0.158-0.403-0.391-0.632-0.553l0.083-0.067c0.229,0.154,0.498,0.383,0.628,0.537L44.048,2.003z
				 M44.625,3.149h0.115v0.446c0,0.435-0.06,0.913-0.593,1.285c-0.016-0.028-0.056-0.063-0.087-0.083
				c0.514-0.348,0.565-0.806,0.565-1.202V3.149z M46.597,3.106c-0.052-0.087-0.135-0.198-0.229-0.313
				c-1.763,0.115-1.909,0.126-2,0.162c-0.008-0.036-0.032-0.099-0.043-0.13c0.059-0.016,0.15-0.036,0.213-0.099
				c0.095-0.087,0.427-0.506,0.597-0.735h-0.877V1.876h1.225c-0.051-0.154-0.13-0.359-0.213-0.518l0.103-0.028
				c0.087,0.17,0.186,0.396,0.233,0.545h1.146v0.115h-1.466c-0.17,0.229-0.451,0.589-0.628,0.791l1.628-0.103
				c-0.13-0.158-0.28-0.324-0.415-0.462l0.095-0.055C46.233,2.434,46.55,2.81,46.7,3.042L46.597,3.106z M45.356,3.161h0.115v1.553
				h-0.115V3.161z M46.506,4.71c0.048,0,0.091-0.004,0.115-0.02c0.024-0.016,0.043-0.051,0.056-0.11
				c0.008-0.067,0.012-0.218,0.016-0.419c0.028,0.023,0.059,0.04,0.095,0.051c-0.004,0.17-0.012,0.379-0.028,0.438
				c-0.012,0.067-0.035,0.107-0.079,0.13c-0.036,0.02-0.103,0.032-0.158,0.032h-0.186c-0.059,0-0.13-0.012-0.17-0.04
				c-0.047-0.032-0.059-0.075-0.059-0.289V3.149h0.115v1.383c0,0.095,0.004,0.143,0.031,0.162c0.02,0.012,0.056,0.016,0.087,0.016
				H46.506z"/>
			<path d="M48.144,1.343c-0.067,0.197-0.146,0.435-0.217,0.604h0.707v2.506h-1.146v0.34h-0.115V1.948h0.435
				c0.075-0.178,0.17-0.458,0.209-0.644L48.144,1.343z M48.52,2.063h-1.032V3.09h1.032V2.063z M48.52,4.339V3.205h-1.032v1.134
				H48.52z M50.582,2.042c-0.067,1.854-0.13,2.45-0.284,2.628c-0.067,0.079-0.139,0.103-0.253,0.106
				c-0.119,0.004-0.344-0.004-0.557-0.02c-0.008-0.04-0.016-0.087-0.04-0.119c0.261,0.02,0.498,0.024,0.581,0.024
				c0.079,0,0.126-0.008,0.162-0.06c0.134-0.142,0.206-0.763,0.273-2.533h-1.186c-0.111,0.296-0.241,0.557-0.392,0.767
				c-0.02-0.016-0.075-0.047-0.106-0.059c0.28-0.372,0.486-0.921,0.608-1.494l0.119,0.024c-0.051,0.225-0.115,0.442-0.186,0.648
				h1.26V2.042z M49.883,3.79c-0.13-0.241-0.415-0.64-0.664-0.925l0.095-0.055c0.249,0.288,0.538,0.676,0.668,0.913L49.883,3.79z"/>
			<path d="M21.115,10.272c0,0.272-0.035,0.45-0.193,0.554c-0.158,0.108-0.356,0.124-0.633,0.124
				c-0.015-0.168-0.099-0.455-0.178-0.618c0.138,0.01,0.287,0.01,0.341,0.01c0.055,0,0.069-0.02,0.069-0.079V9.347H20.23
				c-0.044,0.593-0.144,1.216-0.336,1.666c-0.104-0.119-0.375-0.341-0.509-0.41c0.252-0.647,0.267-1.602,0.267-2.299V6.475h1.463
				V10.272z M20.521,8.754V8.215H20.27v0.084c0,0.138,0,0.292-0.005,0.455H20.521z M20.27,7.023v0.618h0.252V7.023H20.27z
				 M24.066,7.612h-2.853V6.939h1.038c-0.074-0.148-0.163-0.306-0.237-0.44l0.643-0.217c0.128,0.198,0.282,0.455,0.381,0.657h1.028
				V7.612z M22.242,8.007c0.104,0.104,0.212,0.218,0.321,0.336c0.089-0.232,0.168-0.479,0.228-0.732l0.588,0.134l-0.034,0.124h0.613
				v3.115h-0.653V10.82h-2.012V7.864h0.657v0.371L22.242,8.007z M21.95,9.412c0.119-0.144,0.232-0.307,0.332-0.484
				c-0.109-0.134-0.223-0.267-0.332-0.391V9.412z M23.305,10.158v-0.46L22.994,9.95c-0.074-0.148-0.183-0.321-0.316-0.509
				c-0.144,0.237-0.297,0.45-0.465,0.628c-0.054-0.074-0.158-0.203-0.262-0.312v0.4H23.305z M23.305,8.002
				c-0.089,0.287-0.192,0.569-0.311,0.835c0.114,0.139,0.217,0.272,0.311,0.4V8.002z"/>
			<path d="M25.354,8.789c-0.203-0.143-0.643-0.38-0.934-0.534l0.386-0.534c0.272,0.124,0.727,0.336,0.949,0.47L25.354,8.789z
				 M24.47,10.455c0.262-0.366,0.638-0.964,0.939-1.542l0.529,0.479c-0.262,0.52-0.559,1.053-0.86,1.548L24.47,10.455z
				 M25.547,7.424c-0.193-0.144-0.618-0.381-0.89-0.544l0.405-0.519c0.262,0.133,0.697,0.351,0.91,0.484L25.547,7.424z
				 M27.871,8.418v0.524h0.999v2.027h-0.682v-0.178h-1.335v0.198h-0.647V8.942h0.984V8.418h-1.266V7.73h1.266V7.276
				c-0.302,0.044-0.608,0.079-0.9,0.104c-0.024-0.173-0.119-0.455-0.193-0.613c0.831-0.079,1.716-0.247,2.264-0.479l0.549,0.563
				c-0.316,0.124-0.667,0.228-1.038,0.302V7.73h1.207v0.688H27.871z M28.188,9.589h-1.335v0.554h1.335V9.589z"/>
			<path d="M33.931,7.335c0,0-0.005,0.228-0.005,0.312c-0.044,1.987-0.089,2.729-0.252,2.966c-0.133,0.193-0.257,0.252-0.44,0.292
				c-0.163,0.035-0.405,0.035-0.653,0.029c-0.015-0.193-0.089-0.469-0.198-0.667c-0.128,0.267-0.296,0.509-0.504,0.722
				c-0.114-0.183-0.346-0.44-0.529-0.559c0.124-0.124,0.232-0.257,0.321-0.406l-0.44,0.139c-0.01-0.055-0.02-0.114-0.04-0.178
				c-1.152,0.327-1.379,0.411-1.532,0.509v-0.02c-0.005,0.01-0.005,0.015-0.005,0.02c-0.035-0.133-0.148-0.459-0.227-0.633
				c0.104-0.04,0.178-0.143,0.257-0.321c0.06-0.138,0.213-0.598,0.316-1.093h-0.578V7.8h2.205v0.647h-0.89
				c-0.094,0.371-0.228,0.757-0.371,1.103l0.653-0.163c-0.06-0.183-0.128-0.366-0.193-0.529L31.399,8.7
				c0.148,0.331,0.306,0.756,0.4,1.083c0.222-0.484,0.306-1.068,0.336-1.76h-0.45V7.335h0.464c0.005-0.301,0.005-0.618,0.005-0.949
				h0.712c0,0.327,0,0.643-0.005,0.949H33.931z M31.542,7.295H29.58V6.668h1.962V7.295z M32.838,8.022
				c-0.044,0.86-0.153,1.606-0.44,2.215c0.198,0.015,0.366,0.015,0.47,0.015c0.079,0,0.124-0.02,0.178-0.089
				c0.099-0.128,0.139-0.707,0.173-2.141H32.838z"/>
			<path d="M38.759,10.198c0,0.351-0.064,0.549-0.277,0.663c-0.213,0.118-0.5,0.138-0.91,0.138
				c-0.025-0.198-0.134-0.529-0.237-0.712c0.232,0.015,0.519,0.015,0.603,0.015c0.084-0.005,0.114-0.035,0.114-0.114V7.197h-2.877
				v3.797h-0.697V6.52h4.281V10.198z M37.829,8.052h-2.452V7.454h2.452V8.052z M36.257,10.064v0.312H35.6V8.349h2.037v1.715H36.257z
				 M36.257,8.932v0.543h0.717V8.932H36.257z"/>
			<path d="M41.99,8.354v1.167c0.385-0.262,0.697-0.593,0.924-1.033l0.707,0.321c-0.796,1.414-2.116,1.923-3.98,2.19
				c-0.064-0.208-0.212-0.495-0.361-0.682c0.915-0.104,1.696-0.267,2.329-0.579h-0.391V8.354h-1.918V7.676h0.643V6.583h0.731v1.093
				h0.638V6.297h0.776v0.321h1.414v0.672h-1.414v0.386h1.71v0.677H41.99z M41.021,8.695c-0.287,0.435-0.747,0.885-1.147,1.157
				c-0.119-0.139-0.381-0.41-0.534-0.534c0.375-0.203,0.771-0.534,0.989-0.865L41.021,8.695z"/>
			<path d="M48.307,10.262c0.015,0,0.029-0.005,0.039-0.024c0.015-0.025,0.02-0.069,0.025-0.173c0.005-0.104,0.01-0.331,0.01-0.608
				c0.134,0.109,0.336,0.223,0.509,0.282c-0.005,0.262-0.029,0.603-0.064,0.756c-0.03,0.153-0.084,0.257-0.173,0.326
				c-0.084,0.074-0.212,0.099-0.331,0.099h-0.287c-0.129,0-0.287-0.049-0.381-0.153c-0.099-0.114-0.144-0.247-0.144-0.677V7.261
				h-0.484v0.935c0,0.851-0.124,2.101-0.855,2.808c-0.109-0.133-0.391-0.371-0.559-0.47v0.465h-0.717V9.377
				c-0.128,0.302-0.272,0.579-0.43,0.796c-0.069-0.212-0.237-0.489-0.351-0.667c0.306-0.43,0.578-1.068,0.722-1.617h-0.618V7.207
				h0.677V6.302h0.717v0.905h0.5v0.682h-0.5v0.094c0.164,0.168,0.559,0.613,0.667,0.742c0.01-0.188,0.015-0.366,0.015-0.534V6.583
				h1.933v3.461c0,0.114,0,0.168,0.005,0.188c0.01,0.02,0.02,0.029,0.034,0.029H48.307z M45.612,10.504
				c0.48-0.479,0.623-1.137,0.667-1.745l-0.351,0.678c-0.079-0.158-0.198-0.356-0.316-0.549V10.504z"/>
			<path d="M50.875,7.859h1.018v0.647h-1.018v0.272h0.934v1.216c0,0.262-0.034,0.43-0.192,0.534
				c-0.158,0.099-0.346,0.109-0.578,0.104c-0.016-0.173-0.09-0.425-0.164-0.593v0.949h-0.683V9.417h-0.272v1.187h-0.638V8.779h0.91
				V8.507H49.11V7.859h0.391c-0.158-0.074-0.371-0.158-0.5-0.203c0.193-0.311,0.351-0.815,0.43-1.28l0.658,0.134
				c-0.03,0.138-0.06,0.276-0.099,0.415h0.203V6.336h0.683v0.588h0.826v0.647h-0.826V7.859z M50.193,7.859V7.572h-0.415
				c-0.04,0.104-0.084,0.203-0.124,0.287H50.193z M50.875,9.417v0.613c0.094,0.005,0.198,0.005,0.238,0.005
				c0.039,0,0.054-0.01,0.054-0.055V9.417H50.875z M52.705,9.51h-0.668V6.683h0.668V9.51z M53.619,6.401v3.787
				c0,0.361-0.064,0.549-0.262,0.667c-0.203,0.114-0.5,0.139-0.891,0.139c-0.024-0.198-0.123-0.514-0.212-0.717
				c0.237,0.01,0.484,0.01,0.568,0.01c0.079,0,0.108-0.025,0.108-0.104V6.401H53.619z"/>
			<path d="M20.393,14.964c0.012,0.024,0.027,0.054,0.033,0.065c-0.459,0.376-0.515,0.42-0.539,0.462
				c-0.015-0.021-0.044-0.054-0.068-0.071c0.044-0.033,0.142-0.121,0.142-0.251v-1.137h-0.477v-0.086h0.563v1.282L20.393,14.964z
				 M20.073,13.552c-0.083-0.11-0.252-0.287-0.397-0.412l0.063-0.056c0.145,0.121,0.313,0.293,0.396,0.399L20.073,13.552z
				 M21.367,14.662c0.198,0.302,0.53,0.622,0.799,0.772c-0.024,0.018-0.047,0.044-0.065,0.068c-0.278-0.172-0.627-0.521-0.826-0.841
				h-0.009v1.009H21.18v-1.009h-0.012c-0.201,0.358-0.571,0.705-0.894,0.876c-0.015-0.024-0.042-0.053-0.062-0.071
				c0.316-0.145,0.672-0.474,0.87-0.805h-0.761v-0.086h0.858v-0.337h-0.678v-1.101h1.4v1.101h-0.636v0.337h0.87v0.086H21.367z
				 M20.588,13.644h0.592v-0.42h-0.592V13.644z M20.588,14.153h0.592v-0.423h-0.592V14.153z M21.816,13.224h-0.55v0.42h0.55V13.224z
				 M21.816,13.729h-0.55v0.423h0.55V13.729z"/>
			<path d="M25.104,15.509c-0.018,0.027-0.035,0.062-0.041,0.089h-0.77c-0.71,0-1.229-0.08-1.516-0.539
				c-0.05,0.243-0.133,0.441-0.269,0.601c-0.015-0.015-0.054-0.042-0.077-0.056c0.222-0.234,0.293-0.592,0.317-1.042l0.088,0.006
				c-0.009,0.136-0.021,0.264-0.041,0.379c0.077,0.145,0.177,0.251,0.302,0.332v-0.906h-0.646v-0.086h1.335v0.086h-0.604v0.394
				h0.557v0.086h-0.557v0.479c0.284,0.148,0.666,0.178,1.113,0.178H25.104z M23.613,14.014h-0.947v-0.876h0.947V14.014z
				 M23.527,13.224h-0.775v0.308h0.775V13.224z M23.527,13.617h-0.775v0.311h0.775V13.617z M24.48,13.851
				c-0.026,0.87-0.121,1.309-0.764,1.54c-0.012-0.018-0.039-0.048-0.059-0.063c0.63-0.216,0.713-0.642,0.737-1.477H24.48z
				 M24.252,13.597c0.036-0.101,0.077-0.252,0.101-0.358h-0.568v-0.086h1.309v0.086h-0.646c-0.032,0.122-0.071,0.261-0.109,0.358
				h0.58v1.249h-0.092v-1.164h-0.808v1.164H23.93v-1.249H24.252z M25.004,15.346c-0.115-0.136-0.349-0.344-0.553-0.486l0.065-0.044
				c0.198,0.139,0.438,0.341,0.557,0.477L25.004,15.346z"/>
			<path d="M26.418,14.579c0,0.027,0.006,0.06,0.009,0.08c-0.838,0.178-0.924,0.198-0.971,0.225
				c-0.006-0.021-0.021-0.071-0.035-0.098c0.053-0.012,0.136-0.089,0.233-0.198c0.068-0.074,0.243-0.275,0.42-0.518
				c-0.53,0.077-0.601,0.092-0.636,0.112c-0.006-0.023-0.021-0.074-0.033-0.098c0.047-0.009,0.104-0.089,0.175-0.192
				c0.077-0.104,0.332-0.506,0.488-0.879l0.092,0.042c-0.175,0.361-0.382,0.729-0.589,0.998l0.571-0.074
				c0.074-0.107,0.154-0.219,0.219-0.332l0.089,0.042c-0.257,0.391-0.539,0.761-0.82,1.048L26.418,14.579z M26.436,15.192
				c-0.364,0.092-0.737,0.181-1.006,0.249l-0.021-0.092c0.252-0.053,0.637-0.148,1.021-0.237L26.436,15.192z M28.067,15.512v0.086
				h-1.711v-0.086h0.34v-2.359h1.096v2.359H28.067z M26.782,13.238v0.681h0.924v-0.681H26.782z M26.782,14.709h0.924v-0.705h-0.924
				V14.709z M26.782,15.512h0.924v-0.716h-0.924V15.512z"/>
		</g>
	</g>
</g>
</svg>
