<?xml version="1.0" standalone="no"?>
<!DOCTYPE svg PUBLIC "-//W3C//DTD SVG 20010904//EN"
 "http://www.w3.org/TR/2001/REC-SVG-20010904/DTD/svg10.dtd">
<svg version="1.0" xmlns="http://www.w3.org/2000/svg"
 width="1280.000000pt" height="1280.000000pt" viewBox="0 0 1280.000000 1280.000000"
 preserveAspectRatio="xMidYMid meet">
<metadata>
Created by potrace 1.11, written by Peter Selinger 2001-2013
</metadata>
<g transform="translate(0.000000,1280.000000) scale(0.100000,-0.100000)"
fill="#000000" stroke="none">
<path d="M555 12789 c-259 -57 -458 -241 -536 -494 -17 -55 -19 -103 -19 -636
l0 -575 95 -130 c271 -369 345 -470 352 -479 5 -5 58 -77 118 -160 60 -82 113
-154 118 -160 13 -17 70 -94 203 -275 70 -96 175 -238 232 -315 57 -77 110
-149 118 -160 8 -11 109 -148 224 -305 116 -157 212 -289 214 -295 2 -5 6 -8
9 -5 5 5 159 516 201 670 3 8 39 132 81 275 89 302 111 376 170 580 70 239 89
303 175 595 87 294 110 373 117 405 3 16 -74 215 -152 390 -7 17 -56 134 -110
260 -53 127 -102 244 -110 260 -7 17 -42 100 -78 185 -36 85 -86 206 -112 268
l-48 112 -611 -1 c-336 -1 -629 -5 -651 -10z"/>
<path d="M2130 12797 c0 -2 45 -111 101 -243 133 -314 254 -601 291 -691 17
-40 34 -73 37 -73 4 0 33 89 64 198 65 224 136 467 174 592 14 47 31 105 37
130 7 25 16 55 20 68 l7 22 -365 0 c-201 0 -366 -2 -366 -3z"/>
<path d="M3336 12718 c-13 -46 -57 -193 -96 -328 -39 -135 -84 -288 -100 -340
-16 -52 -77 -259 -135 -460 -58 -201 -117 -401 -130 -445 -25 -80 -159 -536
-260 -885 -30 -102 -82 -277 -115 -390 -33 -113 -63 -212 -65 -220 -11 -42
-79 -275 -100 -345 -32 -103 -155 -521 -165 -560 -4 -16 -24 -84 -44 -150 -19
-66 -46 -157 -59 -203 l-25 -82 130 -178 c72 -97 166 -224 208 -282 207 -278
653 -885 685 -930 18 -26 399 -543 556 -755 36 -49 177 -241 313 -425 136
-184 306 -415 378 -513 l131 -178 35 33 c42 40 103 100 432 418 138 135 278
270 309 300 57 55 57 55 55 110 -3 86 -14 328 -19 400 -4 61 -8 133 -20 405
-3 61 -7 146 -10 190 -3 44 -7 130 -10 190 -3 61 -7 155 -10 210 -3 55 -8 150
-10 210 -3 61 -7 146 -10 190 -3 44 -7 132 -10 195 -3 63 -8 151 -10 195 -2
44 -7 139 -10 210 -3 72 -8 162 -10 200 -8 127 -17 319 -29 610 -4 72 -8 159
-11 195 -2 36 -7 117 -10 180 -3 63 -8 163 -11 221 -3 59 -7 146 -9 195 -2 49
-6 134 -9 189 -3 55 -8 156 -11 225 -4 69 -8 154 -10 190 -3 36 -7 124 -10
195 -3 72 -7 162 -10 200 -2 39 -7 126 -10 195 -4 69 -8 161 -10 205 -2 44 -7
134 -10 200 -3 66 -7 158 -10 205 -6 98 -13 242 -20 385 -3 55 -7 143 -9 195
-3 52 -8 160 -12 240 -3 80 -8 159 -9 175 -2 17 -3 45 -4 63 l-1 32 -784 0
-785 0 -25 -82z"/>
<path d="M5414 12703 c8 -141 16 -283 21 -403 8 -178 14 -301 20 -405 6 -113
13 -243 30 -600 6 -119 15 -298 20 -400 3 -49 7 -137 10 -195 2 -58 7 -145 9
-195 3 -49 8 -148 11 -220 3 -71 8 -159 10 -195 3 -36 7 -121 10 -190 3 -69 8
-161 10 -205 14 -262 18 -345 19 -392 1 -28 4 -54 7 -58 4 -3 71 70 150 162
79 92 146 170 149 173 3 3 25 30 50 60 25 30 53 64 63 75 10 11 51 58 90 105
40 46 151 177 248 290 96 113 213 250 259 305 100 118 114 134 171 200 24 28
91 106 149 175 100 120 143 170 165 194 6 6 73 85 150 176 77 91 152 179 166
195 15 17 94 109 176 205 81 96 158 186 170 200 13 14 23 30 23 36 0 6 -11 72
-25 145 -14 74 -28 148 -31 164 -2 17 -7 37 -9 45 -2 8 -7 31 -10 50 -3 19
-19 103 -35 185 -16 83 -39 202 -50 265 -12 63 -23 123 -26 133 -5 16 -66 17
-1090 17 l-1085 0 5 -97z"/>
<path d="M7777 12794 c-3 -3 -2 -16 2 -28 5 -12 12 -44 15 -71 4 -28 11 -66
16 -85 5 -19 11 -53 15 -75 3 -22 14 -83 25 -135 11 -52 31 -156 45 -230 13
-74 28 -148 33 -164 8 -29 9 -29 23 -10 8 12 34 44 59 73 25 29 52 61 60 71 8
9 36 42 61 71 38 44 189 221 447 524 14 17 32 38 40 48 14 16 -6 17 -410 17
-233 0 -427 -3 -431 -6z"/>
<path d="M8985 12773 c-11 -14 -24 -31 -30 -37 -5 -6 -35 -40 -65 -76 -30 -36
-59 -70 -65 -76 -15 -17 -86 -100 -260 -304 -86 -102 -167 -196 -178 -210 -25
-29 -181 -212 -213 -250 -12 -14 -41 -48 -65 -75 -24 -28 -62 -72 -84 -98 -22
-27 -48 -58 -58 -70 -10 -12 -31 -36 -45 -52 -15 -17 -49 -57 -77 -90 -27 -33
-54 -65 -60 -71 -5 -6 -82 -95 -170 -199 -173 -203 -340 -398 -414 -484 -69
-81 -69 -79 -3 -76 31 2 113 6 182 9 69 4 143 9 165 11 22 2 99 7 170 10 72 4
146 8 165 10 19 2 96 6 170 9 74 4 153 9 175 11 22 2 94 7 160 10 219 12 409
23 515 30 36 2 115 7 175 10 111 6 193 11 340 20 44 3 121 7 170 10 50 3 131
7 180 11 50 3 128 7 175 9 47 2 119 7 160 10 41 3 118 8 170 11 70 4 99 10
111 22 17 18 482 470 610 593 43 41 190 184 329 319 139 135 289 281 335 325
45 44 202 196 348 338 146 142 289 281 318 308 29 27 50 51 48 52 -6 5 -73 31
-84 33 -5 1 -30 7 -55 13 -31 7 -548 11 -1635 11 l-1590 0 -20 -27z"/>
<path d="M12675 12306 c-33 -36 -169 -176 -301 -313 -133 -136 -277 -285 -320
-329 -163 -168 -530 -546 -632 -651 -128 -131 -570 -587 -672 -693 -60 -63
-316 -326 -655 -675 -38 -39 -188 -193 -331 -341 -144 -148 -297 -305 -339
-349 -43 -44 -191 -197 -330 -340 -339 -349 -454 -469 -452 -471 3 -3 78 -12
162 -19 33 -3 71 -7 85 -10 14 -2 58 -7 98 -10 41 -4 81 -8 90 -10 9 -1 53 -6
97 -10 44 -3 94 -8 110 -10 17 -2 57 -7 90 -10 33 -3 78 -8 100 -10 58 -7 121
-13 190 -20 33 -3 74 -8 90 -10 17 -2 66 -7 110 -10 44 -4 89 -9 100 -11 11
-2 54 -7 96 -10 75 -6 78 -6 145 31 38 21 92 50 119 65 67 36 145 79 300 165
72 40 164 90 205 112 41 23 118 64 170 93 52 29 120 66 150 82 30 17 78 43
105 58 28 15 77 42 110 60 33 18 80 44 105 58 132 73 234 128 340 185 36 20
121 66 190 104 l125 69 337 670 337 669 -2 910 -2 910 -24 68 c-13 37 -27 67
-30 67 -3 0 -33 -29 -66 -64z"/>
<path d="M10046 10583 c-1 -1 -54 -5 -117 -8 -63 -3 -141 -8 -174 -10 -33 -3
-105 -7 -160 -10 -55 -3 -131 -8 -170 -10 -38 -2 -115 -7 -170 -10 -55 -3
-131 -7 -170 -10 -38 -2 -117 -7 -175 -10 -58 -3 -136 -8 -175 -10 -38 -2
-115 -7 -170 -10 -55 -3 -134 -8 -175 -11 -41 -2 -113 -6 -160 -9 -47 -3 -125
-7 -175 -10 -175 -11 -344 -21 -525 -31 -47 -2 -116 -6 -155 -9 -75 -5 -227
-14 -339 -20 -50 -2 -74 -8 -86 -22 -10 -10 -127 -146 -260 -303 -134 -157
-264 -310 -290 -340 -110 -128 -346 -406 -360 -424 -8 -10 -24 -28 -35 -40
-17 -18 -76 -88 -196 -231 -10 -11 -58 -67 -108 -125 l-91 -105 5 -110 c12
-228 15 -303 21 -420 3 -66 7 -149 9 -185 2 -36 6 -126 9 -200 4 -74 8 -160
11 -190 2 -30 7 -122 11 -205 3 -82 8 -179 9 -215 2 -35 6 -125 9 -200 4 -74
8 -160 11 -190 2 -30 7 -118 11 -195 3 -77 7 -171 9 -210 2 -38 5 -96 6 -127
1 -32 5 -58 8 -58 6 0 50 43 524 504 137 132 283 274 325 315 43 40 196 189
341 330 145 141 298 289 340 330 42 40 197 191 344 335 148 143 302 293 342
331 40 39 187 181 327 317 139 135 292 284 340 330 47 45 203 196 345 334 142
139 296 289 343 334 47 45 197 190 333 323 137 132 307 298 379 367 l131 127
-52 -1 c-29 -1 -54 -2 -55 -3z"/>
<path d="M12607 9614 l-188 -376 68 37 c37 20 123 67 190 103 l123 67 0 273
c0 149 -1 272 -3 272 -1 0 -87 -169 -190 -376z"/>
<path d="M0 5344 l0 -4608 52 51 c29 28 90 86 134 129 45 44 196 190 335 325
140 136 288 279 329 319 41 40 149 145 240 233 158 154 596 579 781 759 48 45
203 196 345 334 143 139 294 285 336 326 42 41 192 186 334 324 141 137 296
287 344 334 93 90 536 520 651 632 38 36 69 72 69 78 0 7 -10 24 -22 39 -13
15 -31 38 -40 52 -10 13 -43 58 -73 99 -31 41 -63 84 -70 95 -38 52 -185 251
-192 260 -4 6 -51 69 -103 140 -52 72 -158 216 -235 320 -175 235 -648 878
-695 944 -43 60 -641 872 -653 886 -4 6 -36 48 -70 95 -34 47 -146 200 -250
340 -103 140 -232 316 -287 390 -315 429 -403 547 -418 569 -9 12 -26 35 -37
49 -11 15 -104 141 -208 282 -103 140 -251 342 -330 448 -78 107 -170 232
-204 279 l-63 86 0 -4609z"/>
<path d="M12765 9102 c-16 -10 -64 -37 -105 -59 -93 -50 -166 -90 -295 -161
-55 -30 -129 -71 -165 -90 -36 -19 -99 -54 -140 -77 -41 -23 -111 -61 -155
-85 -44 -24 -96 -52 -115 -63 -52 -29 -354 -194 -440 -240 -41 -22 -79 -43
-85 -47 -5 -4 -46 -26 -90 -50 -44 -24 -100 -54 -125 -68 -25 -14 -124 -68
-220 -120 -96 -53 -177 -97 -179 -99 -9 -7 7 -11 74 -18 39 -3 84 -8 100 -10
17 -2 55 -6 85 -9 30 -3 78 -8 105 -11 28 -3 70 -7 95 -9 25 -2 65 -7 90 -10
61 -7 144 -16 210 -21 30 -3 71 -7 90 -10 64 -8 134 -15 200 -20 35 -3 76 -7
90 -9 14 -3 57 -7 95 -11 39 -3 81 -8 95 -10 14 -2 57 -6 95 -10 39 -3 86 -8
105 -10 19 -3 64 -7 100 -11 74 -7 73 -7 275 -28 83 -9 171 -18 198 -20 l47
-4 0 704 c0 387 -1 704 -2 704 -2 0 -16 -8 -33 -18z"/>
<path d="M8164 7652 c-42 -43 -158 -162 -614 -632 -165 -170 -543 -560 -620
-640 -86 -89 -573 -590 -586 -602 -4 -5 1447 -8 3224 -8 l3232 0 0 730 0 730
-22 1 c-13 0 -31 2 -41 4 -9 2 -51 6 -93 10 -41 3 -83 8 -93 10 -10 2 -55 6
-102 10 -46 4 -91 9 -101 10 -9 2 -49 6 -90 10 -40 3 -84 8 -98 10 -14 2 -59
6 -100 10 -41 4 -86 8 -100 10 -14 2 -54 7 -90 10 -36 3 -81 8 -100 10 -19 2
-62 7 -95 10 -33 3 -73 8 -90 10 -16 2 -64 7 -106 10 -42 3 -86 7 -96 10 -11
2 -56 6 -99 10 -43 3 -90 8 -104 10 -14 2 -54 7 -90 10 -36 3 -81 8 -100 10
-37 5 -92 10 -200 20 -36 4 -76 8 -90 10 -14 2 -59 6 -100 10 -41 3 -82 8 -90
10 -8 2 -51 7 -94 10 -43 4 -86 8 -95 10 -9 1 -52 6 -96 10 -44 3 -91 8 -105
10 -14 2 -59 7 -100 10 -41 4 -82 8 -90 10 -8 1 -49 6 -90 10 -41 4 -88 8
-105 11 -16 2 -61 6 -100 9 -38 3 -81 8 -95 10 -14 2 -59 6 -100 10 -41 3 -86
8 -100 10 -14 3 -54 7 -90 10 -36 3 -81 7 -100 10 -19 2 -60 7 -90 10 -75 7
-135 13 -195 20 -116 12 -143 15 -205 20 -36 3 -76 7 -90 10 -14 2 -58 7 -99
11 -41 3 -82 7 -90 9 -9 1 -50 6 -92 9 l-77 7 -48 -49z"/>
<path d="M5858 5276 c-115 -118 -555 -572 -614 -633 -44 -45 -188 -193 -321
-330 -132 -136 -282 -291 -333 -343 -50 -52 -208 -214 -349 -360 -142 -146
-291 -299 -331 -340 -39 -41 -183 -190 -320 -330 -136 -140 -280 -289 -320
-330 -40 -41 -143 -147 -229 -236 -205 -211 -195 -196 -125 -177 55 14 208 50
569 133 94 22 267 62 385 90 118 28 224 52 235 55 22 4 286 66 616 143 119 28
228 54 243 57 14 3 38 7 53 11 15 3 30 7 33 9 4 2 21 7 38 10 17 3 70 14 119
26 48 12 99 23 113 25 14 3 31 7 39 10 14 4 151 37 231 54 19 4 87 20 150 35
63 15 122 28 130 30 8 2 65 15 125 29 61 14 148 35 195 46 47 10 202 47 345
80 143 34 271 64 285 66 14 3 41 9 60 14 19 5 46 11 60 14 14 2 63 13 110 25
136 33 575 135 670 156 57 13 428 99 532 124 69 17 137 32 150 35 13 3 32 7
43 10 51 12 253 59 370 86 72 16 198 45 280 65 83 19 227 53 320 75 94 21 258
60 365 85 107 26 206 49 220 51 14 3 41 9 60 14 19 5 46 11 60 14 14 2 52 11
85 19 33 9 71 18 85 20 14 3 52 12 85 20 33 9 71 18 85 21 31 6 46 10 135 31
39 9 79 18 89 21 11 2 108 24 215 50 108 25 205 47 216 50 11 2 76 17 145 33
345 80 564 131 583 135 27 6 16 4 282 66 121 28 249 58 284 66 79 19 99 24
131 30 14 3 77 17 140 32 l115 28 3 397 2 397 -3464 0 c-2904 0 -3467 -2
-3478 -14z"/>
<path d="M12675 3778 c-141 -33 -151 -35 -188 -43 -15 -3 -67 -15 -115 -26
-48 -12 -94 -22 -102 -24 -8 -2 -53 -12 -100 -23 -142 -35 -645 -151 -810
-188 -85 -19 -168 -39 -185 -44 -16 -5 -41 -11 -55 -14 -14 -2 -108 -23 -209
-47 l-183 -43 124 -61 c68 -33 189 -91 268 -129 80 -38 240 -116 356 -172 116
-56 244 -118 285 -137 41 -19 151 -72 244 -118 94 -45 172 -83 175 -84 5 -1
31 -13 409 -196 112 -55 206 -98 208 -96 2 2 2 335 1 739 l-3 735 -120 -29z"/>
<path d="M9855 3124 c-55 -13 -179 -42 -275 -65 -96 -22 -184 -43 -195 -45
-11 -3 -31 -7 -45 -10 -14 -3 -50 -11 -80 -19 -30 -8 -66 -16 -80 -19 -26 -5
-135 -30 -305 -71 -55 -13 -111 -26 -125 -29 -14 -2 -110 -25 -215 -50 -104
-24 -201 -47 -215 -50 -14 -2 -113 -25 -220 -50 -220 -52 -365 -86 -395 -92
-11 -2 -65 -15 -120 -28 -55 -14 -111 -27 -125 -29 -14 -3 -56 -13 -95 -22
-164 -39 -444 -105 -470 -109 -11 -2 -58 -13 -105 -24 -219 -52 -423 -100
-500 -117 -20 -4 -477 -111 -555 -130 -60 -14 -317 -74 -345 -80 -8 -2 -123
-28 -255 -59 -132 -31 -292 -68 -355 -82 -63 -15 -178 -42 -255 -60 -77 -18
-151 -35 -165 -38 -14 -2 -81 -18 -150 -35 -69 -16 -147 -35 -175 -41 -27 -7
-57 -13 -65 -15 -8 -2 -82 -19 -165 -38 -82 -19 -218 -51 -301 -71 -84 -19
-163 -37 -175 -40 -19 -4 -200 -46 -349 -81 -83 -20 -459 -107 -470 -110 -8
-2 -127 -29 -265 -60 l-250 -58 -83 -86 c-46 -47 -150 -154 -230 -237 -425
-436 -686 -705 -761 -783 -46 -47 -106 -110 -134 -139 l-51 -52 5754 0 c5640
1 5756 1 5812 20 246 82 414 260 477 505 19 76 20 109 21 676 l0 596 -117 56
c-65 30 -201 96 -303 145 -221 107 -402 194 -565 272 -66 32 -190 91 -275 132
-169 82 -304 147 -535 258 -82 40 -211 102 -285 137 -74 36 -180 87 -235 113
-55 26 -189 91 -298 144 -109 53 -205 96 -215 95 -9 0 -62 -11 -117 -25z"/>
</g>
</svg>
