<?xml version="1.0" encoding="UTF-8" standalone="no"?>
<svg
   xmlns:dc="http://purl.org/dc/elements/1.1/"
   xmlns:cc="http://creativecommons.org/ns#"
   xmlns:rdf="http://www.w3.org/1999/02/22-rdf-syntax-ns#"
   xmlns:svg="http://www.w3.org/2000/svg"
   xmlns="http://www.w3.org/2000/svg"
   xml:space="preserve"
   width="141.732px"
   viewBox="0 0 141.732 141.732"
   version="1.1"
   id="Livello_1"
   height="141.732px"
   enable-background="new 0 0 141.732 141.732"><metadata
     id="metadata5159"><rdf:RDF><cc:Work
         rdf:about=""><dc:format>image/svg+xml</dc:format><dc:type
           rdf:resource="http://purl.org/dc/dcmitype/StillImage" /><dc:title></dc:title></cc:Work></rdf:RDF></metadata><defs
     id="defs5157" /><path
     id="path5150"
     d="m 119.019,58.776 c -2.561,-2.562 -6.716,-2.562 -9.275,0 L 77.21,91.312 V 6.562 C 77.21,2.936 74.269,0 70.648,0 c -3.624,0 -6.56,2.937 -6.56,6.563 v 84.75 L 31.992,59.218 c -2.562,-2.564 -6.715,-2.564 -9.277,0 -2.565,2.562 -2.565,6.716 0,9.279 l 43.294,43.293 c 0.15,0.154 0.314,0.299 0.481,0.438 0.076,0.062 0.155,0.113 0.234,0.176 0.094,0.065 0.186,0.142 0.279,0.206 0.097,0.063 0.192,0.114 0.286,0.174 0.088,0.054 0.174,0.105 0.265,0.153 0.1,0.056 0.199,0.1 0.298,0.147 0.097,0.045 0.19,0.091 0.283,0.132 0.098,0.04 0.196,0.072 0.295,0.105 0.104,0.038 0.207,0.078 0.312,0.109 0.101,0.03 0.197,0.052 0.297,0.077 0.108,0.023 0.214,0.058 0.324,0.078 0.115,0.021 0.231,0.033 0.346,0.054 0.097,0.015 0.192,0.032 0.289,0.042 0.43,0.042 0.865,0.042 1.295,0 0.1,-0.01 0.191,-0.027 0.289,-0.042 0.114,-0.021 0.233,-0.029 0.344,-0.054 0.109,-0.021 0.217,-0.055 0.324,-0.078 0.102,-0.025 0.199,-0.047 0.299,-0.077 0.105,-0.031 0.207,-0.071 0.312,-0.109 0.102,-0.03 0.195,-0.062 0.295,-0.105 0.096,-0.041 0.191,-0.087 0.283,-0.132 0.1,-0.048 0.199,-0.092 0.297,-0.147 0.091,-0.048 0.177,-0.104 0.264,-0.153 0.098,-0.06 0.193,-0.11 0.287,-0.174 0.096,-0.064 0.189,-0.141 0.281,-0.206 0.076,-0.062 0.156,-0.113 0.233,-0.176 0.249,-0.204 0.479,-0.437 0.694,-0.67 0.076,-0.067 0.154,-0.131 0.229,-0.203 l 43.294,-43.296 c 2.563,-2.568 2.563,-6.722 0.001,-9.283" /><g
     id="Livello_1_1_" /></svg>