<?xml version="1.0" encoding="UTF-8" standalone="no"?><!DOCTYPE svg PUBLIC "-//W3C//DTD SVG 1.1//EN" "http://www.w3.org/Graphics/SVG/1.1/DTD/svg11.dtd"><svg width="100%" height="100%" viewBox="0 0 50 50" version="1.1" xmlns="http://www.w3.org/2000/svg" xmlns:xlink="http://www.w3.org/1999/xlink" xml:space="preserve" xmlns:serif="http://www.serif.com/" style="fill-rule:evenodd;clip-rule:evenodd;stroke-linejoin:round;stroke-miterlimit:1.41421;"><path d="M24.84,4.704c11.097,0 20.106,9.009 20.106,20.106c0,11.097 -9.009,20.106 -20.106,20.106c-11.096,0 -20.105,-9.009 -20.105,-20.106c0,-11.097 9.009,-20.106 20.105,-20.106Zm-4.724,15.381l-9.45,0l0,9.365l9.45,0l0,9.449l9.449,0l0,-9.449l9.449,0l0,-9.365l-9.449,0l0,9.365l-9.449,0l0,-9.365Zm9.449,-0.084l0,-9.365l-9.449,0l0,9.365l9.449,0Z" style="fill:#595757;"/><path d="M20.116,38.899l-9.45,0l0,-9.449l9.45,0l0,9.449Zm18.898,0l-9.449,0l0,-9.364l9.449,0l0,9.364Zm0,-18.814l-9.449,0l0,-9.449l9.449,0l0,9.449Zm-18.898,-0.084l-9.45,0l0,-9.365l9.45,0l0,9.365Z" style="fill:#848484;"/></svg>