<?xml version="1.0" encoding="UTF-8" standalone="no"?><!DOCTYPE svg PUBLIC "-//W3C//DTD SVG 1.1//EN" "http://www.w3.org/Graphics/SVG/1.1/DTD/svg11.dtd"><svg width="100%" height="100%" viewBox="0 0 50 50" version="1.1" xmlns="http://www.w3.org/2000/svg" xmlns:xlink="http://www.w3.org/1999/xlink" xml:space="preserve" xmlns:serif="http://www.serif.com/" style="fill-rule:evenodd;clip-rule:evenodd;stroke-linejoin:round;stroke-miterlimit:1.41421;"><path d="M32.151,10.393l0,-0.899l9.359,0l0,0.899c-1.498,0 -2.538,0.353 -3.119,1.058c-0.582,0.705 -0.873,1.983 -0.873,3.833l0,25.222l-0.95,0l-21.971,-26.967l0,21.78c0,1.535 0.313,2.634 0.938,3.295c0.626,0.662 1.67,0.993 3.133,0.993l0,0.899l-9.412,0l0,-0.899c1.498,0 2.512,-0.393 3.041,-1.178c0.528,-0.785 0.793,-2.165 0.793,-4.141l0,-18.152c0,-1.959 -0.357,-3.366 -1.071,-4.221c-0.714,-0.856 -1.89,-1.363 -3.529,-1.522l0,-0.899l7.959,0l19.483,24.138l0,-18.136c0,-1.904 -0.269,-3.23 -0.806,-3.979c-0.538,-0.749 -1.529,-1.124 -2.975,-1.124Z" style="fill:#595757;fill-rule:nonzero;stroke:#595757;stroke-width:0.96px;"/></svg>