<?xml version="1.0" encoding="UTF-8" standalone="no"?><!DOCTYPE svg PUBLIC "-//W3C//DTD SVG 1.1//EN" "http://www.w3.org/Graphics/SVG/1.1/DTD/svg11.dtd"><svg width="100%" height="100%" viewBox="0 0 50 50" version="1.1" xmlns="http://www.w3.org/2000/svg" xmlns:xlink="http://www.w3.org/1999/xlink" xml:space="preserve" xmlns:serif="http://www.serif.com/" style="fill-rule:evenodd;clip-rule:evenodd;stroke-linejoin:round;stroke-miterlimit:1.41421;"><path d="M20.666,42.523c8.232,0 13.699,-4.112 13.699,-11.034l0,-0.098c0,-6.343 -4.838,-8.861 -12.582,-10.556c-4.749,-1.065 -5.912,-1.744 -5.912,-3.295l0,-0.097c0,-1.259 1.114,-2.178 3.391,-2.178c3.005,0 6.396,1.112 9.492,3.342l4.692,-6.633c-3.679,-2.951 -8.179,-4.497 -13.942,-4.497c-8.133,0 -13.117,4.545 -13.117,10.838l0,0.098c0,6.926 5.564,8.959 12.78,10.607c4.648,1.111 5.765,1.841 5.765,3.293l0,0.096c0,1.452 -1.359,2.323 -3.927,2.323c-3.922,0 -7.601,-1.401 -10.987,-4.066l-5.229,6.246c4.211,3.723 9.874,5.611 15.877,5.611Z" style="fill:#727272;fill-rule:nonzero;"/><path d="M45.211,36.824c0,-2.838 -2.308,-5.149 -5.146,-5.149c-2.908,0 -5.221,2.311 -5.221,5.149c0,2.905 2.313,5.214 5.221,5.214c2.838,0 5.146,-2.309 5.146,-5.214Z" style="fill:#727272;fill-rule:nonzero;"/></svg>